<svg width="18" height="18" viewBox="0 0 18 18" fill="none" xmlns="http://www.w3.org/2000/svg">
  <mask id="path-1-inside-1_7994_13687" fill="white">
    <path fillRule="evenodd" clipRule="evenodd"
      d="M16.2403 9.68433C16.5979 9.30035 16.5979 8.70527 16.2403 8.32129L10.7318 2.40643C10.1129 1.74185 9 2.1798 9 3.08795V4.81832H2.125C1.57272 4.81832 1.125 5.26604 1.125 5.81832V12.1875C1.125 12.7398 1.57271 13.1875 2.125 13.1875H9V14.9177C9 15.8258 10.1129 16.2638 10.7318 15.5992L16.2403 9.68433Z" />
  </mask>
  <path
    d="M16.2403 8.32129L17.1185 7.50346L17.1185 7.50346L16.2403 8.32129ZM16.2403 9.68433L15.3621 8.86651V8.86651L16.2403 9.68433ZM10.7318 2.40643L9.85364 3.22426L9.85364 3.22426L10.7318 2.40643ZM9 4.81832V6.01832H10.2V4.81832H9ZM9 13.1875H10.2V11.9875H9V13.1875ZM10.7318 15.5992L11.61 16.417V16.417L10.7318 15.5992ZM15.3621 9.13912C15.2906 9.06232 15.2906 8.9433 15.3621 8.86651L17.1185 10.5022C17.9052 9.6574 17.9052 8.34823 17.1185 7.50346L15.3621 9.13912ZM9.85364 3.22426L15.3621 9.13912L17.1185 7.50346L11.61 1.5886L9.85364 3.22426ZM10.2 3.08795C10.2 3.11514 10.1889 3.16224 10.1575 3.20591C10.1303 3.24376 10.0989 3.26394 10.0732 3.27406C10.0475 3.28417 10.0109 3.29074 9.96514 3.28161C9.91237 3.27107 9.87217 3.24415 9.85364 3.22426L11.61 1.5886C10.2483 0.126521 7.8 1.09001 7.8 3.08795H10.2ZM10.2 4.81832V3.08795H7.8V4.81832H10.2ZM2.125 6.01832H9V3.61832H2.125V6.01832ZM2.325 5.81832C2.325 5.92878 2.23546 6.01832 2.125 6.01832V3.61832C0.909973 3.61832 -0.075 4.6033 -0.075 5.81832H2.325ZM2.325 12.1875V5.81832H-0.075V12.1875H2.325ZM2.125 11.9875C2.23546 11.9875 2.325 12.0771 2.325 12.1875H-0.075C-0.075 13.4026 0.909973 14.3875 2.125 14.3875V11.9875ZM9 11.9875H2.125V14.3875H9V11.9875ZM10.2 14.9177V13.1875H7.8V14.9177H10.2ZM9.85364 14.7814C9.87217 14.7615 9.91237 14.7345 9.96514 14.724C10.0109 14.7149 10.0475 14.7214 10.0732 14.7316C10.0989 14.7417 10.1303 14.7619 10.1575 14.7997C10.1889 14.8434 10.2 14.8905 10.2 14.9177H7.8C7.8 16.9156 10.2483 17.8791 11.61 16.417L9.85364 14.7814ZM15.3621 8.86651L9.85364 14.7814L11.61 16.417L17.1185 10.5022L15.3621 8.86651Z"
    fill="#29282C" mask="url(#path-1-inside-1_7994_13687)" />
</svg>
  