<svg width="18" height="18" viewBox="0 0 18 18" fill="none" xmlns="http://www.w3.org/2000/svg">
  <mask id="path-1-inside-1_7994_23649" fill="white">
    <path fillRule="evenodd" clipRule="evenodd"
      d="M4.125 2.25C2.46815 2.25 1.125 3.59315 1.125 5.25V10.7244C1.125 12.3813 2.46815 13.7244 4.125 13.7244H4.5V15.0305C4.5 15.881 5.49423 16.3432 6.14451 15.7951L8.601 13.7244H13.875C15.5319 13.7244 16.875 12.3813 16.875 10.7244V5.25C16.875 3.59315 15.5319 2.25 13.875 2.25H4.125Z" />
  </mask>
  <path
    d="M4.5 13.7244H5.7V12.5244H4.5V13.7244ZM6.14451 15.7951L5.3711 14.8776H5.3711L6.14451 15.7951ZM8.601 13.7244V12.5244H8.1627L7.82759 12.8069L8.601 13.7244ZM2.325 5.25C2.325 4.25589 3.13089 3.45 4.125 3.45V1.05C1.8054 1.05 -0.075 2.93041 -0.075 5.25H2.325ZM2.325 10.7244V5.25H-0.075V10.7244H2.325ZM4.125 12.5244C3.13089 12.5244 2.325 11.7186 2.325 10.7244H-0.075C-0.075 13.044 1.8054 14.9244 4.125 14.9244V12.5244ZM4.5 12.5244H4.125V14.9244H4.5V12.5244ZM3.3 13.7244V15.0305H5.7V13.7244H3.3ZM3.3 15.0305C3.3 16.9016 5.48731 17.9185 6.91791 16.7126L5.3711 14.8776C5.39289 14.8592 5.43281 14.8391 5.48109 14.8338C5.52387 14.829 5.55868 14.8372 5.58432 14.8491C5.60996 14.8611 5.63866 14.8824 5.66261 14.9182C5.68963 14.9585 5.7 15.002 5.7 15.0305H3.3ZM6.91791 16.7126L9.3744 14.642L7.82759 12.8069L5.3711 14.8776L6.91791 16.7126ZM13.875 12.5244H8.601V14.9244H13.875V12.5244ZM15.675 10.7244C15.675 11.7185 14.8691 12.5244 13.875 12.5244V14.9244C16.1946 14.9244 18.075 13.044 18.075 10.7244H15.675ZM15.675 5.25V10.7244H18.075V5.25H15.675ZM13.875 3.45C14.8691 3.45 15.675 4.25589 15.675 5.25H18.075C18.075 2.9304 16.1946 1.05 13.875 1.05V3.45ZM4.125 3.45H13.875V1.05H4.125V3.45Z"
    fill="#29282C" mask="url(#path-1-inside-1_7994_23649)" />
</svg>
  