<svg width="17" height="17" viewBox="0 0 17 17" fill="none" xmlns="http://www.w3.org/2000/svg">
  <path
    d="M9.65327 2.87883L10.8266 5.2255C10.9866 5.55216 11.4133 5.86549 11.7733 5.92549L13.8999 6.27883C15.2599 6.50549 15.5799 7.49216 14.5999 8.46549L12.9466 10.1188C12.6666 10.3988 12.5133 10.9388 12.5999 11.3255L13.0733 13.3722C13.4466 14.9922 12.5866 15.6188 11.1533 14.7722L9.15994 13.5922C8.79994 13.3788 8.20661 13.3788 7.83994 13.5922L5.84661 14.7722C4.41994 15.6188 3.55327 14.9855 3.92661 13.3722L4.39994 11.3255C4.48661 10.9388 4.33327 10.3988 4.05327 10.1188L2.39994 8.46549C1.42661 7.49216 1.73994 6.50549 3.09994 6.27883L5.22661 5.92549C5.57994 5.86549 6.00661 5.55216 6.16661 5.2255L7.33994 2.87883C7.97994 1.60549 9.01994 1.60549 9.65327 2.87883Z"
    stroke="currentColor" stroke-width="1.2" stroke-linecap="round" stroke-linejoin="round" />
</svg>