<svg width="20" height="20" viewBox="0 0 20 20" fill="none" xmlns="http://www.w3.org/2000/svg">
  <path fillRule="evenodd" clipRule="evenodd"
    d="M3.25 5.19375C3.25 4.86238 3.51863 4.59375 3.85 4.59375H16.15C16.4814 4.59375 16.75 4.86238 16.75 5.19375C16.75 5.52512 16.4814 5.79375 16.15 5.79375H3.85C3.51863 5.79375 3.25 5.52512 3.25 5.19375ZM3.85 11.1497C3.51863 11.1497 3.25 11.4184 3.25 11.7497C3.25 12.0811 3.51863 12.3497 3.85 12.3497H16.15C16.4814 12.3497 16.75 12.0811 16.75 11.7497C16.75 11.4184 16.4814 11.1497 16.15 11.1497H3.85ZM7.225 14.4277C6.89363 14.4277 6.625 14.6964 6.625 15.0277C6.625 15.3591 6.89363 15.6277 7.225 15.6277H12.775C13.1064 15.6277 13.375 15.3591 13.375 15.0277C13.375 14.6964 13.1064 14.4277 12.775 14.4277H7.225ZM7.225 7.87175C6.89363 7.87175 6.625 8.14038 6.625 8.47175C6.625 8.80312 6.89363 9.07175 7.225 9.07175H12.775C13.1064 9.07175 13.375 8.80312 13.375 8.47175C13.375 8.14038 13.1064 7.87175 12.775 7.87175H7.225Z"
    fill="#69696B" />
</svg>
  