<svg width="20" height="20" viewBox="0 0 20 20" fill="none" xmlns="http://www.w3.org/2000/svg">
  <path fillRule="evenodd" clipRule="evenodd"
    d="M3.25 5.19375C3.25 4.86238 3.51863 4.59375 3.85 4.59375H16.15C16.4814 4.59375 16.75 4.86238 16.75 5.19375C16.75 5.52512 16.4814 5.79375 16.15 5.79375H3.85C3.51863 5.79375 3.25 5.52512 3.25 5.19375ZM3.85 11.1497C3.51863 11.1497 3.25 11.4184 3.25 11.7497C3.25 12.0811 3.51863 12.3497 3.85 12.3497H16.15C16.4814 12.3497 16.75 12.0811 16.75 11.7497C16.75 11.4184 16.4814 11.1497 16.15 11.1497H3.85ZM3.85 14.4277C3.51863 14.4277 3.25 14.6964 3.25 15.0277C3.25 15.3591 3.51863 15.6277 3.85 15.6277H9.4C9.73137 15.6277 10 15.3591 10 15.0277C10 14.6964 9.73137 14.4277 9.4 14.4277H3.85ZM3.85 7.87175C3.51863 7.87175 3.25 8.14038 3.25 8.47175C3.25 8.80312 3.51863 9.07175 3.85 9.07175H9.4C9.73137 9.07175 10 8.80312 10 8.47175C10 8.14038 9.73137 7.87175 9.4 7.87175H3.85Z"
    fill="#69696B" />
</svg>
  