<svg width="18" height="18" viewBox="0 0 18 18" fill="none" xmlns="http://www.w3.org/2000/svg">
  <path fillRule="evenodd" clipRule="evenodd"
    d="M2.25 4.19375C2.25 3.86238 2.51863 3.59375 2.85 3.59375H15.15C15.4814 3.59375 15.75 3.86238 15.75 4.19375C15.75 4.52512 15.4814 4.79375 15.15 4.79375H2.85C2.51863 4.79375 2.25 4.52512 2.25 4.19375ZM2.85 10.1497C2.51863 10.1497 2.25 10.4184 2.25 10.7497C2.25 11.0811 2.51863 11.3497 2.85 11.3497H15.15C15.4814 11.3497 15.75 11.0811 15.75 10.7497C15.75 10.4184 15.4814 10.1497 15.15 10.1497H2.85ZM2.85 13.4277C2.51863 13.4277 2.25 13.6964 2.25 14.0277C2.25 14.3591 2.51863 14.6277 2.85 14.6277H8.4C8.73137 14.6277 9 14.3591 9 14.0277C9 13.6964 8.73137 13.4277 8.4 13.4277H2.85ZM2.85 6.87175C2.51863 6.87175 2.25 7.14038 2.25 7.47175C2.25 7.80312 2.51863 8.07175 2.85 8.07175H8.4C8.73137 8.07175 9 7.80312 9 7.47175C9 7.14038 8.73137 6.87175 8.4 6.87175H2.85Z"
    fill="#69696B" />
</svg>
  