<svg width="16" height="16" viewBox="0 0 16 16" fill="none" xmlns="http://www.w3.org/2000/svg">
  <path fillRule="evenodd" clipRule="evenodd"
    d="M2 3.65859C2 3.32722 2.26863 3.05859 2.6 3.05859H13.4C13.7314 3.05859 14 3.32722 14 3.65859C14 3.98996 13.7314 4.25859 13.4 4.25859H2.6C2.26863 4.25859 2 3.98996 2 3.65859ZM2.6 8.88615C2.26863 8.88615 2 9.15477 2 9.48615C2 9.81752 2.26863 10.0861 2.6 10.0861H13.4C13.7314 10.0861 14 9.81752 14 9.48615C14 9.15477 13.7314 8.88615 13.4 8.88615H2.6ZM8.6 11.7999C8.26863 11.7999 8 12.0686 8 12.3999C8 12.7313 8.26863 12.9999 8.6 12.9999H13.4C13.7314 12.9999 14 12.7313 14 12.3999C14 12.0686 13.7314 11.7999 13.4 11.7999H8.6ZM8.6 5.97237C8.26863 5.97237 8 6.241 8 6.57237C8 6.90374 8.26863 7.17237 8.6 7.17237H13.4C13.7314 7.17237 14 6.90374 14 6.57237C14 6.241 13.7314 5.97237 13.4 5.97237H8.6Z"
    fill="#69696B" />
</svg>
  