<svg width="20" height="21" viewBox="0 0 20 21" fill="none" xmlns="http://www.w3.org/2000/svg">
<path fillRule="evenodd" clipRule="evenodd" d="M13.5176 4.13082C13.3224 3.93556 13.0058 3.93556 12.8105 4.13082C12.6153 4.32608 12.6153 4.64267 12.8105 4.83793L15.607 7.63438H9.41409H8.81409L8.81409 8.23438L8.81409 16.3844H3.16409C2.83272 16.3844 2.56409 16.653 2.56409 16.9844C2.56409 17.3157 2.83272 17.5844 3.16409 17.5844H9.41409H10.0141V16.9844L10.0141 8.83437H15.607L12.8105 11.6308C12.6153 11.8261 12.6153 12.1427 12.8105 12.3379C13.0058 12.5332 13.3224 12.5332 13.5176 12.3379L16.5605 9.29504C17.1463 8.70925 17.1463 7.7595 16.5605 7.17371L13.5176 4.13082Z" fill="#29282C"/>
<path fillRule="evenodd" clipRule="evenodd" d="M13.5176 4.13082C13.3224 3.93556 13.0058 3.93556 12.8105 4.13082C12.6153 4.32608 12.6153 4.64267 12.8105 4.83793L15.607 7.63438H9.41409H8.81409L8.81409 8.23438L8.81409 16.3844H3.16409C2.83272 16.3844 2.56409 16.653 2.56409 16.9844C2.56409 17.3157 2.83272 17.5844 3.16409 17.5844H9.41409H10.0141V16.9844L10.0141 8.83437H15.607L12.8105 11.6308C12.6153 11.8261 12.6153 12.1427 12.8105 12.3379C13.0058 12.5332 13.3224 12.5332 13.5176 12.3379L16.5605 9.29504C17.1463 8.70925 17.1463 7.7595 16.5605 7.17371L13.5176 4.13082Z" fill="black" fill-opacity="0.2"/>
<path fillRule="evenodd" clipRule="evenodd" d="M13.5176 4.13082C13.3224 3.93556 13.0058 3.93556 12.8105 4.13082C12.6153 4.32608 12.6153 4.64267 12.8105 4.83793L15.607 7.63438H9.41409H8.81409L8.81409 8.23438L8.81409 16.3844H3.16409C2.83272 16.3844 2.56409 16.653 2.56409 16.9844C2.56409 17.3157 2.83272 17.5844 3.16409 17.5844H9.41409H10.0141V16.9844L10.0141 8.83437H15.607L12.8105 11.6308C12.6153 11.8261 12.6153 12.1427 12.8105 12.3379C13.0058 12.5332 13.3224 12.5332 13.5176 12.3379L16.5605 9.29504C17.1463 8.70925 17.1463 7.7595 16.5605 7.17371L13.5176 4.13082Z" fill="black" fill-opacity="0.2"/>
</svg>
