<svg width="18" height="19" viewBox="0 0 18 19" fill="none" xmlns="http://www.w3.org/2000/svg">
  <path
    d="M2.95074 14.7007C2.71642 14.9351 2.71642 15.3149 2.95074 15.5493C3.18505 15.7836 3.56495 15.7836 3.79926 15.5493L2.95074 14.7007ZM15.225 3.875C15.225 3.54363 14.9564 3.275 14.625 3.275L9.225 3.275C8.89363 3.275 8.625 3.54363 8.625 3.875C8.625 4.20637 8.89363 4.475 9.225 4.475L14.025 4.475V9.275C14.025 9.60637 14.2936 9.875 14.625 9.875C14.9564 9.875 15.225 9.60637 15.225 9.275L15.225 3.875ZM3.79926 15.5493L15.0493 4.29926L14.2007 3.45074L2.95074 14.7007L3.79926 15.5493Z"
    fill="#29282C" />
</svg>
  