<svg width="18" height="18" viewBox="0 0 18 18" fill="none" xmlns="http://www.w3.org/2000/svg">
  <path fillRule="evenodd" clipRule="evenodd"
    d="M5.5395 3.375C5.25761 3.375 5.00565 3.47413 4.80543 3.67229C4.59638 3.86968 4.5 4.1284 4.5 4.4145V13.554C4.5 13.8378 4.60048 14.0913 4.80135 14.2921C5.00222 14.493 5.2557 14.5935 5.5395 14.5935H9.0495C9.7704 14.5935 10.4235 14.449 11.0001 14.1508L11.0041 14.1487C11.5755 13.8432 12.0264 13.4247 12.3477 12.8934C12.6807 12.3578 12.843 11.7464 12.843 11.07C12.843 10.3251 12.6457 9.688 12.2225 9.19076C11.9617 8.88433 11.6482 8.64426 11.2861 8.4691C11.4793 8.30627 11.6467 8.12001 11.7868 7.91C12.0677 7.49353 12.2085 7.02736 12.2085 6.5205C12.2085 5.91435 12.0588 5.36487 11.7519 4.88309C11.4569 4.40594 11.0455 4.03691 10.5269 3.77688C10.0121 3.50515 9.42176 3.375 8.766 3.375H5.5395ZM6.579 7.7085V5.346H8.766C9.22306 5.346 9.56294 5.45761 9.8142 5.65303L9.82255 5.65913C10.0472 5.82304 10.1835 6.08587 10.1835 6.5205C10.1835 6.95468 10.0472 7.2253 9.81782 7.39885L9.81429 7.40159C9.56304 7.59701 9.22306 7.7085 8.766 7.7085H6.579ZM6.579 12.6225V9.6795H9.0495C9.42709 9.6795 9.7448 9.74114 10.01 9.8548L10.0177 9.85786C10.2787 9.96226 10.472 10.1132 10.6109 10.3077C10.7408 10.4895 10.818 10.7356 10.818 11.07C10.818 11.4351 10.7389 11.7141 10.6019 11.9265C10.4584 12.149 10.2617 12.3186 10.0027 12.4371C9.73947 12.5574 9.42439 12.6225 9.0495 12.6225H6.579Z"
    fill="#69696B" />
</svg>
  