<svg width="20" height="20" viewBox="0 0 20 20" fill="none" xmlns="http://www.w3.org/2000/svg">
<path d="M11.2393 8.77956C13.9846 8.86702 16 9.15645 16 9.5C16 9.84356 13.9846 10.133 11.2393 10.2204C13.1187 12.2235 14.3391 13.8533 14.0962 14.0962C13.8533 14.3391 12.2235 13.1187 10.2204 11.2393C10.133 13.9846 9.84355 16 9.5 16C9.15645 16 8.86702 13.9846 8.77956 11.2393C6.77648 13.1187 5.14674 14.3391 4.90381 14.0962C4.66088 13.8533 5.88132 12.2235 7.7607 10.2204C5.01539 10.133 3 9.84355 3 9.5C3 9.15645 5.01539 8.86702 7.7607 8.77956C5.88131 6.77648 4.66087 5.14674 4.9038 4.90381C5.14673 4.66088 6.77648 5.88132 8.77956 7.76071C8.86702 5.01539 9.15645 3 9.5 3C9.84355 3 10.133 5.01539 10.2204 7.7607C12.2235 5.88132 13.8533 4.66087 14.0962 4.9038C14.3391 5.14673 13.1187 6.77648 11.2393 8.77956Z" fill="#FF6CA1"/>
<path d="M16.364 4.89067L16.2613 5.20368C16.1785 5.45603 15.8215 5.45603 15.7387 5.20368L15.636 4.89067C15.5542 4.64135 15.3587 4.44581 15.1093 4.364L14.7963 4.26129C14.544 4.17849 14.544 3.82151 14.7963 3.73871L15.1093 3.636C15.3587 3.55419 15.5542 3.35866 15.636 3.10933L15.7387 2.79632C15.8215 2.54397 16.1785 2.54397 16.2613 2.79632L16.364 3.10933C16.4458 3.35865 16.6413 3.55419 16.8907 3.636L17.2037 3.73871C17.456 3.82151 17.456 4.17849 17.2037 4.26129L16.8907 4.364C16.6413 4.44581 16.4458 4.64135 16.364 4.89067Z" fill="#FF6CA1"/>
<path d="M15.9875 16.5142L15.7613 17.2037C15.6785 17.456 15.3215 17.456 15.2387 17.2037L15.0125 16.5142C14.9307 16.2649 14.7351 16.0693 14.4858 15.9875L13.7963 15.7613C13.544 15.6785 13.544 15.3215 13.7963 15.2387L14.4858 15.0125C14.7351 14.9307 14.9307 14.7351 15.0125 14.4858L15.2387 13.7963C15.3215 13.544 15.6785 13.544 15.7613 13.7963L15.9875 14.4858C16.0693 14.7351 16.2649 14.9307 16.5142 15.0125L17.2037 15.2387C17.456 15.3215 17.456 15.6785 17.2037 15.7613L16.5142 15.9875C16.2649 16.0693 16.0693 16.2649 15.9875 16.5142Z" fill="#FF6CA1"/>
</svg>
