<svg width="1.1em" height="1.1em" viewBox="0 0 18 18" fill="none" xmlns="http://www.w3.org/2000/svg">
<path d="M6.6375 13.6907H6.3C3.6 13.6907 2.25 13.0177 2.25 9.65279V6.28789C2.25 3.59596 3.6 2.25 6.3 2.25H11.7C14.4 2.25 15.75 3.59596 15.75 6.28789V9.65279C15.75 12.3447 14.4 13.6907 11.7 13.6907H11.3625C11.1533 13.6907 10.9508 13.7916 10.8225 13.9599L9.81 15.3058C9.3645 15.8981 8.6355 15.8981 8.19 15.3058L7.1775 13.9599C7.0695 13.8118 6.81975 13.6907 6.6375 13.6907Z" stroke="currentColor" strokeWidth="1.2" stroke-miterlimit="10" strokeLinecap="round" strokeLinejoin="round"/>
<path d="M5.625 6.75H12.375" stroke="currentColor" strokeWidth="1.2" strokeLinecap="round" strokeLinejoin="round"/>
<path d="M5.625 10.125H10.125" stroke="currentColor" strokeWidth="1.2" strokeLinecap="round" strokeLinejoin="round"/>
</svg>
