<svg width="16" height="17" viewBox="0 0 16 17" fill="none" xmlns="http://www.w3.org/2000/svg">
<path d="M10.6673 9.48249V12.2825C10.6673 14.6158 9.73398 15.5492 7.40065 15.5492H4.60065C2.26732 15.5492 1.33398 14.6158 1.33398 12.2825V9.48249C1.33398 7.14915 2.26732 6.21582 4.60065 6.21582H7.40065C9.73398 6.21582 10.6673 7.14915 10.6673 9.48249Z" stroke="currentColor" stroke-width="1.2" stroke-linecap="round" stroke-linejoin="round"/>
<path d="M4.33398 10.8818H7.66732" stroke="currentColor" stroke-width="1.2" stroke-linecap="round" stroke-linejoin="round"/>
<path d="M6 12.5492V9.21582" stroke="currentColor" stroke-width="1.2" stroke-linecap="round" stroke-linejoin="round"/>
<path d="M14.6673 5.48249V8.28249C14.6673 10.6158 13.734 11.5492 11.4007 11.5492H10.6673V9.48249C10.6673 7.14915 9.73398 6.21582 7.40065 6.21582H5.33398V5.48249C5.33398 3.14915 6.26732 2.21582 8.60065 2.21582H11.4007C13.734 2.21582 14.6673 3.14915 14.6673 5.48249Z" stroke="currentColor" stroke-width="1.2" stroke-linecap="round" stroke-linejoin="round"/>
</svg>
