<svg width="17" height="17" viewBox="0 0 17 17" fill="none" xmlns="http://www.w3.org/2000/svg">
<path d="M14.0996 13.7578L4.09961 3.75781M7.29961 7.71886C7.05066 7.99332 6.89961 8.35384 6.89961 8.74868C6.89961 9.60854 7.61595 10.3056 8.49961 10.3056C8.90704 10.3056 9.2789 10.1574 9.56138 9.9134M14.1255 10.3056C14.6763 9.48103 14.8996 8.80857 14.8996 8.80857C14.8996 8.80857 13.4432 4.15781 8.49961 4.15781C8.22207 4.15781 7.95552 4.17247 7.69961 4.20014M12.0996 12.3241C11.1813 12.9099 9.99916 13.3242 8.49961 13.2996C3.61756 13.2198 2.09961 8.80857 2.09961 8.80857C2.09961 8.80857 2.80485 6.55653 4.89961 5.18669" stroke="currentColor" stroke-width="1.2" stroke-linecap="round"/>
</svg>
