<svg width="19" height="19" viewBox="0 0 19 19" fill="none" xmlns="http://www.w3.org/2000/svg">
<path fillRule="evenodd" clipRule="evenodd" d="M16.8036 5.37441C16.6109 5.41933 16.4101 5.44308 16.2038 5.44308C15.9973 5.44308 15.7964 5.41931 15.6036 5.37436V13.6521C15.7964 13.6071 15.9973 13.5833 16.2038 13.5833C16.4101 13.5833 16.6109 13.6071 16.8036 13.652V5.37441ZM5.36264 15.6154H13.6403C13.5954 15.8081 13.5716 16.009 13.5716 16.2155C13.5716 16.4218 13.5954 16.6227 13.6403 16.8154H5.3627C5.40761 16.6227 5.43136 16.4218 5.43136 16.2155C5.43136 16.009 5.40759 15.8081 5.36264 15.6154ZM3.39922 13.652V5.37439C3.20649 5.41932 3.00563 5.44308 2.79922 5.44308C2.59281 5.44308 2.39195 5.41932 2.19922 5.37439V13.652C2.39195 13.6071 2.59281 13.5833 2.79922 13.5833C3.00563 13.5833 3.20649 13.6071 3.39922 13.652ZM13.6403 2.21094H5.36267C5.4076 2.40366 5.43136 2.60453 5.43136 2.81094C5.43136 3.01735 5.4076 3.21821 5.36267 3.41094H13.6403C13.5954 3.21821 13.5716 3.01735 13.5716 2.81094C13.5716 2.60453 13.5954 2.40366 13.6403 2.21094Z" fill="#29282C"/>
<circle cx="2.79816" cy="2.81183" r="2.03214" stroke="#29282C" strokeWidth="1.2"/>
<circle cx="16.2025" cy="2.81183" r="2.03214" stroke="#29282C" strokeWidth="1.2"/>
<circle cx="16.2025" cy="16.2181" r="2.03214" stroke="#29282C" strokeWidth="1.2"/>
<circle cx="2.79816" cy="16.2181" r="2.03214" stroke="#29282C" strokeWidth="1.2"/>
<rect x="7.42031" y="5.20156" width="6.39515" height="6.39515" rx="1.2" stroke="#29282C" strokeWidth="1.2"/>
<mask id="path-7-inside-1_10300_154864" fill="white">
<path fillRule="evenodd" clipRule="evenodd" d="M6.27704 6.83594C5.33363 6.89223 4.58594 7.67515 4.58594 8.6327V12.6278C4.58594 13.622 5.39182 14.4278 6.38594 14.4278H10.3811C11.3391 14.4278 12.1223 13.6794 12.1779 12.7354H10.9715C10.9208 13.0154 10.6758 13.2278 10.3811 13.2278H6.38594C6.05457 13.2278 5.78594 12.9592 5.78594 12.6278V8.6327C5.78594 8.33851 5.99766 8.09378 6.27704 8.04256V6.83594Z"/>
</mask>
<path fillRule="evenodd" clipRule="evenodd" d="M6.27704 6.83594C5.33363 6.89223 4.58594 7.67515 4.58594 8.6327V12.6278C4.58594 13.622 5.39182 14.4278 6.38594 14.4278H10.3811C11.3391 14.4278 12.1223 13.6794 12.1779 12.7354H10.9715C10.9208 13.0154 10.6758 13.2278 10.3811 13.2278H6.38594C6.05457 13.2278 5.78594 12.9592 5.78594 12.6278V8.6327C5.78594 8.33851 5.99766 8.09378 6.27704 8.04256V6.83594Z" fill="#29282C"/>
<path d="M6.27704 6.83594H7.47704V5.5622L6.20556 5.63807L6.27704 6.83594ZM12.1779 12.7354L13.3758 12.806L13.4507 11.5354H12.1779V12.7354ZM10.9715 12.7354V11.5354H9.96912L9.79065 12.5217L10.9715 12.7354ZM6.27704 8.04256L6.49344 9.22288L7.47704 9.04255V8.04256H6.27704ZM6.20556 5.63807C4.63212 5.73196 3.38594 7.03635 3.38594 8.6327H5.78594C5.78594 8.31394 6.03515 8.05251 6.34852 8.03381L6.20556 5.63807ZM3.38594 8.6327V12.6278H5.78594V8.6327H3.38594ZM3.38594 12.6278C3.38594 14.2847 4.72908 15.6278 6.38594 15.6278V13.2278C6.05457 13.2278 5.78594 12.9592 5.78594 12.6278H3.38594ZM6.38594 15.6278H10.3811V13.2278H6.38594V15.6278ZM10.3811 15.6278C11.9782 15.6278 13.2831 14.3805 13.3758 12.806L10.98 12.6648C10.9615 12.9784 10.7 13.2278 10.3811 13.2278V15.6278ZM12.1779 11.5354H10.9715V13.9354H12.1779V11.5354ZM10.3811 14.4278C11.2664 14.4278 12.0001 13.79 12.1523 12.949L9.79065 12.5217C9.84146 12.2409 10.0852 12.0278 10.3811 12.0278V14.4278ZM6.38594 14.4278H10.3811V12.0278H6.38594V14.4278ZM4.58594 12.6278C4.58594 13.622 5.39182 14.4278 6.38594 14.4278V12.0278C6.71731 12.0278 6.98594 12.2965 6.98594 12.6278H4.58594ZM4.58594 8.6327V12.6278H6.98594V8.6327H4.58594ZM6.06064 6.86223C5.22175 7.01603 4.58594 7.74885 4.58594 8.6327H6.98594C6.98594 8.92817 6.77357 9.17152 6.49344 9.22288L6.06064 6.86223ZM7.47704 8.04256V6.83594H5.07704V8.04256H7.47704Z" fill="#29282C" mask="url(#path-7-inside-1_10300_154864)"/>
</svg>
