<svg width="18" height="18" viewBox="0 0 18 18" fill="none" xmlns="http://www.w3.org/2000/svg">
  <path fillRule="evenodd" clipRule="evenodd"
    d="M7.8751 3.88281C7.53337 3.88281 7.25635 4.15984 7.25635 4.50156C7.25635 4.84329 7.53337 5.12031 7.8751 5.12031L9.33283 5.12031L7.39221 12.8828H5.6251C5.28337 12.8828 5.00635 13.1598 5.00635 13.5016C5.00635 13.8433 5.28337 14.1203 5.6251 14.1203H10.1251C10.4668 14.1203 10.7438 13.8433 10.7438 13.5016C10.7438 13.1598 10.4668 12.8828 10.1251 12.8828H8.66779L10.6084 5.12031L12.3751 5.12031C12.7168 5.12031 12.9938 4.84329 12.9938 4.50156C12.9938 4.15984 12.7168 3.88281 12.3751 3.88281H7.8751Z"
    fill="#69696B" />
</svg>
  