<svg xmlns="http://www.w3.org/2000/svg" width="16" height="16" viewBox="0 0 16 16" fill="none">
  <path d="M13.2668 9H2.7335C1.7335 9 1.3335 9.42667 1.3335 10.4867V13.18C1.3335 14.24 1.7335 14.6667 2.7335 14.6667H13.2668C14.2668 14.6667 14.6668 14.24 14.6668 13.18V10.4867C14.6668 9.42667 14.2668 9 13.2668 9Z" stroke="#949395" strokeWidth="1.2" strokeLinecap="round" strokeLinejoin="round"/>
  <path d="M13.2668 1.33203H2.7335C1.7335 1.33203 1.3335 1.7587 1.3335 2.8187V5.51203C1.3335 6.57203 1.7335 6.9987 2.7335 6.9987H13.2668C14.2668 6.9987 14.6668 6.57203 14.6668 5.51203V2.8187C14.6668 1.7587 14.2668 1.33203 13.2668 1.33203Z" stroke="#949395" strokeWidth="1.2" strokeLinecap="round" strokeLinejoin="round"/>
</svg>