<svg width="20" height="20" viewBox="0 0 20 20" fill="none" xmlns="http://www.w3.org/2000/svg">
<rect width="20" height="20" rx="5" fill="#3E3E41"/>
<path d="M12.1407 9.11331C15.5195 9.22095 18 9.57716 18 10C18 10.4228 15.5195 10.779 12.1407 10.8867C14.4538 13.352 15.9558 15.3579 15.6569 15.6569C15.3579 15.9558 13.352 14.4538 10.8867 12.1407C10.779 15.5195 10.4228 18 10 18C9.57716 18 9.22095 15.5195 9.11331 12.1407C6.64798 14.4538 4.64214 15.9558 4.34314 15.6569C4.04415 15.3579 5.54624 13.352 7.85933 10.8867C4.48048 10.779 2 10.4228 2 10C2 9.57716 4.48047 9.22095 7.85933 9.11331C5.54623 6.64798 4.04415 4.64214 4.34314 4.34315C4.64213 4.04416 6.64798 5.54624 9.11331 7.85934C9.22095 4.48048 9.57716 2 10 2C10.4228 2 10.779 4.48048 10.8867 7.85933C13.352 5.54623 15.3579 4.04415 15.6569 4.34314C15.9558 4.64213 14.4538 6.64798 12.1407 9.11331Z" fill="white"/>
</svg>
