<svg xmlns="http://www.w3.org/2000/svg" width="36" height="36" viewBox="0 0 36 36" fill="none">
<rect width="36" height="36" rx="5" fill="#6598FF"/>
<path d="M21.8533 16.404C27.9352 16.5978 32.4001 17.239 32.4001 18.0001C32.4001 18.7612 27.9352 19.4024 21.8533 19.5961C26.0169 24.0337 28.7206 27.6443 28.1824 28.1824C27.6442 28.7206 24.0337 26.0169 19.5961 21.8533C19.4024 27.9352 18.7612 32.4001 18.0001 32.4001C17.239 32.4001 16.5978 27.9352 16.404 21.8533C11.9665 26.0169 8.35594 28.7206 7.81776 28.1824C7.27958 27.6442 9.98332 24.0337 14.1469 19.5961C8.06495 19.4024 3.6001 18.7612 3.6001 18.0001C3.6001 17.239 8.06495 16.5978 14.1469 16.404C9.98332 11.9665 7.27957 8.35594 7.81775 7.81776C8.35594 7.27958 11.9665 9.98333 16.404 14.1469C16.5978 8.06496 17.239 3.6001 18.0001 3.6001C18.7612 3.6001 19.4024 8.06495 19.5961 14.1469C24.0337 9.98332 27.6443 7.27957 28.1824 7.81775C28.7206 8.35594 26.0169 11.9665 21.8533 16.404Z" fill="white"/>
</svg>