<svg width="20" height="20" viewBox="0 0 20 20" fill="none" xmlns="http://www.w3.org/2000/svg">
<path d="M12.6758 8.89163C16.8994 9.02619 20 9.47145 20 10C20 10.5285 16.8994 10.9738 12.6758 11.1084C15.5672 14.19 17.4448 16.6973 17.0711 17.0711C16.6973 17.4448 14.19 15.5672 11.1084 12.6758C10.9738 16.8994 10.5285 20 10 20C9.47145 20 9.02619 16.8994 8.89163 12.6758C5.80997 15.5672 3.30267 17.4448 2.92893 17.0711C2.55519 16.6973 4.43279 14.19 7.32416 11.1084C3.10059 10.9738 0 10.5285 0 10C0 9.47145 3.10059 9.02619 7.32416 8.89163C4.43279 5.80997 2.55519 3.30267 2.92893 2.92893C3.30267 2.5552 5.80997 4.4328 8.89163 7.32417C9.02619 3.1006 9.47145 0 10 0C10.5285 0 10.9738 3.10059 11.1084 7.32416C14.19 4.43279 16.6973 2.55519 17.0711 2.92893C17.4448 3.30267 15.5672 5.80997 12.6758 8.89163Z" fill="#FF6CA1"/>
</svg>
