<svg xmlns="http://www.w3.org/2000/svg" width="16" height="16" viewBox="0 0 16 16" fill="none">
  <circle cx="8" cy="8" r="2.625" stroke="#29282C" strokeWidth="1.2"/>
  <path d="M15 8C15 6.38051 14.4385 4.81113 13.4111 3.55925C12.3837 2.30737 10.954 1.45045 9.36563 1.1345C7.77726 0.818557 6.12848 1.06313 4.70022 1.82655C3.27196 2.58997 2.15259 3.825 1.53284 5.32122C0.913093 6.81743 0.831305 8.48224 1.30142 10.032C1.77153 11.5817 2.76445 12.9205 4.11101 13.8203C5.45756 14.72 7.07443 15.125 8.68612 14.9663C10.2978 14.8076 11.8046 14.0949 12.9497 12.9497" stroke="#29282C" strokeWidth="1.2"/>
  <path d="M10.625 8V8.4375C10.625 9.64562 11.6044 10.625 12.8125 10.625V10.625C14.0206 10.625 15 9.64562 15 8.4375V8" stroke="#29282C" strokeWidth="1.2"/>
</svg>