<svg viewBox="0 0 24 24" class="icon-SPAGX icon_large-LrSiK" aria-hidden="true" role="presentation" focusable="false" data-testid="svg-icon">
    <path xmlns="http://www.w3.org/2000/svg" d="M10.942 8h2.116c.39-3.23 2.726-4.79 6.198-4.98a2 2 0 1 1 .024 2c-2.415.144-3.85 1.049-4.197 2.98a4 4 0 0 1 0 8c.348 1.931 1.782 2.836 4.197 2.98A1.999 1.999 0 0 1 23 20a2 2 0 0 1-3.744.98c-3.472-.19-5.808-1.75-6.198-4.98h-2.116c-.39 3.23-2.726 4.79-6.198 4.98a2 2 0 1 1-.024-2c2.415-.144 3.85-1.049 4.197-2.98a4 4 0 0 1 0-8C8.569 6.07 7.135 5.165 4.72 5.02A1.999 1.999 0 0 1 1 4a2 2 0 0 1 3.744-.98c3.472.19 5.808 1.75 6.198 4.98zM9 10a2 2 0 1 0 0 4h6a2 2 0 1 0 0-4H9z" fillRule="evenodd" fill="currentColor"></path>
</svg>