<svg width="20" height="21" viewBox="0 0 20 21" fill="none" xmlns="http://www.w3.org/2000/svg">
<rect x="4.02627" y="13.5172" width="6.06044" height="11.9476" rx="3.03022" transform="rotate(-90 4.02627 13.5172)" stroke="#29282C" strokeWidth="1.2"/>
<path d="M16.5737 4.10156H14.8237C13.7192 4.10156 12.8237 4.99699 12.8237 6.10156V7.46536" stroke="#29282C" strokeWidth="1.2" strokeLinecap="round"/>
<path d="M16.5737 16.9062H14.8237C13.7192 16.9062 12.8237 16.0108 12.8237 14.9062V13.5424" stroke="#29282C" strokeWidth="1.2" strokeLinecap="round"/>
<path d="M3.42627 4.10156H5.17627C6.28084 4.10156 7.17627 4.99699 7.17627 6.10156V7.46536" stroke="#29282C" strokeWidth="1.2" strokeLinecap="round"/>
<path d="M3.42627 16.9062H5.17627C6.28084 16.9062 7.17627 16.0108 7.17627 14.9062V13.5424" stroke="#29282C" strokeWidth="1.2" strokeLinecap="round"/>
<path d="M17.1874 4.71163C17.5254 4.71163 17.801 4.43607 17.801 4.098C17.801 3.75994 17.5254 3.48438 17.1874 3.48438C16.8493 3.48438 16.5737 3.75994 16.5737 4.098C16.5737 4.43607 16.8465 4.71163 17.1874 4.71163Z" stroke="#29282C" strokeWidth="1.2" strokeLinecap="round" strokeLinejoin="round"/>
<path d="M2.81285 4.71163C3.15091 4.71163 3.42648 4.43607 3.42648 4.098C3.42648 3.75994 3.15091 3.48438 2.81285 3.48438C2.47478 3.48438 2.19922 3.75994 2.19922 4.098C2.19922 4.43607 2.47194 4.71163 2.81285 4.71163Z" stroke="#29282C" strokeWidth="1.2" strokeLinecap="round" strokeLinejoin="round"/>
<path d="M17.1874 17.5241C17.5254 17.5241 17.801 17.2486 17.801 16.9105C17.801 16.5724 17.5254 16.2969 17.1874 16.2969C16.8493 16.2969 16.5737 16.5724 16.5737 16.9105C16.5737 17.2486 16.8465 17.5241 17.1874 17.5241Z" stroke="#29282C" strokeWidth="1.2" strokeLinecap="round" strokeLinejoin="round"/>
<path d="M2.81285 17.5241C3.15091 17.5241 3.42648 17.2486 3.42648 16.9105C3.42648 16.5724 3.15091 16.2969 2.81285 16.2969C2.47478 16.2969 2.19922 16.5724 2.19922 16.9105C2.19922 17.2486 2.47194 17.5241 2.81285 17.5241Z" stroke="#29282C" strokeWidth="1.2" strokeLinecap="round" strokeLinejoin="round"/>
</svg>
