<svg width="1em" height="1em" viewBox="0 0 16 16" fill="none" xmlns="http://www.w3.org/2000/svg">
<path d="M9.33331 1.33594H5.99998C2.66665 1.33594 1.33331 2.66927 1.33331 6.0026V10.0026C1.33331 12.6668 2.18506 14.0534 4.22894 14.5027" stroke="currentColor" stroke-width="1.2" stroke-linecap="round" stroke-linejoin="round"/>
<path d="M14.6666 6.67188V9.00537" stroke="currentColor" stroke-width="1.2" stroke-linecap="round" stroke-linejoin="round"/>
<path d="M14.6666 6.66927H12C9.99998 6.66927 9.33331 6.0026 9.33331 4.0026V1.33594L14.6666 6.66927Z" stroke="currentColor" stroke-width="1.2" stroke-linecap="round" stroke-linejoin="round"/>
<path d="M6.93347 11.8049V13.0234C6.93347 13.0495 6.95024 13.0663 6.98377 13.0737C7.11047 13.0887 7.21108 13.0961 7.28561 13.0961C7.55391 13.0961 7.76073 13.0346 7.90606 12.9116C8.05512 12.785 8.12964 12.6098 8.12964 12.3862C8.12964 11.9428 7.8483 11.7211 7.28561 11.7211C7.19245 11.7211 7.08998 11.7304 6.97818 11.749C6.94837 11.7565 6.93347 11.7751 6.93347 11.8049ZM6.31861 15.1363C6.2329 15.1363 6.15837 15.1046 6.09502 15.0413C6.03167 14.9779 6 14.9034 6 14.8177V11.4025C6 11.313 6.02981 11.2329 6.08943 11.1621C6.14906 11.0913 6.22358 11.0522 6.31302 11.0447C6.62976 11.0149 6.93533 11 7.22972 11C8.42217 11 9.01839 11.4434 9.01839 12.3303C9.01839 12.811 8.87865 13.1762 8.59917 13.4259C8.32342 13.6718 7.91724 13.7948 7.38064 13.7948C7.23903 13.7948 7.10674 13.7892 6.98377 13.778C6.95024 13.778 6.93347 13.7929 6.93347 13.8228V14.8177C6.93347 14.9034 6.90179 14.9779 6.83844 15.0413C6.77509 15.1046 6.70057 15.1363 6.61486 15.1363H6.31861Z" fill="currentColor"/>
<path d="M10.5142 11.8273V14.3649C10.5142 14.3985 10.531 14.419 10.5645 14.4264C10.639 14.4413 10.7285 14.4488 10.8328 14.4488C11.2092 14.4488 11.4868 14.3389 11.6656 14.119C11.8482 13.8991 11.9395 13.5395 11.9395 13.0402C11.9395 12.593 11.8482 12.2651 11.6656 12.0564C11.4831 11.8478 11.2054 11.7434 10.8328 11.7434C10.7285 11.7434 10.639 11.7509 10.5645 11.7658C10.531 11.7732 10.5142 11.7937 10.5142 11.8273ZM9.89933 15.1475C9.80989 15.14 9.73536 15.1028 9.67574 15.0357C9.61612 14.9649 9.58631 14.8829 9.58631 14.7898V11.4025C9.58631 11.3093 9.61612 11.2292 9.67574 11.1621C9.73536 11.0913 9.80989 11.0522 9.89933 11.0447C10.19 11.0149 10.4769 11 10.7601 11C11.4272 11 11.9414 11.177 12.3029 11.531C12.6643 11.885 12.8451 12.3881 12.8451 13.0402C12.8451 13.7482 12.6643 14.2848 12.3029 14.65C11.9414 15.0115 11.4272 15.1922 10.7601 15.1922C10.4769 15.1922 10.19 15.1773 9.89933 15.1475Z" fill="currentColor"/>
<path d="M13.7642 15.1363C13.6784 15.1363 13.6039 15.1046 13.5406 15.0413C13.4772 14.9779 13.4455 14.9034 13.4455 14.8177V11.3745C13.4455 11.2888 13.4772 11.2143 13.5406 11.1509C13.6039 11.0876 13.6784 11.0559 13.7642 11.0559H15.6814C15.7671 11.0559 15.8416 11.0876 15.905 11.1509C15.9683 11.2143 16 11.2888 16 11.3745V11.5031C16 11.5888 15.9683 11.6633 15.905 11.7267C15.8416 11.79 15.7671 11.8217 15.6814 11.8217H14.4461C14.4125 11.8217 14.3958 11.8366 14.3958 11.8664V12.6992C14.3958 12.7328 14.4125 12.7496 14.4461 12.7496H15.5696C15.6553 12.7496 15.7298 12.7812 15.7932 12.8446C15.8565 12.9042 15.8882 12.9769 15.8882 13.0626V13.152C15.8882 13.2377 15.8565 13.3122 15.7932 13.3756C15.7298 13.4352 15.6553 13.465 15.5696 13.465H14.4461C14.4125 13.465 14.3958 13.4818 14.3958 13.5153V14.8177C14.3958 14.9034 14.3641 14.9779 14.3008 15.0413C14.2411 15.1046 14.1685 15.1363 14.0828 15.1363H13.7642Z" fill="currentColor"/>
</svg>
