<svg width="1.5em" height="1.5em" viewBox="0 0 21 21" fill="none" xmlns="http://www.w3.org/2000/svg">
<path d="M16.75 11.8672C16.75 15.3172 13.95 18.1172 10.5 18.1172C7.05 18.1172 4.25 15.3172 4.25 11.8672C4.25 8.41719 7.05 5.61719 10.5 5.61719" stroke="currentColor" stroke-width="1.2" stroke-linecap="round" stroke-linejoin="round"/>
<path d="M16.75 11.8672C16.75 15.3172 13.95 18.1172 10.5 18.1172C7.05 18.1172 4.25 15.3172 4.25 11.8672C4.25 8.41719 7.05 5.61719 10.5 5.61719" stroke="black" stroke-opacity="0.2" stroke-width="1.2" stroke-linecap="round" stroke-linejoin="round"/>
<path d="M16.75 11.8672C16.75 15.3172 13.95 18.1172 10.5 18.1172C7.05 18.1172 4.25 15.3172 4.25 11.8672C4.25 8.41719 7.05 5.61719 10.5 5.61719" stroke="black" stroke-opacity="0.2" stroke-width="1.2" stroke-linecap="round" stroke-linejoin="round"/>
<path d="M15.4898 8.10353C17.5672 10.8579 17.0178 14.7794 14.2634 16.8569C11.509 18.9343 7.5875 18.3849 5.51006 15.6305C3.43262 12.8761 3.98204 8.95459 6.73645 6.87715" stroke="currentColor" stroke-width="1.2" stroke-linecap="round" stroke-linejoin="round"/>
<path d="M15.4898 8.10353C17.5672 10.8579 17.0178 14.7794 14.2634 16.8569C11.509 18.9343 7.5875 18.3849 5.51006 15.6305C3.43262 12.8761 3.98204 8.95459 6.73645 6.87715" stroke="black" stroke-opacity="0.2" stroke-width="1.2" stroke-linecap="round" stroke-linejoin="round"/>
<path d="M15.4898 8.10353C17.5672 10.8579 17.0178 14.7794 14.2634 16.8569C11.509 18.9343 7.5875 18.3849 5.51006 15.6305C3.43262 12.8761 3.98204 8.95459 6.73645 6.87715" stroke="black" stroke-opacity="0.2" stroke-width="1.2" stroke-linecap="round" stroke-linejoin="round"/>
<path d="M9.25 3.11719L11.7499 5.61711" stroke="currentColor" stroke-width="1.2" stroke-miterlimit="10" stroke-linecap="round" stroke-linejoin="round"/>
<path d="M9.25 3.11719L11.7499 5.61711" stroke="black" stroke-opacity="0.2" stroke-width="1.2" stroke-miterlimit="10" stroke-linecap="round" stroke-linejoin="round"/>
<path d="M9.25 3.11719L11.7499 5.61711" stroke="black" stroke-opacity="0.2" stroke-width="1.2" stroke-miterlimit="10" stroke-linecap="round" stroke-linejoin="round"/>
<path d="M11.75 5.61719L9.25008 8.11711" stroke="currentColor" stroke-width="1.2" stroke-miterlimit="10" stroke-linecap="round" stroke-linejoin="round"/>
<path d="M11.75 5.61719L9.25008 8.11711" stroke="black" stroke-opacity="0.2" stroke-width="1.2" stroke-miterlimit="10" stroke-linecap="round" stroke-linejoin="round"/>
<path d="M11.75 5.61719L9.25008 8.11711" stroke="black" stroke-opacity="0.2" stroke-width="1.2" stroke-miterlimit="10" stroke-linecap="round" stroke-linejoin="round"/>
</svg>
