<svg width="1em" height="1em" viewBox="0 0 16 16" fill="none" xmlns="http://www.w3.org/2000/svg">
<path d="M2.57574 12.5757C2.34142 12.8101 2.34142 13.1899 2.57574 13.4243C2.81005 13.6586 3.18995 13.6586 3.42426 13.4243L2.57574 12.5757ZM13.6 3C13.6 2.66863 13.3314 2.4 13 2.4L7.6 2.4C7.26863 2.4 7 2.66863 7 3C7 3.33137 7.26863 3.6 7.6 3.6L12.4 3.6V8.4C12.4 8.73137 12.6686 9 13 9C13.3314 9 13.6 8.73137 13.6 8.4L13.6 3ZM3.42426 13.4243L13.4243 3.42426L12.5757 2.57574L2.57574 12.5757L3.42426 13.4243Z" fill="currentColor"/>
</svg>
