<svg width="18" height="19" viewBox="0 0 18 19" fill="none" xmlns="http://www.w3.org/2000/svg">
  <path
    d="M12.7275 9.6875V13.0625C12.7275 15.875 11.6025 17 8.79004 17H5.41504C2.60254 17 1.47754 15.875 1.47754 13.0625V9.6875C1.47754 6.875 2.60254 5.75 5.41504 5.75H8.79004C11.6025 5.75 12.7275 6.875 12.7275 9.6875Z"
    stroke="#29282C" strokeWidth="1.2" strokeLinecap="round" strokeLinejoin="round" />
  <path
    d="M16.4775 6.125C16.4775 8.2775 14.835 10.04 12.7275 10.2275V9.6875C12.7275 6.875 11.6025 5.75 8.79 5.75H8.25C8.4375 3.6425 10.2 2 12.3525 2C14.445 2 16.17 3.5525 16.4325 5.5775C16.4625 5.75 16.4775 5.9375 16.4775 6.125Z"
    stroke="#29282C" strokeWidth="1.2" strokeLinecap="round" strokeLinejoin="round" />
</svg>
  