<svg width="18" height="18" viewBox="0 0 18 18" fill="none" xmlns="http://www.w3.org/2000/svg">
  <path d="M2.25 8.42969H15.75V9.55469H2.25V8.42969Z" fill="#69696B" />
  <path fillRule="evenodd" clipRule="evenodd"
    d="M7.3243 3.4072C7.86158 3.15871 8.46893 3.03906 9.13881 3.03906C9.64414 3.03906 10.1179 3.12179 10.5564 3.29124L10.4361 3.60271L10.5564 3.29124C10.9835 3.45624 11.3626 3.67664 11.6903 3.95425C12.0088 4.21517 12.2649 4.49836 12.4502 4.80602C12.565 4.98894 12.5884 5.19531 12.5284 5.39793C12.4692 5.62235 12.3104 5.7739 12.1085 5.85157L12.1027 5.8538L12.1026 5.85374C11.94 5.9129 11.7697 5.92153 11.6015 5.87567L11.5881 5.872L11.575 5.86724C11.4079 5.8065 11.2718 5.6988 11.1708 5.5546L11.1664 5.54832L11.1665 5.54827C11.0582 5.38587 10.9154 5.22192 10.7343 5.05729C10.5718 4.90955 10.3612 4.78091 10.0951 4.67607C9.84802 4.57874 9.53247 4.52406 9.13881 4.52406C8.44876 4.52406 7.9509 4.67979 7.60607 4.95125C7.27618 5.21095 7.10031 5.57898 7.10031 6.10356C7.10031 6.36227 7.16696 6.59467 7.30086 6.80832C7.4399 7.00747 7.66689 7.19752 8.00724 7.36769C8.34607 7.53711 8.79284 7.6733 9.35712 7.76879L9.35755 7.76887C10.5474 7.97179 11.4624 8.34915 12.039 8.94499C12.2257 9.13202 12.3818 9.33578 12.5077 9.55533H10.3928C10.0664 9.38696 9.64675 9.26254 9.12098 9.19207L9.11807 9.19168L9.11808 9.19167C8.06642 9.04143 7.20991 8.69855 6.57908 8.13781L6.57686 8.13584L6.57687 8.13583C5.94306 7.56239 5.61531 6.85208 5.61531 6.02256C5.61531 5.43371 5.76092 4.90391 6.06251 4.44633L6.06542 4.44191L6.06545 4.44194C6.37329 3.99044 6.79687 3.64628 7.3243 3.4072ZM11.3606 10.6803C11.4005 10.8282 11.4203 10.9853 11.4203 11.1526C11.4203 11.5803 11.3279 11.9204 11.1607 12.1894L11.1606 12.1894L11.1572 12.1951C10.9971 12.4644 10.7639 12.6714 10.4442 12.8161L10.4442 12.8161L10.4414 12.8173C10.1269 12.9631 9.73671 13.0426 9.26031 13.0426C8.82945 13.0426 8.44968 12.9921 8.11788 12.8955C7.79593 12.7903 7.52008 12.6433 7.28632 12.4568C7.0579 12.2673 6.8745 12.0482 6.73388 11.7987C6.64624 11.6391 6.5164 11.5154 6.34897 11.4393C6.17504 11.3603 5.98755 11.3489 5.80515 11.413C5.61543 11.4733 5.45812 11.5932 5.35952 11.774L5.35364 11.7847L5.34856 11.7959C5.2564 11.9986 5.2736 12.2093 5.36744 12.397C5.58569 12.8335 5.88339 13.2151 6.25801 13.5404L6.25799 13.5404L6.26191 13.5437C6.63878 13.8611 7.08102 14.1054 7.58391 14.2795L7.58388 14.2796L7.59122 14.2819C8.10561 14.4469 8.66286 14.5276 9.26031 14.5276C9.78592 14.5276 10.2726 14.4559 10.717 14.3077L10.7171 14.3078L10.7234 14.3056C11.165 14.1485 11.5506 13.925 11.8745 13.6319C12.2105 13.3361 12.4646 12.9743 12.6364 12.5514C12.8178 12.1268 12.9053 11.6587 12.9053 11.1526C12.9053 10.9905 12.8956 10.8331 12.8762 10.6803H11.3606Z"
    fill="#69696B" />
</svg>
  