<svg width="17" height="17" viewBox="0 0 17 17" fill="none" xmlns="http://www.w3.org/2000/svg">
<path d="M5.59436 5.01823C5.75162 3.12346 6.71574 2.35156 8.8377 2.35156H11.6377C13.971 2.35156 14.9044 3.2849 14.9044 5.61823V8.41823C14.9044 10.5402 14.1324 11.5043 12.2376 11.6616" stroke="currentColor" strokeWidth="1.2" strokeLinecap="round" strokeLinejoin="round"/>
<path d="M12.2378 11.0823V8.28229C12.2378 5.94896 11.3044 5.01562 8.97109 5.01562H6.17109C3.83775 5.01562 2.90442 5.94896 2.90442 8.28229V11.0823C2.90442 13.4156 3.83775 14.349 6.17109 14.349H8.97109C11.3044 14.349 12.2378 13.4156 12.2378 11.0823Z" stroke="currentColor" strokeWidth="1.2" strokeLinecap="round" strokeLinejoin="round"/>
<path d="M5.62451 9.68281L6.92451 10.9828L9.51785 8.38281" stroke="currentColor" strokeWidth="1.2" strokeLinecap="round" strokeLinejoin="round"/>
</svg>
