<svg width="16" height="17" viewBox="0 0 16 17" fill="none" xmlns="http://www.w3.org/2000/svg">
<path d="M1.33366 6.1237L1.33366 10.1237C1.33366 13.457 2.66699 14.7904 6.00033 14.7904L10.0003 14.7904C13.3337 14.7904 14.667 13.457 14.667 10.1237L14.667 6.1237C14.667 2.79036 13.3337 1.45703 10.0003 1.45703L6.00033 1.45703C2.66699 1.45703 1.33366 2.79037 1.33366 6.1237Z" stroke="currentColor" stroke-width="1.2" stroke-linecap="round" stroke-linejoin="round"/>
<path d="M1.33366 6.1237L1.33366 10.1237C1.33366 13.457 2.66699 14.7904 6.00033 14.7904L10.0003 14.7904C13.3337 14.7904 14.667 13.457 14.667 10.1237L14.667 6.1237C14.667 2.79036 13.3337 1.45703 10.0003 1.45703L6.00033 1.45703C2.66699 1.45703 1.33366 2.79037 1.33366 6.1237Z" stroke="currentColor" stroke-opacity="0.2" stroke-width="1.2" stroke-linecap="round" stroke-linejoin="round"/>
<path d="M1.33366 6.1237L1.33366 10.1237C1.33366 13.457 2.66699 14.7904 6.00033 14.7904L10.0003 14.7904C13.3337 14.7904 14.667 13.457 14.667 10.1237L14.667 6.1237C14.667 2.79036 13.3337 1.45703 10.0003 1.45703L6.00033 1.45703C2.66699 1.45703 1.33366 2.79037 1.33366 6.1237Z" stroke="currentColor" stroke-opacity="0.2" stroke-width="1.2" stroke-linecap="round" stroke-linejoin="round"/>
<path d="M5.66699 5.78906L5.66699 14.7192" stroke="currentColor" stroke-width="1.2" stroke-linecap="square" stroke-linejoin="round"/>
<path d="M5.66699 5.78906L5.66699 14.7192" stroke="currentColor" stroke-opacity="0.2" stroke-width="1.2" stroke-linecap="square" stroke-linejoin="round"/>
<path d="M5.66699 5.78906L5.66699 14.7192" stroke="currentColor" stroke-opacity="0.2" stroke-width="1.2" stroke-linecap="square" stroke-linejoin="round"/>
<path d="M14.667 5.78906L1.33366 5.78906" stroke="currentColor" stroke-width="1.2" stroke-linecap="round" stroke-linejoin="round"/>
<path d="M14.667 5.78906L1.33366 5.78906" stroke="currentColor" stroke-opacity="0.2" stroke-width="1.2" stroke-linecap="round" stroke-linejoin="round"/>
<path d="M14.667 5.78906L1.33366 5.78906" stroke="currentColor" stroke-opacity="0.2" stroke-width="1.2" stroke-linecap="round" stroke-linejoin="round"/>
<path d="M14.667 10.457L1.33366 10.457" stroke="currentColor" stroke-width="1.2" stroke-linecap="round" stroke-linejoin="round"/>
<path d="M14.667 10.457L1.33366 10.457" stroke="currentColor" stroke-opacity="0.2" stroke-width="1.2" stroke-linecap="round" stroke-linejoin="round"/>
<path d="M14.667 10.457L1.33366 10.457" stroke="currentColor" stroke-opacity="0.2" stroke-width="1.2" stroke-linecap="round" stroke-linejoin="round"/>
</svg>
