<svg width="18" height="18" viewBox="0 0 18 18" fill="none" xmlns="http://www.w3.org/2000/svg">
  <path
    d="M6.44158 12.96C5.80557 12.96 5.33115 12.3741 5.46346 11.752L7.07661 4.16698C7.17482 3.70519 7.58262 3.375 8.05473 3.375H9.99904C10.863 3.375 11.5425 3.609 12.0375 4.077C12.5415 4.545 12.7935 5.094 12.7935 5.724C12.7935 6.768 12.339 7.5375 11.43 8.0325C12.204 8.3925 12.591 9.027 12.591 9.936C12.591 10.845 12.258 11.5785 11.592 12.1365C10.935 12.6855 9.99904 12.96 8.78404 12.96H6.44158ZM7.08304 11.502H8.97304C9.62104 11.502 10.125 11.3625 10.485 11.0835C10.845 10.7955 11.025 10.4265 11.025 9.9765C11.025 9.6255 10.899 9.3375 10.647 9.1125C10.395 8.8785 10.035 8.7615 9.56704 8.7615H7.66354L7.08304 11.502ZM7.96054 7.4115H9.41854C9.96754 7.4115 10.404 7.2765 10.728 7.0065C11.052 6.7275 11.214 6.3765 11.214 5.9535C11.214 5.6295 11.097 5.3595 10.863 5.1435C10.638 4.9275 10.3185 4.8195 9.90454 4.8195H8.50054L7.96054 7.4115Z"
    fill="#69696B" />
  <path fillRule="evenodd" clipRule="evenodd"
    d="M4.5 14.7016C4.5 14.3598 4.77702 14.0828 5.11875 14.0828L12.8812 14.0828C13.223 14.0828 13.5 14.3598 13.5 14.7016C13.5 15.0433 13.223 15.3203 12.8812 15.3203L5.11875 15.3203C4.77702 15.3203 4.5 15.0433 4.5 14.7016Z"
    fill="#69696B" />
</svg>
  