<svg width="18" height="18" viewBox="0 0 18 18" fill="none" xmlns="http://www.w3.org/2000/svg">
  <path fillRule="evenodd" clipRule="evenodd"
    d="M5.00635 14.6313C5.00635 14.2895 5.28337 14.0125 5.6251 14.0125L12.3751 14.0125C12.7168 14.0125 12.9938 14.2895 12.9938 14.6312C12.9938 14.973 12.7168 15.25 12.3751 15.25L5.6251 15.25C5.28337 15.25 5.00635 14.973 5.00635 14.6313Z"
    fill="#69696B" />
  <path fillRule="evenodd" clipRule="evenodd"
    d="M5.6252 3.82812C5.99799 3.82812 6.3002 4.13033 6.3002 4.50313V9.00312C6.3002 10.4943 7.50903 11.7031 9.0002 11.7031C10.4914 11.7031 11.7002 10.4943 11.7002 9.00312V4.50313C11.7002 4.13033 12.0024 3.82812 12.3752 3.82812C12.748 3.82812 13.0502 4.13033 13.0502 4.50313V9.00312C13.0502 11.2399 11.2369 13.0531 9.0002 13.0531C6.76344 13.0531 4.9502 11.2399 4.9502 9.00312V4.50313C4.9502 4.13033 5.2524 3.82812 5.6252 3.82812Z"
    fill="#69696B" />
</svg>
  