<svg width="16" height="16" viewBox="0 0 16 16" fill="none" xmlns="http://www.w3.org/2000/svg">
<path d="M8.00002 8.00016C9.84097 8.00016 11.3334 6.50778 11.3334 4.66683C11.3334 2.82588 9.84097 1.3335 8.00002 1.3335C6.15907 1.3335 4.66669 2.82588 4.66669 4.66683C4.66669 6.50778 6.15907 8.00016 8.00002 8.00016Z" stroke="#29282C" stroke-width="1.2" stroke-linecap="round" stroke-linejoin="round"/>
<path d="M8.00002 8.00016C9.84097 8.00016 11.3334 6.50778 11.3334 4.66683C11.3334 2.82588 9.84097 1.3335 8.00002 1.3335C6.15907 1.3335 4.66669 2.82588 4.66669 4.66683C4.66669 6.50778 6.15907 8.00016 8.00002 8.00016Z" stroke="black" stroke-opacity="0.2" stroke-width="1.2" stroke-linecap="round" stroke-linejoin="round"/>
<path d="M8.00002 8.00016C9.84097 8.00016 11.3334 6.50778 11.3334 4.66683C11.3334 2.82588 9.84097 1.3335 8.00002 1.3335C6.15907 1.3335 4.66669 2.82588 4.66669 4.66683C4.66669 6.50778 6.15907 8.00016 8.00002 8.00016Z" stroke="black" stroke-opacity="0.2" stroke-width="1.2" stroke-linecap="round" stroke-linejoin="round"/>
<path d="M13.7266 14.6667C13.7266 12.0867 11.16 10 7.99998 10C4.83998 10 2.27332 12.0867 2.27332 14.6667" stroke="#29282C" stroke-width="1.2" stroke-linecap="round" stroke-linejoin="round"/>
<path d="M13.7266 14.6667C13.7266 12.0867 11.16 10 7.99998 10C4.83998 10 2.27332 12.0867 2.27332 14.6667" stroke="black" stroke-opacity="0.2" stroke-width="1.2" stroke-linecap="round" stroke-linejoin="round"/>
<path d="M13.7266 14.6667C13.7266 12.0867 11.16 10 7.99998 10C4.83998 10 2.27332 12.0867 2.27332 14.6667" stroke="black" stroke-opacity="0.2" stroke-width="1.2" stroke-linecap="round" stroke-linejoin="round"/>
</svg>
