<svg width="16" height="16" viewBox="0 0 16 16" fill="none" xmlns="http://www.w3.org/2000/svg">
<path d="M14.6673 9.9987V5.9987C14.6673 2.66536 13.334 1.33203 10.0007 1.33203H6.00065C2.66732 1.33203 1.33398 2.66536 1.33398 5.9987V9.9987C1.33398 13.332 2.66732 14.6654 6.00065 14.6654H10.0007C13.334 14.6654 14.6673 13.332 14.6673 9.9987Z" stroke="#7F7E80" stroke-width="1.2" stroke-linecap="round" stroke-linejoin="round"/>
<path d="M1.67969 4.73828H14.3197" stroke="#7F7E80" stroke-width="1.2" stroke-linecap="round" stroke-linejoin="round"/>
<path d="M5.67969 1.40625V4.64625" stroke="#7F7E80" stroke-width="1.2" stroke-linecap="round" stroke-linejoin="round"/>
<path d="M10.3203 1.40625V4.34625" stroke="#7F7E80" stroke-width="1.2" stroke-linecap="round" stroke-linejoin="round"/>
<path d="M6.5 9.63211V8.83211C6.5 7.80544 7.22667 7.38544 8.11333 7.89877L8.80667 8.29877L9.5 8.69877C10.3867 9.21211 10.3867 10.0521 9.5 10.5654L8.80667 10.9654L8.11333 11.3654C7.22667 11.8788 6.5 11.4588 6.5 10.4321V9.63211V9.63211Z" stroke="#7F7E80" stroke-width="1.2" stroke-miterlimit="10" stroke-linecap="round" stroke-linejoin="round"/>
</svg>
