<svg xmlns="http://www.w3.org/2000/svg" width="26" height="18" viewBox="0 0 26 18" fill="none">
  <rect x="0.25" y="0.25" width="25.5" height="17.5" rx="1.75" fill="white" stroke="#D4D4D5" strokeWidth="0.5"/>
  <path d="M9.87891 11.6754L10.8268 6.11328H12.3428L11.3943 11.6754H9.87891Z" fill="#0E4595"/>
  <path d="M16.8714 6.23361C16.5711 6.12092 16.1004 6 15.5127 6C14.0146 6 12.9594 6.75439 12.9504 7.83558C12.942 8.6348 13.7037 9.08065 14.2788 9.34671C14.869 9.61938 15.0673 9.79324 15.0645 10.0367C15.0607 10.4095 14.5932 10.5798 14.1574 10.5798C13.5507 10.5798 13.2283 10.4955 12.7304 10.2879L12.535 10.1995L12.3223 11.4446C12.6764 11.5999 13.3311 11.7344 14.0111 11.7414C15.6047 11.7414 16.6393 10.9956 16.6511 9.841C16.6567 9.20825 16.2528 8.72677 15.3781 8.32979C14.8482 8.07248 14.5237 7.90078 14.5272 7.64024C14.5272 7.40904 14.8018 7.16183 15.3954 7.16183C15.8911 7.15413 16.2503 7.26224 16.5301 7.37492L16.6659 7.43911L16.8714 6.23361Z" fill="#0E4595"/>
  <path d="M20.7725 6.11328H19.6011C19.2382 6.11328 18.9666 6.21233 18.8072 6.57453L16.5557 11.6718H18.1477C18.1477 11.6718 18.4079 10.9865 18.4668 10.836C18.6408 10.836 20.1873 10.8384 20.4084 10.8384C20.4537 11.0331 20.5929 11.6718 20.5929 11.6718H21.9996L20.7725 6.11328ZM18.9139 9.70488C19.0393 9.38441 19.5179 8.15002 19.5179 8.15002C19.509 8.16482 19.6424 7.82799 19.7189 7.61916L19.8214 8.09871C19.8214 8.09871 20.1117 9.4264 20.1723 9.70479H18.9139V9.70488Z" fill="#0E4595"/>
  <path d="M3.27816 6.11328L3.25879 6.22899C3.8581 6.37406 4.39337 6.58404 4.862 6.84524L6.20722 11.6665L7.81126 11.6648L10.198 6.11328H8.592L7.10777 9.90627L6.94967 9.13541C6.94226 9.11159 6.93421 9.08773 6.92597 9.06382L6.40999 6.58287C6.31825 6.23066 6.05209 6.12556 5.72282 6.11328H3.27816Z" fill="#0E4595"/>
</svg>