<svg width="20" height="20" viewBox="0 0 20 20" fill="none" xmlns="http://www.w3.org/2000/svg">
  <path
    d="M0 7.5C0 3.96447 0 2.1967 1.09835 1.09835C2.1967 0 3.96447 0 7.5 0H12.5C16.0355 0 17.8033 0 18.9017 1.09835C20 2.1967 20 3.96447 20 7.5V12.5C20 16.0355 20 17.8033 18.9017 18.9017C17.8033 20 16.0355 20 12.5 20H7.5C3.96447 20 2.1967 20 1.09835 18.9017C0 17.8033 0 16.0355 0 12.5V7.5Z"
    fill="#3E3E41" />
  <path
    d="M12.0905 9.13409C15.3902 9.23921 17.8125 9.58707 17.8125 10C17.8125 10.4129 15.3902 10.7608 12.0905 10.8659C14.3494 13.2735 15.8163 15.2323 15.5243 15.5243C15.2323 15.8163 13.2735 14.3494 10.8659 12.0905C10.7608 15.3902 10.4129 17.8125 10 17.8125C9.58707 17.8125 9.23921 15.3902 9.13409 12.0905C6.72654 14.3494 4.76771 15.8163 4.47573 15.5243C4.18374 15.2323 5.65062 13.2735 7.9095 10.8659C4.60984 10.7608 2.1875 10.4129 2.1875 10C2.1875 9.58707 4.60984 9.23921 7.9095 9.13409C5.65062 6.72654 4.18374 4.76771 4.47572 4.47573C4.76771 4.18375 6.72654 5.65062 9.13409 7.90951C9.23921 4.60984 9.58707 2.1875 10 2.1875C10.4129 2.1875 10.7608 4.60984 10.8659 7.9095C13.2735 5.65062 15.2323 4.18374 15.5243 4.47572C15.8163 4.76771 14.3494 6.72654 12.0905 9.13409Z"
    fill="white" />
</svg>
  