<svg width="28" height="20" viewBox="0 0 28 20" fill="none" xmlns="http://www.w3.org/2000/svg">
<path fillRule="evenodd" clipRule="evenodd" d="M3.07221 5.01758C3.02187 5.01758 2.97413 5.02377 2.93116 5.03236C2.88506 5.04158 2.84049 5.05487 2.7976 5.07157L1.63382 5.48934C1.4836 5.54258 1.3454 5.63812 1.25284 5.78854C1.17467 5.91556 1.13721 6.05668 1.13721 6.20258C1.13721 6.39992 1.20343 6.58945 1.35188 6.7379L1.36134 6.74672C1.51108 6.88648 1.69723 6.95258 1.89471 6.95258C2.02839 6.95258 2.15713 6.92141 2.2775 6.87185L2.30721 6.85924V10.8676C2.30721 11.0732 2.38502 11.2582 2.52954 11.4027C2.67013 11.5433 2.85125 11.6251 3.05721 11.6251C3.26254 11.6251 3.45169 11.5509 3.59987 11.4027C3.7444 11.2582 3.82221 11.0732 3.82221 10.8676V5.78258C3.82221 5.58958 3.76169 5.39967 3.61668 5.24938C3.46971 5.08605 3.27276 5.01758 3.07221 5.01758Z" fill="#69696B"/>
<line x1="7.475" y1="5.9" x2="17.525" y2="5.9" stroke="#69696B" strokeWidth="1.2" strokeLinecap="round"/>
<line x1="7.475" y1="10.4" x2="17.525" y2="10.4" stroke="#69696B" strokeWidth="1.2" strokeLinecap="round"/>
<line x1="7.475" y1="14.9" x2="17.525" y2="14.9" stroke="#69696B" strokeWidth="1.2" strokeLinecap="round"/>
<path fillRule="evenodd" clipRule="evenodd" d="M26.4619 9.30866C26.5393 9.4955 26.4965 9.71055 26.3535 9.85355L24.3535 11.8536C24.1583 12.0488 23.8417 12.0488 23.6464 11.8536L21.6464 9.85355C21.5034 9.71055 21.4607 9.4955 21.538 9.30866C21.6154 9.12182 21.7978 9 22 9L26 9C26.2022 9 26.3845 9.12182 26.4619 9.30866Z" fill="#69696B"/>
</svg>
