<svg width="28" height="20" viewBox="0 0 28 20" fill="none" xmlns="http://www.w3.org/2000/svg">
<path fillRule="evenodd" clipRule="evenodd" d="M1.63582 5.04759C1.86937 4.95086 2.13819 5.00433 2.31694 5.18308L4.81694 7.68308C5.06102 7.92715 5.06102 8.32288 4.81694 8.56696L2.31694 11.067C2.13819 11.2457 1.86937 11.2992 1.63582 11.2024C1.40228 11.1057 1.25 10.8778 1.25 10.625L1.25 5.62502C1.25 5.37223 1.40228 5.14433 1.63582 5.04759Z" fill="#69696B"/>
<line x1="7.475" y1="5.9" x2="17.525" y2="5.9" stroke="#69696B" strokeWidth="1.2" strokeLinecap="round"/>
<line x1="7.475" y1="10.4" x2="17.525" y2="10.4" stroke="#69696B" strokeWidth="1.2" strokeLinecap="round"/>
<line x1="7.475" y1="14.9" x2="17.525" y2="14.9" stroke="#69696B" strokeWidth="1.2" strokeLinecap="round"/>
<path fillRule="evenodd" clipRule="evenodd" d="M26.4619 9.30866C26.5393 9.4955 26.4965 9.71055 26.3535 9.85355L24.3535 11.8536C24.1583 12.0488 23.8417 12.0488 23.6464 11.8536L21.6464 9.85355C21.5034 9.71055 21.4607 9.4955 21.538 9.30866C21.6154 9.12182 21.7978 9 22 9L26 9C26.2022 9 26.3845 9.12182 26.4619 9.30866Z" fill="#69696B"/>
</svg>
