<svg width="234" height="166" viewBox="0 0 234 166" fill="none" xmlns="http://www.w3.org/2000/svg">
  <path
    d="M47.0137 29.8929C53.3491 30.088 58 30.7336 58 31.5C58 32.2664 53.3491 32.912 47.0137 33.1071C51.3508 37.5755 54.1672 41.2111 53.6066 41.753C53.046 42.295 49.285 39.5724 44.6626 35.38C44.4607 41.5041 43.7928 46 43 46C42.2072 46 41.5393 41.5041 41.3375 35.38C36.715 39.5724 32.954 42.295 32.3934 41.753C31.8328 41.2111 34.6492 37.5755 38.9862 33.1071C32.6509 32.912 28 32.2664 28 31.5C28 30.7336 32.6509 30.088 38.9862 29.8929C34.6492 25.4245 31.8328 21.7889 32.3934 21.247C32.954 20.705 36.715 23.4276 41.3375 27.62C41.5393 21.4959 42.2072 17 43 17C43.7928 17 44.4607 21.4959 44.6626 27.62C49.285 23.4275 53.046 20.705 53.6066 21.2469C54.1672 21.7889 51.3508 25.4245 47.0137 29.8929Z"
    fill="#29282C" />
  <path d="M137 24.4786L194.025 13L196 21.6433L139.233 33L137 24.4786Z" fill="black" />
  <path
    d="M106 71C125.33 71 141 55.33 141 36C141 16.67 125.33 1 106 1C86.67 1 71 16.67 71 36C71 55.33 86.67 71 106 71Z"
    stroke="black" />
  <path d="M106 66C122.568 66 136 52.7627 136 36.4337C136 26.892 131.414 18.406 124.295 13L106 66Z"
    fill="#F7F7F8" />
  <path d="M96 8C84.3198 12.1841 76 23.0218 76 35.732C76 40.1084 76.986 44.2628 78.757 48L96 8Z"
    fill="#F7F7F8" />
  <path
    d="M86 58.963L105.935 6C111.42 6 116.564 7.45945 121 10.011L100.664 66C95.1057 65.0239 90.0694 62.5306 86 58.963Z"
    fill="#F7F7F8" />
  <path
    d="M27.8896 55.6755L35.8812 69.5567L14.6083 79.0003C9.14649 66.6931 0.356116 37.9149 1.00004 33.5003C1.64397 29.0857 4.5 27.5 5.50004 28.5003C5.50004 27.5332 6.60276 25.7966 8.50004 24.5003C10.9148 22.8505 12.8261 22.1677 14.0334 22.7935C15.5 17.5 24.2672 18.451 25.9345 19.8352C35.8812 17.6165 41.573 21.7694 42.9529 23.8175C44.3327 25.8655 42.1842 28.5003 40.1932 27.5153C39.5033 27.1739 34.6164 25.9793 31.6267 26.7757C26.7398 28.1411 27.0847 33.5456 28.4646 36.5607C29.8444 39.5758 32.6616 37.926 37.2035 36.5607C41.7455 35.1953 46 33.1469 46 36.5607C46 38.4949 41.2281 45.6944 33.3515 47.9955C28.5221 49.4063 27 54 27.8896 55.6755Z"
    fill="#9FBFFF" />
  <path
    d="M183.28 9.50963L204 49.5701L180.946 61C178.384 55.6399 172.624 44.337 170.074 42.0062C166.886 39.0927 164.267 38.1402 161.307 36.8516C158.347 35.5629 148.613 34.8345 149.012 32.9856C149.41 31.1366 151.46 30.3522 153.85 29.3997C155.763 28.6378 160.15 29.0823 162.104 29.3997L158.347 21.3316C157.853 19.7255 157.163 16.3002 158.347 15.4486C160.567 13.8519 161.952 15.0938 163.015 15.4486C162.749 15.0191 162.628 13.8125 164.267 12.423C165.907 11.0335 167.91 11.8441 168.707 12.423C168.48 11.9375 168.824 9.87494 170.643 9.00537C172.635 8.05288 174.323 9.02397 175.424 9.50963C175.158 9.11743 175.106 7.42536 177.474 6.25996C179.842 5.09456 182.369 8.14622 183.28 9.50963Z"
    fill="#9FBFFF" />
  <path d="M26 20C23.9895 20.3043 22 21.8609 22 26" stroke="black" strokeLinecap="round" />
  <path d="M176 9L177 13" stroke="black" strokeLinecap="round" />
  <path d="M169 13L171 18" stroke="black" strokeLinecap="round" />
  <path d="M164 16L166 19" stroke="black" strokeLinecap="round" />
  <path d="M16.0002 19.9996C15.4943 20.3936 13 23 13 26" stroke="black" strokeLinecap="round" />
  <path d="M8.73486 24.5151C7 25.5 5.5 28.0002 5.00003 30.7641" stroke="black"
    strokeLinecap="round" />
  <path
    d="M14.9276 78.2889C7.81436 80.9088 11.9637 92.4425 14.9276 97.8812C14.9276 97.8812 13.2639 104 14.9276 106.844C16.5912 109.689 19.2699 114.268 22.0522 119.025L29.1197 130.631C32.5 136.5 41.7046 139.456 47.1307 137.755C53.9134 135.63 75.1732 129.424 78.992 130.631C82.8108 131.837 79.277 136.262 78.992 139.881C78.764 142.777 83.0388 154.15 85.2047 159.474C102.931 171.941 143.627 163.036 146.875 161.255C150.124 159.474 168.705 161.887 172.239 159.474C175.773 157.06 170.757 131.205 172.239 127.93C173.721 124.656 178.737 124.081 182.555 121.725C186.374 119.37 182.555 116.956 185.804 115.75C188.403 114.785 200.871 114.161 206.779 113.969C213.77 110.598 228.689 102.662 232.428 97.8812C237.102 91.9058 230.091 78.2889 227.754 78.2889C225.417 78.2889 218.578 59.2137 216.241 58.0646C213.904 56.9155 210.598 48.8143 208.831 46.4586C207.064 44.1029 197.318 51.5147 194.696 53.0085C192.074 54.5024 175.488 61.3396 178.737 62.776C181.336 63.9251 182.365 69.2304 182.555 71.7389C181.872 72.4284 180.914 74.1636 182.555 75.5885C184.197 77.0134 187.762 80.1654 189.338 81.5638H178.737C171.156 79.5724 154.524 76.1285 148.642 78.2889C142.76 80.4492 133.006 77.3891 128.864 75.5885C118.696 85.8385 109.941 81.6592 106.408 78.2889C105.61 79.6678 102.452 82.2533 99.6249 81.5638C96.0911 80.702 86.0596 82.1384 75.1732 86.9072C64.2868 91.676 63.6598 89.5502 58.9291 89.5502C54.1984 89.5502 54.7683 94.951 53.9134 92.2506C53.0584 89.5502 50.3796 87.1945 49.1826 84.4941C47.9857 81.7937 45.9338 78.2889 43.8819 78.2889C41.83 78.2889 40.9181 71.4517 38.2392 68.7514C35.5604 66.051 23.8191 75.0139 14.9276 78.2889Z"
    fill="#EDEDEE" />
  <path
    d="M143.937 81.96C142.904 81.3808 142.215 79.8991 142 79.2307C142.735 79.3231 144.313 79.2307 145.82 79.2307C147.703 79.2307 149.101 78.5623 149.908 78.1723C150.554 77.8604 156.238 78.042 159 78.1723C158.641 79.1193 157.677 81.5144 156.687 83.5197C155.449 86.0263 151.253 88.4771 149.101 87.9201C146.949 87.3631 145.228 82.6842 143.937 81.96Z"
    fill="#F7F7F8" />
  <path
    d="M106.306 83.1638C109.66 92.2169 111.386 109.362 102.21 112.698C97.0439 114.575 93.374 107.281 86.4275 102.423C81.0317 98.6493 74.5405 99.2017 73.0732 95.2436C71.7443 91.6585 71.6918 89.5419 72.6823 88.0852C76.5238 86.4325 79.3832 85.1789 84.9268 83.1638C94.1034 79.829 104.593 80.7663 106.306 83.1638Z"
    fill="#F7F7F8" />
  <path
    d="M40.4313 137.007C33.9943 129.982 34.7258 119.528 41.6143 113.017C44.6254 110.17 49.9772 113.541 56.2932 112.603C64.4246 111.394 70.8097 106.576 74.4325 110.53C78.3157 114.768 74.1872 121.044 70.6692 127.296C69.8306 128.787 69.204 130.323 68.6153 131.8C62.5412 133.535 50.3032 137.007 49.7042 137.007C48.9555 137.007 45.7877 138.937 41.9288 137.416L40.4313 137.007Z"
    fill="#F7F7F8" />
  <path
    d="M163.989 139.795C164.185 135.416 161.729 131.172 160.626 125.888C158.948 117.847 157.679 109.282 152.185 109.016C142.855 108.561 143.985 118.172 139.133 125.888C135.363 131.881 131.239 133.366 131.025 138.193C130.531 149.233 137.511 158.541 146.615 158.984C155.718 159.425 163.497 150.835 163.989 139.795Z"
    fill="#F7F7F8" />
  <path
    d="M211.199 95.9594C209.668 94.2522 207.052 93.5278 204.631 91.939C200.948 89.5213 197.246 86.7632 194.8 88.5963C190.648 91.7107 186.317 93.0562 187.09 97.6516C187.692 101.221 194.839 105.079 196.528 106.961C200.39 111.265 206.807 112.291 210.858 109.254C214.91 106.215 215.063 100.263 211.199 95.9594Z"
    fill="#F7F7F8" />
  <path
    d="M209.693 67.8592C211.791 72.7008 218.772 70.8852 222 69.3722L221.042 67.5566C220.099 64.7121 217.975 58.8658 217.007 58.2364C216.038 57.607 214.586 55.1499 213.98 54C213.728 54.706 213.173 56.3966 212.972 57.5102C212.719 58.9022 207.07 61.8071 209.693 67.8592Z"
    fill="#F7F7F8" />
  <path
    d="M25.9442 100.719C20.6323 102.084 15.7472 98.1492 13.9687 96.0106C12.546 93.7507 11.3998 88.0858 11.0044 85.5352C10.9452 83.5343 11.455 79.3323 13.9687 78.532C16.4823 77.7316 22.9997 74.5101 25.9442 73C29.8573 73.412 28.1973 82.5927 27.1895 85.5352C26.1813 88.4777 32.5844 99.012 25.9442 100.719Z"
    fill="#F7F7F8" />
  <path
    d="M89.4313 159.025C87.6906 157.167 85.2022 152.167 86.2484 148M97.6396 161.304C96.8138 158.833 95.9844 152.167 97.6396 148.954M107.076 163C107.076 158.195 107.076 152.167 107.076 150.279M119.082 163C119.546 161.339 120.199 156.958 119.082 152.717M131.311 161.304C132.5 160 133.5 155.5 133.265 152.837M145.27 150.279C145.4 153.954 144.919 158.833 143.874 161.304M154.484 159.025C156.215 157.435 159.019 154.667 159.9 151.604M162.915 157.276C164.825 155.5 167.313 153 167.885 150.279M170.509 157.276C171.44 155.014 172.289 151.604 171.905 148.954"
    stroke="black" strokeLinecap="round" />
  <path
    d="M33.114 116C32.5181 114.904 31.515 112.389 32.2712 111.099C33.2161 109.487 48.8328 94.2831 54 94"
    stroke="black" strokeLinecap="round" />
  <path d="M191 81.752C191.76 79.4226 201.639 77.2735 207.633 81.0771C216.305 86.5805 221 91 221 91"
    stroke="black" strokeLinecap="round" />
  <path
    d="M14.3044 80.3144C14.0747 81.8543 13.7531 85.1472 14.3044 86M18.5543 78.8338L18.9563 83.6902M22.6893 76.9386C23.3019 78.0046 24.5845 80.3144 24.8143 81.0251M27.801 73.9773C28.605 74.8657 30.4543 77.0807 31.4191 78.8338M33.2569 71.0161C34.8333 70.8657 37.3333 71.7077 39 76.2279"
    stroke="black" strokeLinecap="round" />
  <path
    d="M206.279 49C207.7 49.7358 210.632 51.4569 211 52.4547M202.429 51.7974L206.213 55.098M198.306 54.2429C198.813 55.4236 199.94 57.9429 200.388 58.5747M192.695 56.8901C192.937 58.1294 193.635 61.084 194.496 62.9886M186.872 59.8371C185.602 61.0909 185.601 64.5455 187.658 68"
    stroke="black" strokeLinecap="round" />
  <path
    d="M89 55C89 56.726 88.5051 58.2592 87.7423 59.342C86.9749 60.4297 85.992 61 85 61C84.008 61 83.0251 60.4297 82.2577 59.342C81.4937 58.2592 81 56.726 81 55C81 53.2741 81.4937 51.7409 82.2577 50.6581C83.0251 49.5704 84.008 49 85 49C85.992 49 86.9749 49.5704 87.7423 50.6581C88.5051 51.7409 89 53.2741 89 55Z"
    stroke="black" />
  <path
    d="M99.8596 74.0808L103.287 83.0705C112.972 87.6379 125.395 87.6333 132 77.4808C132 77.4808 123.282 69.9525 118.836 65.9444C120.619 58.5542 120.507 43.6237 105.792 43.0225C87.3991 42.271 83.5153 60.5333 87.326 68.8002C90.3737 75.4143 95.1959 74.5995 99.8596 74.0808Z"
    fill="#9FBFFF" />
  <path
    d="M106.5 66C109.538 66 112 63.3137 112 60C112 56.6863 109.538 54 106.5 54C103.462 54 101 56.6863 101 60C101 63.3137 103.462 66 106.5 66Z"
    fill="#6598FF" />
  <path d="M102 59C103.021 59 105.252 59 106 59" stroke="black" strokeLinecap="round" />
  <path d="M106 59C106 59.5058 106 60.614 106 61" stroke="black" strokeLinecap="round" />
  <path d="M82 54H102" stroke="black" />
  <path
    d="M87.8498 61.0428C88.4923 61.1845 89.25 60.2251 89.5423 58.8999C89.8345 57.5747 89.5505 56.3855 88.908 56.2439C88.2655 56.1022 87.5077 57.0616 87.2155 58.3868C86.9233 59.712 87.2072 60.9011 87.8498 61.0428Z"
    fill="#6598FF" />
  <path
    d="M89 45.4542L100.585 53.9227L101.922 58.913C102.12 57.8797 103.2 55.8584 105.932 56.0398C109.348 56.2666 110.314 61.7106 107.64 63.7522C105.501 65.3855 103.333 64.4327 102.516 63.7522L105.932 81L146 75.3762C146 75.3762 143.08 65.8088 135.415 51.0495C127.752 36.2901 117.419 36.0784 113.21 37.8175C102.516 32.3129 92.6137 40.6151 89 45.4542Z"
    fill="black" />
  <path
    d="M135.825 29.8453C138.162 33.6335 136.905 38.5842 133.018 40.9027C129.131 43.2212 114 44 114 44C114 44 120.669 29.5023 124.556 27.1838C128.442 24.8653 133.488 26.0568 135.825 29.8453Z"
    fill="black" />
</svg>
  