<svg  width="21" height="20" viewBox="0 0 21 20" fill="currentColor" xmlns="http://www.w3.org/2000/svg">
<path fillRule="evenodd" clipRule="evenodd" d="M6.655 3.75C6.34179 3.75 6.06183 3.86014 5.83937 4.08032C5.60709 4.29964 5.5 4.58711 5.5 4.905V15.06C5.5 15.3753 5.61165 15.657 5.83484 15.8802C6.05802 16.1034 6.33966 16.215 6.655 16.215H10.555C11.356 16.215 12.0816 16.0545 12.7223 15.7231L12.7268 15.7207C13.3617 15.3814 13.8627 14.9164 14.2197 14.326C14.5896 13.7309 14.77 13.0515 14.77 12.3C14.77 11.4723 14.5508 10.7645 14.0806 10.212C13.7908 9.87148 13.4424 9.60473 13.0401 9.41011C13.2548 9.22919 13.4408 9.02223 13.5964 8.78889C13.9085 8.32615 14.065 7.80818 14.065 7.245C14.065 6.5715 13.8987 5.96097 13.5576 5.42566C13.2299 4.89549 12.7728 4.48546 12.1966 4.19654C11.6246 3.89461 10.9686 3.75 10.24 3.75H6.655ZM7.81 8.565V5.94H10.24C10.7478 5.94 11.1255 6.06401 11.4047 6.28115L11.4139 6.28792C11.6635 6.47005 11.815 6.76208 11.815 7.245C11.815 7.72742 11.6635 8.02811 11.4087 8.22095L11.4048 8.22399C11.1256 8.44113 10.7478 8.565 10.24 8.565H7.81ZM7.81 14.025V10.755H10.555C10.9745 10.755 11.3276 10.8235 11.6222 10.9498L11.6307 10.9532C11.9207 11.0692 12.1355 11.2369 12.2899 11.453C12.4342 11.655 12.52 11.9285 12.52 12.3C12.52 12.7057 12.4322 13.0157 12.2799 13.2517C12.1204 13.4988 11.9019 13.6874 11.6141 13.8189C11.3216 13.9526 10.9715 14.025 10.555 14.025H7.81Z" />
</svg>
