<svg width="16" height="17" viewBox="0 0 16 17" fill="none" xmlns="http://www.w3.org/2000/svg">
<path d="M10.6667 3.46289C12.8867 3.57755 14 4.3865 14 7.38027V11.3168C14 13.9411 13.3333 15.2533 10 15.2533H6C2.66667 15.2533 2 13.9411 2 11.3168V7.38027C2 4.3865 3.11333 3.58392 5.33333 3.46289H10.6667Z" stroke="#7F7E80" stroke-width="1.2" stroke-miterlimit="10" stroke-linejoin="round"/>
<path d="M5 4.46289V2.46289" stroke="#7F7E80" stroke-width="1.2" stroke-linecap="round" stroke-linejoin="round"/>
<path d="M11 4.46289V2.46289" stroke="#7F7E80" stroke-width="1.2" stroke-linecap="round" stroke-linejoin="round"/>
<path d="M14 6.8125L2 6.8125" stroke="#7F7E80" stroke-width="1.2" stroke-linejoin="round"/>
<path d="M5.375 9.85742L6.375 9.35742V12.8574" stroke="#7F7E80" stroke-width="1.2" stroke-linecap="round" stroke-linejoin="round"/>
<path d="M8.75875 9.85715C8.82717 9.73933 8.91895 9.63675 9.02845 9.55568C9.13794 9.47461 9.26285 9.41677 9.3955 9.38571C9.52816 9.35465 9.66576 9.35102 9.79986 9.37505C9.93397 9.39908 10.0617 9.45026 10.1754 9.52545C10.289 9.60064 10.386 9.69825 10.4606 9.8123C10.5351 9.92634 10.5855 10.0544 10.6088 10.1887C10.6321 10.3229 10.6276 10.4605 10.5958 10.5929C10.564 10.7254 10.5054 10.85 10.4237 10.959L8.625 12.8571H10.625" stroke="#7F7E80" stroke-width="1.2" stroke-linecap="round" stroke-linejoin="round"/>
</svg>
