<svg width="20" height="20" viewBox="0 0 20 20" fill="none" xmlns="http://www.w3.org/2000/svg">
  <rect width="20" height="20" rx="5" fill="#FF6CA1" />
  <path
    d="M12.4082 9.00247C16.2095 9.12357 19 9.52431 19 10C19 10.4757 16.2095 10.8764 12.4082 10.9975C15.0105 13.771 16.7003 16.0276 16.364 16.364C16.0276 16.7003 13.771 15.0105 10.9975 12.4083C10.8764 16.2095 10.4757 19 10 19C9.52431 19 9.12357 16.2095 9.00247 12.4082C6.22898 15.0105 3.9724 16.7003 3.63604 16.364C3.29967 16.0276 4.98951 13.771 7.59174 10.9975C3.79053 10.8764 1 10.4757 1 10C1 9.52431 3.79053 9.12357 7.59174 9.00247C4.98951 6.22898 3.29967 3.9724 3.63603 3.63604C3.9724 3.29968 6.22897 4.98952 9.00247 7.59175C9.12357 3.79054 9.52431 1 10 1C10.4757 1 10.8764 3.79053 10.9975 7.59174C13.771 4.98951 16.0276 3.29967 16.364 3.63603C16.7003 3.9724 15.0105 6.22897 12.4082 9.00247Z"
    fill="white" />
</svg>
  