<svg width="19" height="18" viewBox="0 0 19 18" fill="none" xmlns="http://www.w3.org/2000/svg">
<path d="M7.20312 13.5938H6.875C4.25 13.5938 2.9375 12.9375 2.9375 9.65625V6.375C2.9375 3.75 4.25 2.4375 6.875 2.4375H12.125C14.75 2.4375 16.0625 3.75 16.0625 6.375V9.65625C16.0625 12.2812 14.75 13.5938 12.125 13.5938H11.7969C11.5934 13.5938 11.3966 13.6922 11.2719 13.8562L10.2875 15.1687C9.85437 15.7462 9.14562 15.7462 8.7125 15.1687L7.72812 13.8562C7.62312 13.7119 7.38031 13.5938 7.20312 13.5938Z" stroke="#69696B" strokeWidth="1.2" strokeMiterlimit="10" strokeLinecap="round" strokeLinejoin="round"/>
<path d="M6.21875 6.375H12.7812" stroke="#69696B" strokeWidth="1.2" strokeLinecap="round" strokeLinejoin="round"/>
<path d="M6.21875 9.65625H10.1562" stroke="#69696B" strokeWidth="1.2" strokeLinecap="round" strokeLinejoin="round"/>
</svg>
