<svg width="1164" height="900" viewBox="0 0 1164 900" fill="none" xmlns="http://www.w3.org/2000/svg">
<path opacity="0.25" d="M1163 -54C1124.59 33.9027 992.61 227.838 772.009 300.358C551.407 372.877 439.431 390.588 459.216 358.044C479 325.5 788.624 227.258 948.984 267.394C1080.69 300.358 1014.84 386.887 1014.84 386.887C1014.84 386.887 870.785 583.844 475.678 662.956C80.5715 742.069 -4.48621 695.92 2.37329 662.956C7.86072 614.884 106.912 513.796 459.216 494.018C811.52 474.24 1009.35 521.488 1064.22 547.584C1114.98 565.439 1212.39 617.631 1014.83 749.485C857.981 854.175 496.257 1021.43 228.737 1075" stroke="#9FBFFF" strokeWidth="2"/>
</svg>
