<svg width="20" height="20" viewBox="0 0 20 20" fill="none" xmlns="http://www.w3.org/2000/svg">
  <path
    d="M6.14816 10.6483L6.57242 10.224L6.14816 10.6483ZM6.14816 9.35202L6.57242 9.77628L6.14816 9.35202ZM9.59094 13.2426L6.57242 10.224L5.7239 11.0726L8.74241 14.0911L9.59094 13.2426ZM6.57242 10.224C6.45026 10.1019 6.45026 9.89845 6.57242 9.77628L5.7239 8.92775C5.1331 9.51855 5.1331 10.4818 5.7239 11.0726L6.57242 10.224ZM6.57242 9.77628L9.59094 6.75776L8.74241 5.90923L5.7239 8.92775L6.57242 9.77628Z"
    fill="#29282C" />
  <path
    d="M10.5926 10.6483L11.0169 10.224L10.5926 10.6483ZM10.5926 9.35202L11.0169 9.77628L10.5926 9.35202ZM14.0354 13.2426L11.0169 10.224L10.1684 11.0726L13.1869 14.0911L14.0354 13.2426ZM11.0169 10.224C10.8947 10.1019 10.8947 9.89845 11.0169 9.77628L10.1684 8.92775C9.57756 9.51855 9.57756 10.4818 10.1684 11.0726L11.0169 10.224ZM11.0169 9.77628L14.0354 6.75776L13.1869 5.90923L10.1684 8.92775L11.0169 9.77628Z"
    fill="#29282C" />
</svg>