<svg width="16" height="16" viewBox="0 0 16 16" fill="none" xmlns="http://www.w3.org/2000/svg">
  <path fillRule="evenodd" clipRule="evenodd"
    d="M2.6 3C2.26863 3 2 3.26863 2 3.6C2 3.93137 2.26863 4.2 2.6 4.2H13.4C13.7314 4.2 14 3.93137 14 3.6C14 3.26863 13.7314 3 13.4 3H2.6ZM2 8.09995C2 7.76858 2.26863 7.49995 2.6 7.49995H13.4C13.7314 7.49995 14 7.76858 14 8.09995C14 8.43132 13.7314 8.69995 13.4 8.69995H2.6C2.26863 8.69995 2 8.43132 2 8.09995ZM2 12.6C2 12.2686 2.26863 12 2.6 12H13.4C13.7314 12 14 12.2686 14 12.6C14 12.9313 13.7314 13.2 13.4 13.2H2.6C2.26863 13.2 2 12.9313 2 12.6Z"
    fill="#949395" />
</svg>