<svg
  width="16"
  height="16"
  viewBox="0 0 16 16"
  fill="none"
  xmlns="http://www.w3.org/2000/svg"
>
  <path
    d="M10.6666 8.60065V11.4007C10.6666 13.734 9.73331 14.6673 7.39998 14.6673H4.59998C2.26665 14.6673 1.33331 13.734 1.33331 11.4007V8.60065C1.33331 6.26732 2.26665 5.33398 4.59998 5.33398H7.39998C9.73331 5.33398 10.6666 6.26732 10.6666 8.60065Z"
    stroke="currentColor"
    strokeWidth="1.2"
    strokeLinecap="round"
    strokeLinejoin="round"
  />
  <path
    d="M14.6666 4.60065V7.40065C14.6666 9.73398 13.7333 10.6673 11.4 10.6673H10.6666V8.60065C10.6666 6.26732 9.73331 5.33398 7.39998 5.33398H5.33331V4.60065C5.33331 2.26732 6.26665 1.33398 8.59998 1.33398H11.4C13.7333 1.33398 14.6666 2.26732 14.6666 4.60065Z"
    stroke="currentColor"
    strokeWidth="1.2"
    strokeLinecap="round"
    strokeLinejoin="round"
  />
</svg>
