<svg width="14" height="14" viewBox="0 0 14 14" fill="none" xmlns="http://www.w3.org/2000/svg">
<path d="M2.49523 8.32269L2.49523 8.3227C2.49443 8.32349 2.49364 8.32428 2.49285 8.32507C2.48184 8.33607 2.47085 8.34704 2.45989 8.35797C2.30026 8.51714 2.14682 8.67015 2.03842 8.8616C1.93003 9.05305 1.87776 9.26335 1.8234 9.48213C1.8194 9.49823 1.81538 9.51438 1.81134 9.53058L1.37003 11.2958C1.36762 11.3054 1.36518 11.3152 1.36272 11.325C1.32411 11.4791 1.28044 11.6533 1.26593 11.8016C1.24978 11.9667 1.25127 12.2659 1.49255 12.5072C1.73384 12.7485 2.03307 12.75 2.1982 12.7338C2.34646 12.7193 2.52073 12.6757 2.6748 12.6371C2.68461 12.6346 2.69434 12.6322 2.70397 12.6298L4.46921 12.1884C4.4854 12.1844 4.50155 12.1804 4.51766 12.1764C4.73643 12.122 4.94673 12.0698 5.13818 11.9614C5.32963 11.853 5.48265 11.6995 5.64182 11.5399C5.65354 11.5281 5.66529 11.5164 5.67709 11.5046L11.1187 6.06294L11.1358 6.04588C11.3359 5.84581 11.5129 5.66877 11.6463 5.5095C11.7886 5.33963 11.9188 5.1474 11.9868 4.90641C12.0669 4.62235 12.0669 4.32166 11.9868 4.0376C11.9188 3.79661 11.7886 3.60438 11.6463 3.43451C11.5129 3.27524 11.3358 3.09819 11.1358 2.89812L11.1187 2.88107L11.1017 2.86403C10.9016 2.66394 10.7245 2.48687 10.5653 2.35347C10.3954 2.21119 10.2032 2.08097 9.96218 2.01299C9.67812 1.93285 9.37743 1.93285 9.09337 2.01299C8.85238 2.08097 8.66016 2.21119 8.49028 2.35347C8.33101 2.48687 8.15397 2.66393 7.9539 2.86402L7.93685 2.88107L2.49523 8.32269Z" stroke="#29282C" strokeWidth="1.2"/>
<path d="M7.5835 3.30556L9.91683 1.75L12.2502 4.08333L10.6946 6.41667L7.5835 3.30556Z" fill="#29282C"/>
</svg>
