<svg width="16" height="17" viewBox="0 0 16 17" fill="none" xmlns="http://www.w3.org/2000/svg">
  <path
    d="M6.00065 15.6048H10.0007C13.334 15.6048 14.6673 14.2715 14.6673 10.9382V6.93815C14.6673 3.60482 13.334 2.27148 10.0007 2.27148H6.00065C2.66732 2.27148 1.33398 3.60482 1.33398 6.93815V10.9382C1.33398 14.2715 2.66732 15.6048 6.00065 15.6048Z"
    stroke="#A9A9AB" strokeWidth="1.2" strokeLinecap="round" strokeLinejoin="round" />
  <path
    d="M6.06641 8.93847V7.9518C6.06641 6.67847 6.96641 6.16514 8.06641 6.79847L8.91974 7.2918L9.77307 7.78514C10.8731 8.41847 10.8731 9.45847 9.77307 10.0918L8.91974 10.5851L8.06641 11.0785C6.96641 11.7118 6.06641 11.1918 6.06641 9.92514V8.93847Z"
    stroke="#A9A9AB" strokeWidth="1.2" strokeMiterlimit="10" strokeLinecap="round"
    strokeLinejoin="round" />
</svg>