<svg width="18" height="19" viewBox="0 0 18 19" fill="none" xmlns="http://www.w3.org/2000/svg">
<path d="M5.6665 11.0391C5.6665 11.0391 6.9165 12.7057 8.99984 12.7057C11.0832 12.7057 12.3332 11.0391 12.3332 11.0391M6.49984 6.8724H6.50817M11.4998 6.8724H11.5082M17.3332 9.3724C17.3332 13.9748 13.6022 17.7057 8.99984 17.7057C4.39746 17.7057 0.666504 13.9748 0.666504 9.3724C0.666504 4.77002 4.39746 1.03906 8.99984 1.03906C13.6022 1.03906 17.3332 4.77002 17.3332 9.3724Z" stroke="#29282C" stroke-width="1.2" stroke-linecap="round" stroke-linejoin="round"/>
<path d="M5.6665 11.0391C5.6665 11.0391 6.9165 12.7057 8.99984 12.7057C11.0832 12.7057 12.3332 11.0391 12.3332 11.0391M6.49984 6.8724H6.50817M11.4998 6.8724H11.5082M17.3332 9.3724C17.3332 13.9748 13.6022 17.7057 8.99984 17.7057C4.39746 17.7057 0.666504 13.9748 0.666504 9.3724C0.666504 4.77002 4.39746 1.03906 8.99984 1.03906C13.6022 1.03906 17.3332 4.77002 17.3332 9.3724Z" stroke="black" stroke-opacity="0.2" stroke-width="1.2" stroke-linecap="round" stroke-linejoin="round"/>
<path d="M5.6665 11.0391C5.6665 11.0391 6.9165 12.7057 8.99984 12.7057C11.0832 12.7057 12.3332 11.0391 12.3332 11.0391M6.49984 6.8724H6.50817M11.4998 6.8724H11.5082M17.3332 9.3724C17.3332 13.9748 13.6022 17.7057 8.99984 17.7057C4.39746 17.7057 0.666504 13.9748 0.666504 9.3724C0.666504 4.77002 4.39746 1.03906 8.99984 1.03906C13.6022 1.03906 17.3332 4.77002 17.3332 9.3724Z" stroke="black" stroke-opacity="0.2" stroke-width="1.2" stroke-linecap="round" stroke-linejoin="round"/>
</svg>
