<svg width="21" height="21" viewBox="0 0 21 21" fill="none" xmlns="http://www.w3.org/2000/svg">
<path d="M7.1665 12.5391C7.1665 12.5391 8.4165 14.2057 10.4998 14.2057C12.5832 14.2057 13.8332 12.5391 13.8332 12.5391M7.99984 8.3724H8.00817M12.9998 8.3724H13.0082M18.8332 10.8724C18.8332 15.4748 15.1022 19.2057 10.4998 19.2057C5.89746 19.2057 2.1665 15.4748 2.1665 10.8724C2.1665 6.27002 5.89746 2.53906 10.4998 2.53906C15.1022 2.53906 18.8332 6.27002 18.8332 10.8724Z" stroke="#29282C" stroke-width="1.2" stroke-linecap="round" stroke-linejoin="round"/>
<path d="M7.1665 12.5391C7.1665 12.5391 8.4165 14.2057 10.4998 14.2057C12.5832 14.2057 13.8332 12.5391 13.8332 12.5391M7.99984 8.3724H8.00817M12.9998 8.3724H13.0082M18.8332 10.8724C18.8332 15.4748 15.1022 19.2057 10.4998 19.2057C5.89746 19.2057 2.1665 15.4748 2.1665 10.8724C2.1665 6.27002 5.89746 2.53906 10.4998 2.53906C15.1022 2.53906 18.8332 6.27002 18.8332 10.8724Z" stroke="black" stroke-opacity="0.2" stroke-width="1.2" stroke-linecap="round" stroke-linejoin="round"/>
<path d="M7.1665 12.5391C7.1665 12.5391 8.4165 14.2057 10.4998 14.2057C12.5832 14.2057 13.8332 12.5391 13.8332 12.5391M7.99984 8.3724H8.00817M12.9998 8.3724H13.0082M18.8332 10.8724C18.8332 15.4748 15.1022 19.2057 10.4998 19.2057C5.89746 19.2057 2.1665 15.4748 2.1665 10.8724C2.1665 6.27002 5.89746 2.53906 10.4998 2.53906C15.1022 2.53906 18.8332 6.27002 18.8332 10.8724Z" stroke="black" stroke-opacity="0.2" stroke-width="1.2" stroke-linecap="round" stroke-linejoin="round"/>
</svg>
