<svg width="16" height="16" viewBox="0 0 16 16" fill="none" xmlns="http://www.w3.org/2000/svg">
  <path
    d="M8.00006 6.21203C8.79339 6.21203 9.44006 5.56536 9.44006 4.77203C9.44006 3.9787 8.79339 3.33203 8.00006 3.33203C7.20673 3.33203 6.56006 3.9787 6.56006 4.77203C6.56006 5.56536 7.20673 6.21203 8.00006 6.21203Z"
    stroke="#7F7E80" strokeWidth="1.2" strokeLinecap="round" strokeLinejoin="round" />
  <path
    d="M4.52643 12.6652C5.31976 12.6652 5.96643 12.0185 5.96643 11.2252C5.96643 10.4318 5.31976 9.78516 4.52643 9.78516C3.73309 9.78516 3.08643 10.4318 3.08643 11.2252C3.08643 12.0185 3.72643 12.6652 4.52643 12.6652Z"
    stroke="#7F7E80" strokeWidth="1.2" strokeLinecap="round" strokeLinejoin="round" />
  <path
    d="M11.4732 12.6652C12.2665 12.6652 12.9132 12.0185 12.9132 11.2252C12.9132 10.4318 12.2665 9.78516 11.4732 9.78516C10.6799 9.78516 10.0332 10.4318 10.0332 11.2252C10.0332 12.0185 10.6799 12.6652 11.4732 12.6652Z"
    stroke="#7F7E80" strokeWidth="1.2" strokeLinecap="round" strokeLinejoin="round" />
</svg>
  