<svg width="16" height="17" viewBox="0 0 16 17" fill="none" xmlns="http://www.w3.org/2000/svg">
  <path
    d="M8 8.9375C8 8.40707 8.21071 7.89836 8.58579 7.52329C8.96086 7.14821 9.46957 6.9375 10 6.9375C10.5304 6.9375 11.0391 7.14821 11.4142 7.52329C11.7893 7.89836 12 8.40707 12 8.9375C12 9.46793 11.7893 9.97664 11.4142 10.3517C11.0391 10.7268 10.5304 10.9375 10 10.9375C9.46957 10.9375 8.96086 10.7268 8.58579 10.3517C8.21071 9.97664 8 9.46793 8 8.9375V8.9375Z"
    stroke="#A9A9AB" strokeWidth="1.2" />
  <path
    d="M4 12.9375C4 12.4071 4.21071 11.8984 4.58579 11.5233C4.96086 11.1482 5.46957 10.9375 6 10.9375H8V12.9375C8 13.4679 7.78929 13.9766 7.41421 14.3517C7.03914 14.7268 6.53043 14.9375 6 14.9375C5.46957 14.9375 4.96086 14.7268 4.58579 14.3517C4.21071 13.9766 4 13.4679 4 12.9375Z"
    stroke="#A9A9AB" strokeWidth="1.2" />
  <path
    d="M8 2.9375V6.9375H10C10.5304 6.9375 11.0391 6.72679 11.4142 6.35171C11.7893 5.97664 12 5.46793 12 4.9375C12 4.40707 11.7893 3.89836 11.4142 3.52329C11.0391 3.14821 10.5304 2.9375 10 2.9375H8Z"
    stroke="#A9A9AB" strokeWidth="1.2" />
  <path
    d="M4 4.9375C4 5.46793 4.21071 5.97664 4.58579 6.35171C4.96086 6.72679 5.46957 6.9375 6 6.9375H8V2.9375H6C5.46957 2.9375 4.96086 3.14821 4.58579 3.52329C4.21071 3.89836 4 4.40707 4 4.9375Z"
    stroke="#A9A9AB" strokeWidth="1.2" />
  <path
    d="M4 8.9375C4 9.46793 4.21071 9.97664 4.58579 10.3517C4.96086 10.7268 5.46957 10.9375 6 10.9375H8V6.9375H6C5.46957 6.9375 4.96086 7.14821 4.58579 7.52329C4.21071 7.89836 4 8.40707 4 8.9375Z"
    stroke="#A9A9AB" strokeWidth="1.2" />
</svg>
  