<svg width="16" height="16" viewBox="0 0 16 16" fill="none" xmlns="http://www.w3.org/2000/svg">
  <path
    d="M7.99992 14.6654C11.6818 14.6654 14.6666 11.6806 14.6666 7.9987C14.6666 4.3168 11.6818 1.33203 7.99992 1.33203C4.31802 1.33203 1.33325 4.3168 1.33325 7.9987C1.33325 11.6806 4.31802 14.6654 7.99992 14.6654Z"
    stroke="#949395" strokeWidth="1.2" strokeLinecap="round" strokeLinejoin="round" />
  <path d="M5.33324 2H5.9999C4.6999 5.89333 4.6999 10.1067 5.9999 14H5.33324" stroke="#949395"
    strokeWidth="1.2" strokeLinecap="round" strokeLinejoin="round" />
  <path d="M10 2C11.3 5.89333 11.3 10.1067 10 14" stroke="#949395" strokeWidth="1.2"
    strokeLinecap="round" strokeLinejoin="round" />
  <path d="M2 10.6667V10C5.89333 11.3 10.1067 11.3 14 10V10.6667" stroke="#949395"
    strokeWidth="1.2" strokeLinecap="round" strokeLinejoin="round" />
  <path d="M2 5.99844C5.89333 4.69844 10.1067 4.69844 14 5.99844" stroke="#949395"
    strokeWidth="1.2" strokeLinecap="round" strokeLinejoin="round" />
</svg>
  