<svg width="17" height="16" viewBox="0 0 17 16" fill="none" xmlns="http://www.w3.org/2000/svg">
<path d="M4.30933 0.664062C3.75704 0.664062 3.30933 1.11178 3.30933 1.66406V14.3307C3.30933 14.883 3.75704 15.3307 4.30933 15.3307H12.976C13.5283 15.3307 13.976 14.883 13.976 14.3307V4.66406L9.97599 0.664062H4.30933Z" fill="#6B3FB9"/>
<path d="M4.30933 15.3307C3.75704 15.3307 3.30933 14.883 3.30933 14.3307V14.1641C3.30933 14.7163 3.75704 15.1641 4.30933 15.1641H12.976C13.5283 15.1641 13.976 14.7163 13.976 14.1641V14.3307C13.976 14.883 13.5283 15.3307 12.976 15.3307H4.30933Z" fill="#6439B5"/>
<path d="M4.30933 0.664062C3.75704 0.664062 3.30933 1.11178 3.30933 1.66406V1.83073C3.30933 1.27844 3.75704 0.830729 4.30933 0.830729H10.1427L9.97599 0.664062H4.30933Z" fill="#815BC3"/>
<path d="M13.9758 8.08594V4.66927L13.3925 4.08594H10.5794C10.3566 4.08594 10.2451 4.35522 10.4026 4.51271L13.9758 8.08594Z" fill="url(#paint0_linear_14082_375481)"/>
<path d="M9.97583 0.664062L13.9758 4.66406H10.9758C10.4235 4.66406 9.97583 4.21635 9.97583 3.66406V0.664062Z" fill="#B7A2DD"/>
<path d="M6.47583 8.83594C6.75197 8.83594 6.97583 8.61208 6.97583 8.33594C6.97583 8.0598 6.75197 7.83594 6.47583 7.83594C6.19969 7.83594 5.97583 8.0598 5.97583 8.33594C5.97583 8.61208 6.19969 8.83594 6.47583 8.83594Z" fill="white"/>
<path d="M11.4758 8.0026H7.80916V8.66927H11.4758V8.0026Z" fill="white"/>
<path d="M11.4758 9.66927H7.80916V10.3359H11.4758V9.66927Z" fill="white"/>
<path d="M7.80916 11.3359H11.4758V12.0026H7.80916V11.3359Z" fill="white"/>
<path d="M6.97583 10.0026C6.97583 10.2787 6.75197 10.5026 6.47583 10.5026C6.19969 10.5026 5.97583 10.2787 5.97583 10.0026C5.97583 9.72646 6.19969 9.5026 6.47583 9.5026C6.75197 9.5026 6.97583 9.72646 6.97583 10.0026Z" fill="white"/>
<path d="M6.47583 12.1693C6.75197 12.1693 6.97583 11.9454 6.97583 11.6693C6.97583 11.3931 6.75197 11.1693 6.47583 11.1693C6.19969 11.1693 5.97583 11.3931 5.97583 11.6693C5.97583 11.9454 6.19969 12.1693 6.47583 12.1693Z" fill="white"/>
<defs>
<linearGradient id="paint0_linear_14082_375481" x1="12.1523" y1="8.08594" x2="12.1523" y2="4.0026" gradientUnits="userSpaceOnUse">
<stop stop-color="#6B3FB9"/>
<stop offset="1" stop-color="#5B3DA3"/>
</linearGradient>
</defs>
</svg>
