<svg width="17" height="16" viewBox="0 0 17 16" fill="none" xmlns="http://www.w3.org/2000/svg">
<path d="M4.30933 0.664062C3.75704 0.664062 3.30933 1.11178 3.30933 1.66406V14.3307C3.30933 14.883 3.75704 15.3307 4.30933 15.3307H12.976C13.5283 15.3307 13.976 14.883 13.976 14.3307V4.66406L9.97599 0.664062H4.30933Z" fill="#4E8DF5"/>
<path d="M4.30933 15.3307C3.75704 15.3307 3.30933 14.883 3.30933 14.3307V14.1641C3.30933 14.7163 3.75704 15.1641 4.30933 15.1641H12.976C13.5283 15.1641 13.976 14.7163 13.976 14.1641V14.3307C13.976 14.883 13.5283 15.3307 12.976 15.3307H4.30933Z" fill="#417EE9"/>
<path d="M4.30933 0.664062C3.75704 0.664062 3.30933 1.11178 3.30933 1.66406V1.83073C3.30933 1.27844 3.75704 0.830729 4.30933 0.830729H10.1427L9.97599 0.664062H4.30933Z" fill="#639AF6"/>
<path d="M13.9758 8.08594V4.66927L13.3925 4.08594H10.5794C10.3566 4.08594 10.2451 4.35522 10.4026 4.51271L13.9758 8.08594Z" fill="url(#paint0_linear_13927_385718)"/>
<path d="M9.97583 0.664062L13.9758 4.66406H10.9758C10.4235 4.66406 9.97583 4.21635 9.97583 3.66406V0.664062Z" fill="#A6C5FA"/>
<path d="M11.3092 8H5.97583V8.66667H11.3092V8Z" fill="white"/>
<path d="M11.3092 9.33333H5.97583V10H11.3092V9.33333Z" fill="white"/>
<path d="M5.97583 10.6667H11.3092V11.3333H5.97583V10.6667Z" fill="white"/>
<path d="M9.97583 12H5.97583V12.6667H9.97583V12Z" fill="white"/>
<defs>
<linearGradient id="paint0_linear_13927_385718" x1="11.9758" y1="8.08594" x2="11.9758" y2="4.0026" gradientUnits="userSpaceOnUse">
<stop stop-color="#4E8DF5"/>
<stop offset="1" stop-color="#3D6ACD"/>
</linearGradient>
</defs>
</svg>
