<svg width="17" height="16" viewBox="0 0 17 16" fill="none" xmlns="http://www.w3.org/2000/svg">
<path d="M1.35873 10.1641C1.35608 10.3991 1.4155 10.6347 1.537 10.8453L3.16261 13.6636C3.40072 14.0764 3.84104 14.3307 4.31759 14.3307H12.9675C13.4441 14.3307 13.8844 14.0764 14.1225 13.6636L15.7481 10.8453C15.8696 10.6347 15.929 10.3991 15.9264 10.1641H1.35873Z" fill="#4285F4"/>
<path d="M13.6398 14.1541L6.3479 1.52411C6.55102 1.40299 6.78615 1.33594 7.03083 1.33594H10.2544C10.7307 1.33594 11.1709 1.59007 11.4091 2.0026L15.7479 9.51764C15.986 9.93001 15.9861 10.438 15.7481 10.8505L14.1225 13.6688C14.0045 13.8734 13.8369 14.039 13.6398 14.1541Z" fill="#FBBC04"/>
<path d="M10.9373 1.52412C10.7341 1.40299 10.499 1.33594 10.2543 1.33594H7.03079C6.55443 1.33594 6.11426 1.59007 5.87609 2.0026L1.53728 9.51765C1.2992 9.93001 1.29909 10.438 1.537 10.8505L3.16261 13.6688C3.2806 13.8734 3.44825 14.039 3.64535 14.1541L10.9373 1.52412Z" fill="#34A853"/>
<path d="M15.9264 10.1641C15.929 10.3991 15.8696 10.6347 15.7481 10.8453L14.1225 13.6636C14.0045 13.8681 13.8368 14.0338 13.6397 14.1489L11.3391 10.1641H15.9264Z" fill="#EA4335"/>
<path d="M10.9373 1.52412C10.7342 1.40299 10.499 1.33594 10.2544 1.33594H7.03083C6.78615 1.33594 6.55102 1.40299 6.3479 1.52411L8.6426 5.49865L10.9373 1.52412Z" fill="#188038"/>
<path d="M1.35873 10.1641C1.35608 10.3991 1.4155 10.6347 1.537 10.8453L3.16261 13.6636C3.2806 13.8681 3.44825 14.0338 3.64535 14.1489L5.94598 10.1641H1.35873Z" fill="#1967D2"/>
</svg>
