<svg width="17" height="16" viewBox="0 0 17 16" fill="none" xmlns="http://www.w3.org/2000/svg">
<path d="M4.30933 0.664062C3.75704 0.664062 3.30933 1.11178 3.30933 1.66406V14.3307C3.30933 14.883 3.75704 15.3307 4.30933 15.3307H12.976C13.5283 15.3307 13.976 14.883 13.976 14.3307V4.66406L9.97599 0.664062H4.30933Z" fill="#F4B70A"/>
<path d="M4.30933 15.3307C3.75704 15.3307 3.30933 14.883 3.30933 14.3307V14.1641C3.30933 14.7163 3.75704 15.1641 4.30933 15.1641H12.976C13.5283 15.1641 13.976 14.7163 13.976 14.1641V14.3307C13.976 14.883 13.5283 15.3307 12.976 15.3307H4.30933Z" fill="#EFA904"/>
<path d="M4.30933 0.664062C3.75704 0.664062 3.30933 1.11178 3.30933 1.66406V1.83073C3.30933 1.27844 3.75704 0.830729 4.30933 0.830729H10.1427L9.97599 0.664062H4.30933Z" fill="#F6C028"/>
<path d="M13.9758 8.08594V4.66927L13.3925 4.08594H10.5794C10.3566 4.08594 10.2451 4.35522 10.4026 4.51271L13.9758 8.08594Z" fill="url(#paint0_linear_14082_375406)"/>
<path d="M9.97583 0.664062L13.9758 4.66406H10.9758C10.4235 4.66406 9.97583 4.21635 9.97583 3.66406V0.664062Z" fill="#FADC87"/>
<path fill-rule="evenodd" clip-rule="evenodd" d="M6.30916 7.33594C6.12507 7.33594 5.97583 7.48518 5.97583 7.66927V12.3359C5.97583 12.52 6.12507 12.6693 6.30916 12.6693H10.9758C11.1599 12.6693 11.3092 12.52 11.3092 12.3359V7.66927C11.3092 7.48518 11.1599 7.33594 10.9758 7.33594H6.30916ZM10.6425 8.83594H6.6425V11.1693H10.6425V8.83594Z" fill="white"/>
<defs>
<linearGradient id="paint0_linear_14082_375406" x1="12.1523" y1="8.08594" x2="12.1523" y2="4.0026" gradientUnits="userSpaceOnUse">
<stop stop-color="#F4B70A"/>
<stop offset="1" stop-color="#E2930A"/>
</linearGradient>
</defs>
</svg>
