<svg width="16" height="16" viewBox="0 0 16 16" fill="none" xmlns="http://www.w3.org/2000/svg">
<path d="M5.85313 2.235C5.89805 2.16312 5.96051 2.10385 6.03463 2.06274C6.10876 2.02163 6.19211 2.00004 6.27688 2H9.72313C9.80789 2.00004 9.89124 2.02163 9.96537 2.06274C10.0395 2.10385 10.102 2.16312 10.1469 2.235L14.4237 9.24625C14.4717 9.32284 14.4981 9.41099 14.4999 9.50135C14.5018 9.5917 14.4791 9.68087 14.4344 9.75937L12.7262 12.75C12.6823 12.8261 12.6191 12.8893 12.5429 12.9332C12.4668 12.9771 12.3804 13.0001 12.2925 13H3.7075C3.61961 13.0001 3.53323 12.9771 3.45708 12.9332C3.38093 12.8893 3.3177 12.8261 3.27375 12.75L1.56562 9.75937C1.52086 9.68087 1.49821 9.5917 1.50008 9.50135C1.50195 9.41099 1.52827 9.32284 1.57625 9.24625L5.85313 2.235Z" stroke="#7F7E80" stroke-width="1.2" stroke-linecap="round" stroke-linejoin="round"/>
<path d="M3.44501 12.9263L9.96313 2.0625" stroke="#7F7E80" stroke-width="1.2" stroke-linecap="round" stroke-linejoin="round"/>
<path d="M12.555 12.9263L6.03688 2.0625" stroke="#7F7E80" stroke-width="1.2" stroke-linecap="round" stroke-linejoin="round"/>
<path d="M1.5 9.5H14.5" stroke="#7F7E80" stroke-width="1.2" stroke-linecap="round" stroke-linejoin="round"/>
</svg>
