<svg width="22" height="20" viewBox="0 0 22 20" fill="none" xmlns="http://www.w3.org/2000/svg">
<path fillRule="evenodd" clipRule="evenodd" d="M4.82062 3.72266C4.6047 3.72266 4.41009 3.79919 4.25653 3.94919C4.10557 4.09663 4.03996 4.28568 4.03996 4.48516V15.3002C4.03996 15.5001 4.10534 15.6858 4.24363 15.8378L4.25614 15.8515L4.2702 15.8637C4.42578 15.9988 4.61593 16.0627 4.82062 16.0627C5.02484 16.0627 5.21839 15.9986 5.36935 15.8511C5.52292 15.7011 5.60127 15.5111 5.60127 15.3002V10.5577H12.7167V15.3002C12.7167 15.5001 12.7821 15.6858 12.9204 15.8378L12.9329 15.8515L12.947 15.8637C13.0975 15.9944 13.2805 16.0627 13.482 16.0627C13.6867 16.0627 13.8769 15.9988 14.0325 15.8637L14.0395 15.8576L14.0461 15.8511C14.1997 15.7011 14.2781 15.5111 14.2781 15.3002V4.48516C14.2781 4.27694 14.2011 4.08657 14.0396 3.94287C13.8925 3.80214 13.7075 3.72266 13.4974 3.72266C13.2815 3.72266 13.0869 3.79919 12.9333 3.94919C12.7824 4.09663 12.7167 4.28568 12.7167 4.48516V9.12266H5.60127V4.48516C5.60127 4.27987 5.52643 4.09193 5.36958 3.94896C5.2232 3.79576 5.03079 3.72266 4.82062 3.72266ZM17.3627 9.58016C17.3164 9.58016 17.2718 9.58573 17.2309 9.59372C17.1872 9.60225 17.1449 9.61459 17.104 9.63019L15.9117 10.0482C15.769 10.0976 15.6404 10.1851 15.5545 10.3214C15.481 10.4381 15.4456 10.5677 15.4456 10.7027C15.4456 10.8854 15.5081 11.0584 15.6467 11.1938L15.6548 11.2011C15.7953 11.3292 15.9699 11.3902 16.1572 11.3902C16.284 11.3902 16.4075 11.3613 16.5247 11.3141L16.6435 11.2649V15.3677C16.6435 15.5565 16.7163 15.7257 16.8524 15.8586C16.9851 15.9883 17.1546 16.0627 17.3474 16.0627C17.5413 16.0627 17.7185 15.9946 17.8577 15.8586C17.9938 15.7257 18.0666 15.5565 18.0666 15.3677V10.2827C18.0666 10.1027 18.009 9.929 17.8733 9.79207C17.7368 9.64343 17.5534 9.58016 17.3627 9.58016Z" fill="#69696B"/>
</svg>
