<svg width="20" height="20" viewBox="0 0 20 20" fill="none" xmlns="http://www.w3.org/2000/svg">
<path fillRule="evenodd" clipRule="evenodd" d="M3.20024 3.72266C2.98935 3.72266 2.79927 3.79919 2.64927 3.94919C2.50183 4.09663 2.43774 4.28568 2.43774 4.48516V15.3002C2.43774 15.5001 2.5016 15.6858 2.63668 15.8378L2.64889 15.8515L2.66263 15.8637C2.81459 15.9988 3.00032 16.0627 3.20024 16.0627C3.39972 16.0627 3.58877 15.9986 3.73621 15.8511C3.88621 15.7011 3.96274 15.5111 3.96274 15.3002V10.5577H10.9127V15.3002C10.9127 15.5001 10.9766 15.6858 11.1117 15.8378L11.1239 15.8515L11.1376 15.8637C11.2846 15.9944 11.4634 16.0627 11.6602 16.0627C11.8602 16.0627 12.0459 15.9988 12.1979 15.8637L12.2047 15.8576L12.2112 15.8511C12.3612 15.7011 12.4377 15.5111 12.4377 15.3002V4.48516C12.4377 4.27694 12.3625 4.08657 12.2048 3.94287C12.0612 3.80214 11.8805 3.72266 11.6752 3.72266C11.4643 3.72266 11.2743 3.79919 11.1243 3.94919C10.9768 4.09663 10.9127 4.28568 10.9127 4.48516V9.12266H3.96274V4.48516C3.96274 4.27987 3.88964 4.09193 3.73644 3.94896C3.59347 3.79576 3.40553 3.72266 3.20024 3.72266ZM15.8857 9.58016C15.5004 9.58016 15.1435 9.6699 14.8226 9.85414L14.8204 9.85541C14.508 10.0381 14.2594 10.2899 14.0778 10.606C13.8923 10.9236 13.8032 11.2813 13.8032 11.6702C13.8032 11.8585 13.8775 12.024 14.0072 12.1536C14.1401 12.2866 14.3094 12.3577 14.4982 12.3577C14.686 12.3577 14.8596 12.2904 14.9929 12.1499C15.1202 12.0208 15.1932 11.8566 15.1932 11.6702C15.1932 11.523 15.2247 11.3969 15.2833 11.2858C15.3493 11.1653 15.4333 11.0763 15.5354 11.0117L15.5376 11.0102C15.6405 10.9438 15.7539 10.9102 15.8857 10.9102C16.0312 10.9102 16.1377 10.9432 16.2191 10.9956L16.226 10.9998C16.3092 11.0503 16.3767 11.1239 16.4277 11.2328C16.4791 11.3424 16.5107 11.4851 16.5107 11.6702C16.5107 11.7456 16.4878 11.8415 16.4216 11.9623L16.418 11.9693C16.352 12.0972 16.2522 12.2424 16.1132 12.4045L13.9899 14.8866C13.8614 15.0205 13.8032 15.1893 13.8032 15.3677C13.8032 15.5497 13.8667 15.7167 13.9921 15.851L13.9997 15.8586C14.1357 15.9946 14.3087 16.0627 14.4982 16.0627H17.2732C17.4626 16.0627 17.6357 15.9946 17.7716 15.8586C17.9046 15.7257 17.9757 15.5565 17.9757 15.3677C17.9757 15.1811 17.9027 15.0169 17.7752 14.8877C17.6413 14.7469 17.4676 14.6727 17.2732 14.6727H15.8648L17.1259 13.2409C17.2402 13.1103 17.3502 12.9652 17.4562 12.8064C17.5731 12.6389 17.6688 12.462 17.7425 12.2759C17.8258 12.0782 17.8707 11.8755 17.8707 11.6702C17.8707 11.2661 17.7932 10.8996 17.6256 10.5813C17.4641 10.2652 17.2305 10.0156 16.9275 9.83983C16.622 9.66268 16.271 9.58016 15.8857 9.58016Z" fill="#69696B"/>
</svg>
