<svg width="21" height="20" viewBox="0 0 21 20" fill="none" xmlns="http://www.w3.org/2000/svg">
<path fillRule="evenodd" clipRule="evenodd" d="M3.60945 3.72266C3.39354 3.72266 3.19893 3.79919 3.04536 3.94919C2.89441 4.09663 2.8288 4.28568 2.8288 4.48516V15.3002C2.8288 15.5001 2.89418 15.6858 3.03247 15.8378L3.04497 15.8515L3.05904 15.8637C3.21462 15.9988 3.40477 16.0627 3.60945 16.0627C3.81368 16.0627 4.00723 15.9986 4.15818 15.8511C4.31175 15.7011 4.39011 15.5111 4.39011 15.3002V10.5577H11.5056V15.3002C11.5056 15.5001 11.571 15.6858 11.7093 15.8378L11.7218 15.8515L11.7358 15.8637C11.8863 15.9944 12.0694 16.0627 12.2709 16.0627C12.4756 16.0627 12.6657 15.9988 12.8213 15.8637L12.8283 15.8576L12.835 15.8511C12.9885 15.7011 13.0669 15.5111 13.0669 15.3002V4.48516C13.0669 4.27694 12.9899 4.08657 12.8284 3.94287C12.6814 3.80214 12.4964 3.72266 12.2862 3.72266C12.0703 3.72266 11.8757 3.79919 11.7221 3.94919C11.5712 4.09663 11.5056 4.28568 11.5056 4.48516V9.12266H4.39011V4.48516C4.39011 4.27987 4.31527 4.09193 4.15841 3.94896C4.01204 3.79576 3.81963 3.72266 3.60945 3.72266ZM17.2226 13.0563L16.7501 13.236C16.7483 13.2359 16.7465 13.2358 16.7447 13.2358L17.2216 13.0557C17.222 13.0559 17.2223 13.0561 17.2226 13.0563ZM15.6712 13.6412C15.6427 13.5781 15.6037 13.5184 15.5528 13.464C15.4253 13.3225 15.2538 13.2477 15.0612 13.2477C14.8676 13.2477 14.7001 13.3273 14.5734 13.46C14.4411 13.5992 14.388 13.7733 14.388 13.9502C14.388 14.3432 14.4864 14.7069 14.687 15.0334L14.6884 15.0356C14.8877 15.3541 15.1624 15.6064 15.5056 15.7913L15.5093 15.7933C15.8588 15.9757 16.2523 16.0627 16.6814 16.0627C17.0679 16.0627 17.4294 15.9793 17.7597 15.8091L17.7637 15.807C18.0905 15.6329 18.356 15.395 18.5548 15.0949L18.5563 15.0926C18.7596 14.7797 18.8595 14.4285 18.8595 14.0477C18.8595 13.7777 18.8125 13.5215 18.7151 13.2822C18.6199 13.0358 18.4683 12.8214 18.2653 12.6406C18.1972 12.5783 18.1233 12.5212 18.0442 12.469C18.2044 12.3384 18.3368 12.1842 18.4398 12.0076C18.5636 11.8044 18.6215 11.5763 18.6215 11.3327C18.6215 11.0031 18.535 10.6992 18.357 10.4307C18.1878 10.1628 17.9536 9.95388 17.662 9.80482C17.3704 9.64802 17.0461 9.57266 16.6967 9.57266C16.3235 9.57266 15.976 9.64978 15.6608 9.80922C15.3479 9.96244 15.0944 10.1784 14.9084 10.4569C14.719 10.7406 14.6261 11.0606 14.6261 11.4077C14.6261 11.5841 14.6815 11.7517 14.8041 11.8898L14.8115 11.8982L14.8196 11.9061C14.9485 12.032 15.1132 12.1027 15.2992 12.1027C15.4936 12.1027 15.6667 12.0265 15.7945 11.8824L15.8009 11.8747C15.9192 11.7325 15.9724 11.5631 15.9724 11.3852C15.9724 11.2966 15.9969 11.2215 16.048 11.1509C16.1113 11.0706 16.1968 11.0021 16.3122 10.9473C16.4299 10.8937 16.5617 10.8652 16.7121 10.8652C16.899 10.8652 17.0268 10.9176 17.1229 11.0056C17.222 11.0964 17.2675 11.1987 17.2675 11.3327C17.2675 11.4256 17.2429 11.5034 17.194 11.5746C17.1354 11.6546 17.062 11.7201 16.971 11.7721C16.8833 11.8175 16.7982 11.8377 16.7121 11.8377C16.5181 11.8377 16.341 11.9057 16.2018 12.0417C16.0632 12.1771 16.0005 12.3499 16.0005 12.5327C16.0005 12.7156 16.0628 12.8862 16.194 13.0235L16.2018 13.0311C16.341 13.1671 16.5181 13.2352 16.7121 13.2352C16.7231 13.2352 16.734 13.2354 16.7447 13.2358L15.6712 13.6412ZM15.3721 13.7541L15.6712 13.6412C15.6719 13.6427 15.6725 13.6442 15.6732 13.6456L15.3746 13.7592C15.3738 13.7575 15.3729 13.7558 15.3721 13.7541ZM15.6732 13.6456L16.7501 13.236C16.8752 13.2417 16.9816 13.2757 17.0761 13.3352C17.1868 13.405 17.2754 13.4991 17.3431 13.6239L17.345 13.6273C17.4086 13.7412 17.4441 13.8762 17.4441 14.0402C17.4441 14.3005 17.3648 14.4662 17.2352 14.5804C17.1018 14.6977 16.9129 14.7702 16.6353 14.7702C16.4555 14.7702 16.3034 14.7319 16.1716 14.661C16.0327 14.5813 15.927 14.4805 15.849 14.3577C15.7721 14.2319 15.7344 14.0981 15.7344 13.9502C15.7344 13.8455 15.7158 13.7417 15.6732 13.6456Z" fill="#69696B"/>
</svg>
