<svg width="16" height="16" viewBox="0 0 16 16" fill="none" xmlns="http://www.w3.org/2000/svg">
  <path
    d="M10.4 15.25H5.6C3.67397 15.25 2.52086 14.8602 1.83033 14.1697C1.1398 13.4791 0.75 12.326 0.75 10.4V5.6C0.75 3.67397 1.1398 2.52086 1.83033 1.83033C2.52086 1.1398 3.67397 0.75 5.6 0.75H10.4C12.326 0.75 13.4791 1.1398 14.1697 1.83033C14.8602 2.52086 15.25 3.67397 15.25 5.6V10.4C15.25 12.326 14.8602 13.4791 14.1697 14.1697C13.4791 14.8602 12.326 15.25 10.4 15.25Z"
    stroke="#29282C" strokeWidth="1.2" strokeLinecap="round" strokeLinejoin="round" />
  <path
    d="M8 9.77778V9.5082C8 8.63511 8.50606 8.17287 9.0121 7.80052C9.50608 7.44102 10 6.97881 10 6.1314C10 4.95017 9.10845 4 8 4C6.89155 4 6 4.95017 6 6.1314"
    stroke="#29282C" strokeWidth="1.2" strokeLinecap="round" strokeLinejoin="round" />
  <path d="M8 11.7778V12.0001" stroke="#29282C" strokeWidth="1.2" strokeLinecap="round" />
</svg>