<svg width="160" height="210" viewBox="0 0 160 210" fill="none" xmlns="http://www.w3.org/2000/svg">
  <rect x="83" y="152" width="50" height="25" fill="#48474D" />
  <path d="M95 164.58L100.595 170L108 159" stroke="white" />
  <path d="M112 164.58L117.165 170L124 159" stroke="white" />
  <rect x="24" y="185" width="50" height="25" fill="white" />
  <path d="M40.2222 185H74V210H36L40.2222 185Z" fill="#48474D" />
  <rect x="83.5" y="185.5" width="49" height="24" stroke="#48474D" />
  <path d="M83 198H133" stroke="#48474D" />
  <rect x="24.5" y="152.5" width="49" height="24" stroke="#48474D" />
  <path d="M36 168L44.9762 164.286L50.0833 168L62 160" stroke="#48474D" />
  <path
    d="M25.2149 1C25.2149 13.648 12.7883 39.2076 6.70708 54.7541C-0.754418 73.8295 -2.29997 94.0318 10.6729 107.981C20.72 118.785 26.8015 119.312 31.2961 116.413C35.5264 112.724 25.5012 89.2727 25.5012 89.2727C25.5012 89.2727 37.8181 70.2128 46.367 66.3482C53.9444 62.9227 86.1351 67.2958 95.0158 85.8472C100.061 96.3872 92.1295 115.886 92.1295 115.886C92.1295 115.886 72.2996 127.113 72.2996 131.96C72.2996 139.601 91.0719 136.703 95.5667 135.122C105.07 131.779 112.792 121.18 116.961 116.15C121.985 110.089 128.33 95.5967 115.904 69.7737M108.765 125.643C116.286 125.918 131.408 124.672 138.377 115.886M137.319 62.3957C140.228 70.2128 145.357 89.9578 142.607 106.4C142.011 109.969 140.31 113.451 138.377 115.886M138.377 115.886C144.888 116.15 159 113.778 159 92.4347C159 68.7065 148.537 48.8268 146.573 34.4646C145.781 28.6676 143.842 7.32402 143.93 1M124.893 50.2746L126.744 56.5986M139.963 48.4301L141.285 54.7541M110.351 53.1731L112.466 59.2337"
    stroke="#48474D" />
  <rect x="28.7003" y="112.116" width="48.6366" height="23.19"
    transform="rotate(9.63384 28.7003 112.116)" fill="#F3F7FF" stroke="#48474D" />
  <rect x="30.0519" y="126.686" width="10.9379" height="9.05298"
    transform="rotate(9.63384 30.0519 126.686)" stroke="#48474D" />
  <rect x="46.1803" y="121.776" width="10.9379" height="16.5927"
    transform="rotate(9.63384 46.1803 121.776)" stroke="#48474D" />
  <rect x="60.5211" y="127.393" width="10.9379" height="13.4512"
    transform="rotate(9.63384 60.5211 127.393)" stroke="#48474D" />
</svg>
  