<svg width="16" height="17" viewBox="0 0 16 17" fill="none" xmlns="http://www.w3.org/2000/svg">
  <path
    d="M6.00065 15.4942H10.0007C13.334 15.4942 14.6673 14.1557 14.6673 10.8095V6.79406C14.6673 3.44786 13.334 2.10938 10.0007 2.10938H6.00065C2.66732 2.10938 1.33398 3.44786 1.33398 6.79406V10.8095C1.33398 14.1557 2.66732 15.4942 6.00065 15.4942Z"
    stroke="#A9A9AB" strokeWidth="1.2" strokeLinecap="round" strokeLinejoin="round" />
  <path
    d="M5.99935 7.46407C6.73573 7.46407 7.33268 6.86481 7.33268 6.12559C7.33268 5.38637 6.73573 4.78711 5.99935 4.78711C5.26297 4.78711 4.66602 5.38637 4.66602 6.12559C4.66602 6.86481 5.26297 7.46407 5.99935 7.46407Z"
    stroke="#A9A9AB" strokeWidth="1.2" strokeLinecap="round" strokeLinejoin="round" />
  <path
    d="M1.7793 13.4537L5.06596 11.2385C5.59263 10.8838 6.35263 10.9239 6.82596 11.3322L7.04596 11.5263C7.56596 11.9747 8.40596 11.9747 8.92596 11.5263L11.6993 9.13707C12.2193 8.68868 13.0593 8.68868 13.5793 9.13707L14.666 10.074"
    stroke="#A9A9AB" strokeWidth="1.2" strokeLinecap="round" strokeLinejoin="round" />
</svg>