<svg width="27" height="27" viewBox="0 0 27 27" fill="none" xmlns="http://www.w3.org/2000/svg">
  <path
    d="M9.63645 25.7224H16.8365C22.8365 25.7224 25.2364 23.3224 25.2364 17.3224V10.1224C25.2364 4.12243 22.8365 1.72243 16.8365 1.72243H9.63645C3.63645 1.72243 1.23643 4.12243 1.23643 10.1224V17.3224C1.23643 23.3224 3.63645 25.7224 9.63645 25.7224Z"
    stroke="#A9A9AB" strokeWidth="1.69412" strokeLinecap="round" strokeLinejoin="round" />
  <path
    d="M9.46944 11.1719C10.7689 11.1719 11.8224 10.1144 11.8224 8.80987C11.8224 7.50536 10.7689 6.44784 9.46944 6.44784C8.16995 6.44784 7.1165 7.50536 7.1165 8.80987C7.1165 10.1144 8.16995 11.1719 9.46944 11.1719Z"
    stroke="#A9A9AB" strokeWidth="1.69412" strokeLinecap="round" strokeLinejoin="round" />
  <path
    d="M2.02229 21.7418L7.82228 17.8326C8.7517 17.2067 10.0929 17.2775 10.9282 17.998L11.3164 18.3405C12.234 19.1318 13.7164 19.1318 14.634 18.3405L19.5282 14.1242C20.4458 13.333 21.9282 13.333 22.8458 14.1242L24.7635 15.7776"
    stroke="#A9A9AB" strokeWidth="1.69412" strokeLinecap="round" strokeLinejoin="round" />
</svg>
  