<svg width="241" height="224" viewBox="0 0 241 224" fill="none" xmlns="http://www.w3.org/2000/svg">
<path d="M43.3076 122.374V4.73712H162.504V25.7438H208.412V122.374H43.3076Z" stroke="#9FBFFF"/>
<path d="M243.498 39.821V153.331H100.063V39.821H243.498Z" stroke="#48474D"/>
<path d="M73.8718 67.918C83.0243 68.2027 89.7433 69.1446 89.7433 70.2627C89.7433 71.3808 83.0243 72.3227 73.8718 72.6073C80.1374 79.1263 84.2062 84.4303 83.3963 85.2209C82.5864 86.0115 77.1531 82.0396 70.4751 75.9232C70.1836 84.8577 69.2187 91.4167 68.0733 91.4167C66.928 91.4167 65.9631 84.8577 65.6715 75.9231C58.9935 82.0396 53.5602 86.0115 52.7503 85.2208C51.9404 84.4302 56.0092 79.1263 62.2748 72.6073C53.1223 72.3227 46.4033 71.3808 46.4033 70.2627C46.4033 69.1446 53.1223 68.2027 62.2748 67.918C56.0092 61.3991 51.9404 56.0951 52.7503 55.3045C53.5602 54.5139 58.9935 58.4858 65.6715 64.6022C65.9631 55.6677 66.928 49.1086 68.0733 49.1086C69.2187 49.1086 70.1836 55.6677 70.4751 64.6022C77.1531 58.4858 82.5864 54.5139 83.3963 55.3045C84.2062 56.0951 80.1374 61.3991 73.8718 67.918Z" fill="#9FBFFF"/>
<path d="M6.03196 93.4803L1 241.043L166.426 234.851L172.296 93.4803H6.03196Z" stroke="#48474D"/>
<path d="M5.96594 93.4803L5.12695 122.374H171.037L172.296 93.4803H5.96594Z" fill="#48474D" stroke="#48474D"/>
<path d="M29.8926 158.507V233.82H46.4031V155.395L29.8926 158.507Z" fill="white"/>
<path d="M55.6914 188.434V233.82H74.2657V186.352L55.6914 188.434Z" fill="white"/>
<path d="M102.126 233.819H84.584V170.254L102.126 167.777V233.819Z" fill="white"/>
<path d="M128.956 233.819H110.382V212.323L128.956 211.117V233.819Z" fill="white"/>
<path d="M243.498 39.821V52.2039H100.063V39.821H243.498Z" fill="#48474D"/>
<mask id="path-11-inside-1_1365_7038" fill="white">
<path fillRule="evenodd" clipRule="evenodd" d="M30.4017 60.3314C30.4505 60.3806 30.4994 60.4298 30.5484 60.4788C47.2086 77.1389 74.22 77.1389 90.8802 60.4788C107.54 43.8187 107.54 16.8072 90.8802 0.14708C90.8311 0.0980266 90.782 0.0491187 90.7327 0.00035174L73.0746 17.6585C73.1242 17.707 73.1736 17.7558 73.2228 17.805C80.1306 24.7129 80.1306 35.9128 73.2228 42.8206C66.3149 49.7285 55.1151 49.7285 48.2072 42.8206C48.158 42.7714 48.1092 42.722 48.0607 42.6724L30.4017 60.3314Z"/>
</mask>
<path d="M30.4017 60.3314L29.6946 59.6243L28.9909 60.328L29.6912 61.0351L30.4017 60.3314ZM90.7327 0.00035174L91.4365 -0.710092L90.7294 -1.41052L90.0256 -0.706755L90.7327 0.00035174ZM73.0746 17.6585L72.3675 16.9514L71.6521 17.6667L72.3757 18.3737L73.0746 17.6585ZM48.0607 42.6724L48.7759 41.9735L48.0689 41.25L47.3536 41.9653L48.0607 42.6724ZM29.6912 61.0351C29.7411 61.0855 29.7912 61.1357 29.8413 61.1859L31.2556 59.7717C31.2076 59.7238 31.1598 59.6758 31.1122 59.6277L29.6912 61.0351ZM29.8413 61.1859C46.892 78.2366 74.5366 78.2366 91.5873 61.1859L90.1731 59.7717C73.9034 76.0413 47.5252 76.0413 31.2556 59.7717L29.8413 61.1859ZM91.5873 61.1859C108.638 44.1352 108.638 16.4906 91.5873 -0.560026L90.1731 0.854187C106.443 17.1238 106.443 43.5021 90.1731 59.7717L91.5873 61.1859ZM91.5873 -0.560026C91.5371 -0.610221 91.4868 -0.660239 91.4365 -0.710092L90.029 0.710801C90.0771 0.758482 90.1252 0.806274 90.1731 0.854187L91.5873 -0.560026ZM90.0256 -0.706755L72.3675 16.9514L73.7817 18.3656L91.4398 0.707459L90.0256 -0.706755ZM73.9299 17.0979C73.878 17.046 73.8258 16.9945 73.7735 16.9433L72.3757 18.3737C72.4225 18.4195 72.4692 18.4657 72.5157 18.5121L73.9299 17.0979ZM73.9299 43.5277C81.2283 36.2293 81.2283 24.3963 73.9299 17.0979L72.5157 18.5121C79.033 25.0295 79.033 35.5962 72.5157 42.1135L73.9299 43.5277ZM47.5001 43.5277C54.7985 50.8261 66.6315 50.8261 73.9299 43.5277L72.5157 42.1135C65.9983 48.6309 55.4316 48.6309 48.9143 42.1135L47.5001 43.5277ZM47.3455 43.3713C47.3966 43.4237 47.4482 43.4758 47.5001 43.5277L48.9143 42.1135C48.8678 42.067 48.8217 42.0204 48.7759 41.9735L47.3455 43.3713ZM47.3536 41.9653L29.6946 59.6243L31.1088 61.0385L48.7678 43.3795L47.3536 41.9653Z" fill="#48474D" mask="url(#path-11-inside-1_1365_7038)"/>
<path d="M62.1821 215.928L61.6846 215.879L61.6846 215.879L62.1821 215.928ZM124.642 218.29L124.143 218.327L124.144 218.338L124.145 218.348L124.642 218.29ZM62.6796 215.978C63.219 210.607 65.4282 202.516 70.2884 195.738C75.1363 188.978 82.6104 183.535 93.7268 183.366L93.7116 182.366C82.2197 182.541 74.4713 188.19 69.4758 195.156C64.4926 202.104 62.2375 210.372 61.6846 215.879L62.6796 215.978ZM93.7268 183.366C104.818 183.197 112.181 188.941 116.906 196.239C121.643 203.556 123.704 212.411 124.143 218.327L125.141 218.253C124.692 212.218 122.596 203.189 117.746 195.696C112.883 188.184 105.229 182.191 93.7116 182.366L93.7268 183.366ZM124.145 218.348C124.784 223.806 123.903 232.018 119.207 238.892C114.531 245.737 106.024 251.326 91.256 251.497L91.2676 252.497C106.317 252.323 115.149 246.605 120.032 239.456C124.896 232.336 125.797 223.867 125.139 218.232L124.145 218.348ZM91.256 251.497C83.8737 251.582 78.3562 250.065 74.242 247.606C70.1297 245.149 67.3862 241.73 65.5822 237.955C61.9639 230.382 62.136 221.393 62.6796 215.978L61.6846 215.879C61.1362 221.341 60.9397 230.558 64.6799 238.386C66.5553 242.311 69.4229 245.891 73.729 248.465C78.0333 251.037 83.7415 252.583 91.2676 252.497L91.256 251.497Z" fill="#9FBFFF"/>
</svg>
