<svg width="21" height="20" viewBox="0 0 21 20" fill="currentColor" xmlns="http://www.w3.org/2000/svg">
<path fillRule="evenodd" clipRule="evenodd" d="M9.25024 4.3125C8.87055 4.3125 8.56274 4.6203 8.56274 5C8.56274 5.3797 8.87055 5.6875 9.25024 5.6875L10.8699 5.6875L8.7137 14.3125H6.75024C6.37055 14.3125 6.06274 14.6203 6.06274 15C6.06274 15.3797 6.37055 15.6875 6.75024 15.6875H11.7502C12.1299 15.6875 12.4377 15.3797 12.4377 15C12.4377 14.6203 12.1299 14.3125 11.7502 14.3125H10.131L12.2873 5.6875L14.2502 5.6875C14.6299 5.6875 14.9377 5.3797 14.9377 5C14.9377 4.6203 14.6299 4.3125 14.2502 4.3125H9.25024Z"/>
</svg>
