<svg width="16" height="16" viewBox="0 0 16 16" fill="none" xmlns="http://www.w3.org/2000/svg">
  <path
    d="M6.99992 13.2654V2.73203C6.99992 1.73203 6.57325 1.33203 5.51325 1.33203H2.81992C1.75992 1.33203 1.33325 1.73203 1.33325 2.73203V13.2654C1.33325 14.2654 1.75992 14.6654 2.81992 14.6654H5.51325C6.57325 14.6654 6.99992 14.2654 6.99992 13.2654Z"
    stroke="#A9A9AB" strokeWidth="1.2" strokeLinecap="round" strokeLinejoin="round" />
  <path
    d="M14.6667 8.5987V2.73203C14.6667 1.73203 14.24 1.33203 13.18 1.33203H10.4867C9.42667 1.33203 9 1.73203 9 2.73203V8.5987C9 9.5987 9.42667 9.9987 10.4867 9.9987H13.18C14.24 9.9987 14.6667 9.5987 14.6667 8.5987Z"
    stroke="#A9A9AB" strokeWidth="1.2" strokeLinecap="round" strokeLinejoin="round" />
</svg>
  