<svg width="16" height="16" viewBox="0 0 16 16" fill="none" xmlns="http://www.w3.org/2000/svg">
  <path
    d="M13.2666 9H2.73325C1.73325 9 1.33325 9.42667 1.33325 10.4867V13.18C1.33325 14.24 1.73325 14.6667 2.73325 14.6667H13.2666C14.2666 14.6667 14.6666 14.24 14.6666 13.18V10.4867C14.6666 9.42667 14.2666 9 13.2666 9Z"
    stroke="#A9A9AB" strokeWidth="1.2" strokeLinecap="round" strokeLinejoin="round" />
  <path
    d="M13.2666 1.33203H2.73325C1.73325 1.33203 1.33325 1.7587 1.33325 2.8187V5.51203C1.33325 6.57203 1.73325 6.9987 2.73325 6.9987H13.2666C14.2666 6.9987 14.6666 6.57203 14.6666 5.51203V2.8187C14.6666 1.7587 14.2666 1.33203 13.2666 1.33203Z"
    stroke="#A9A9AB" strokeWidth="1.2" strokeLinecap="round" strokeLinejoin="round" />
</svg>
  