<svg width="16" height="17" viewBox="0 0 16 17" fill="none" xmlns="http://www.w3.org/2000/svg">
  <path
    d="M10.6555 7.5864L10.4045 7.73188C10.3285 7.55883 10.2345 7.3955 10.1249 7.2443L10.3783 7.09741L13.4897 5.29415L13.7698 5.7814L10.6555 7.5864ZM9.69416 6.41557L9.55025 6.66583C9.40043 6.55572 9.23852 6.46115 9.06686 6.38451L9.21208 6.13199L11.0084 3.00814L11.4923 3.28865L9.69416 6.41557ZM8.27863 5.88274V6.17277C8.18709 6.16309 8.09413 6.15813 8 6.15813C7.90587 6.15813 7.8129 6.16309 7.72135 6.17277V5.88314V2.27344H8.27863V5.88274ZM6.78794 6.13244L6.93298 6.38458C6.76146 6.46118 6.59967 6.55567 6.44995 6.66568L6.30585 6.41514L4.50741 3.28827L4.9908 3.00808L6.78794 6.13244ZM5.62174 7.09704L5.87532 7.24398C5.76566 7.39518 5.67165 7.55851 5.59566 7.73157L5.3445 7.586L2.23023 5.78104L2.51032 5.29408L5.62174 7.09704ZM5.09378 8.5186H5.38801C5.37874 8.60861 5.37399 8.69996 5.37399 8.79241C5.37399 8.89025 5.37931 8.98686 5.38968 9.08195H5.09339H1.5V8.5186H5.09378ZM5.34413 10.0145L5.60111 9.86558C5.67802 10.0383 5.77293 10.2013 5.88346 10.352L5.62133 10.5039L2.51036 12.3068L2.23017 11.8195L5.34413 10.0145ZM6.30546 11.1858L6.4562 10.9237C6.60623 11.0333 6.76829 11.1273 6.94004 11.2033L6.78753 11.4685L4.99073 14.5929L4.50705 14.3126L6.30546 11.1858ZM7.72096 11.7178V11.412C7.81264 11.4217 7.90573 11.4266 8 11.4266C8.094 11.4266 8.18684 11.4217 8.27826 11.412V11.7182V15.3275H7.72096V11.7178ZM9.21171 11.4689L9.05918 11.2037C9.23097 11.1277 9.39307 11.0337 9.54313 10.9242L9.69336 11.1854L11.4918 14.3126L11.0081 14.5929L9.21171 11.4689ZM10.3775 10.5035L10.1164 10.3522C10.2268 10.2016 10.3217 10.0388 10.3986 9.86625L10.6551 10.0149L13.769 11.8195L13.4889 12.3068L10.3775 10.5035ZM10.6102 9.08232C10.6206 8.98711 10.626 8.89038 10.626 8.79241C10.626 8.70009 10.6212 8.60888 10.612 8.51899H10.9062H14.4992V9.08232H10.9058H10.6102Z"
    fill="#545356" stroke="#A9A9AB" />
</svg>
  