<svg width="132" height="77" viewBox="0 0 132 77" fill="none" xmlns="http://www.w3.org/2000/svg">
<rect y="0.734375" width="132" height="76" rx="8" fill="#F4F4F4"/>
<path d="M48.0903 38.706C59.1277 38.706 58.7236 20.2188 66.7639 20.2188H67.5161" stroke="#FF6CA1" strokeWidth="2" strokeLinecap="round"/>
<path d="M48.0903 38.694C59.1277 38.694 64.1408 31.4531 67.1954 31.4531H67.5161" stroke="#FF6CA1" strokeWidth="2" strokeLinecap="round"/>
<path d="M48.0903 38.6732C59.1277 38.6732 64.1408 45.9141 67.1954 45.9141H67.5161" stroke="#FF6CA1" strokeWidth="2" strokeLinecap="round"/>
<path d="M48.0903 38.6612C59.1277 38.6612 58.7236 57.1484 66.7639 57.1484H67.5161" stroke="#FF6CA1" strokeWidth="2" strokeLinecap="round"/>
<rect x="15.7715" y="34.0781" width="31.5625" height="9.19531" rx="4.59766" stroke="#FF6CA1" strokeWidth="2"/>
<path d="M86.5801 45.9844H102.58" stroke="#FF6CA1" strokeWidth="2" strokeLinecap="round"/>
<path d="M86.5801 57.2578H102.58" stroke="#FF6CA1" strokeWidth="2" strokeLinecap="round"/>
<path d="M72.166 45.9844H82.166" stroke="#949395" strokeWidth="5" strokeLinecap="round"/>
<path d="M72.166 57.1562H82.166" stroke="#949395" strokeWidth="5" strokeLinecap="round"/>
<path d="M86.5793 20.2188H102.579" stroke="#FF6CA1" strokeWidth="2" strokeLinecap="round"/>
<path d="M72.166 20.2344H82.166" stroke="#949395" strokeWidth="5" strokeLinecap="round"/>
<path d="M72.166 31.4609H82.166" stroke="#949395" strokeWidth="5" strokeLinecap="round"/>
<path d="M107.229 20.2188H117.229" stroke="#949395" strokeWidth="5" strokeLinecap="round"/>
<path d="M86.5801 31.4609H102.58" stroke="#FF6CA1" strokeWidth="2" strokeLinecap="round"/>
<path d="M107.229 31.4609H117.229" stroke="#949395" strokeWidth="5" strokeLinecap="round"/>
<path d="M107.229 45.9844H117.229" stroke="#949395" strokeWidth="5" strokeLinecap="round"/>
<path d="M107.229 57.1562H117.229" stroke="#949395" strokeWidth="5" strokeLinecap="round"/>
</svg>
