<svg width="132" height="77" viewBox="0 0 132 77" fill="none" xmlns="http://www.w3.org/2000/svg">
<rect y="0.734375" width="132" height="76" rx="8" fill="#F4F4F4"/>
<path d="M65.9778 27.0391C65.9778 30.0729 65.9778 32.5022 65.9778 33.9705C65.9778 34.8268 66.672 35.5204 67.5283 35.5204L97.1253 35.5204C97.9816 35.5204 98.6758 36.2136 98.6758 37.0699C98.6758 38.476 98.6758 40.4332 98.6758 41.1334" stroke="#FF6CA1" strokeWidth="2" strokeLinecap="round"/>
<path d="M66.0183 27.0391C66.0183 30.0453 66.0183 32.454 66.0183 33.9136C66.0183 34.7699 65.3241 35.4639 64.4678 35.4639L34.8707 35.4639C34.0145 35.4639 33.3203 36.1571 33.3203 37.0133C33.3203 38.4093 33.3203 40.3456 33.3203 41.0394" stroke="#FF6CA1" strokeWidth="2" strokeLinecap="round"/>
<rect x="50.0039" y="16.8438" width="31.5625" height="9.19531" rx="4.59766" stroke="#FF6CA1" strokeWidth="2"/>
<path d="M98.6758 50.4531L98.6758 57.1953" stroke="#FF6CA1" strokeWidth="2" strokeLinecap="round"/>
<path d="M77.0859 50.4531L77.0859 57.1953" stroke="#FF6CA1" strokeWidth="2" strokeLinecap="round"/>
<path d="M55.0039 50.4531L55.0039 57.1953" stroke="#FF6CA1" strokeWidth="2" strokeLinecap="round"/>
<path d="M33.3203 50.4531L33.3203 57.1953" stroke="#FF6CA1" strokeWidth="2" strokeLinecap="round"/>
<path d="M93.832 45.8047H103.832" stroke="#949395" strokeWidth="5" strokeLinecap="round"/>
<path d="M93.832 61.5781H103.832" stroke="#949395" strokeWidth="5" strokeLinecap="round"/>
<path d="M72.2422 45.8047H82.2422" stroke="#949395" strokeWidth="5" strokeLinecap="round"/>
<path d="M72.2422 61.5781H82.2422" stroke="#949395" strokeWidth="5" strokeLinecap="round"/>
<path d="M50.1602 45.8047H60.1602" stroke="#949395" strokeWidth="5" strokeLinecap="round"/>
<path d="M50.1602 61.5781H60.1602" stroke="#949395" strokeWidth="5" strokeLinecap="round"/>
<path d="M28.4766 45.8047H38.4766" stroke="#949395" strokeWidth="5" strokeLinecap="round"/>
<path d="M28.4805 61.5781H38.4805" stroke="#949395" strokeWidth="5" strokeLinecap="round"/>
<path d="M77.0859 35.9375L77.0859 41.1322" stroke="#FF6CA1" strokeWidth="2" strokeLinecap="round"/>
<path d="M55.0039 35.9375L55.0039 41.1322" stroke="#FF6CA1" strokeWidth="2" strokeLinecap="round"/>
</svg>
