<svg width="132" height="77" viewBox="0 0 132 77" fill="none" xmlns="http://www.w3.org/2000/svg">
<rect y="0.734375" width="132" height="76" rx="8" fill="#F4F4F4"/>
<path d="M65.9778 27.0625C65.9778 35.0704 98.6758 34.7773 98.6758 40.6107L98.6758 41.1564" stroke="#FF6CA1" strokeWidth="2" strokeLinecap="round"/>
<path d="M66.0183 27.0625C66.0183 35.017 33.3203 34.7258 33.3203 40.5204L33.3203 41.0625" stroke="#FF6CA1" strokeWidth="2" strokeLinecap="round"/>
<path d="M66.0821 27.1953C66.0821 35.1499 76.9282 38.7627 76.9282 40.9642L76.9282 41.1953" stroke="#FF6CA1" strokeWidth="2" strokeLinecap="round"/>
<path d="M66.082 27.1953C66.082 35.1499 55.2358 38.7627 55.2358 40.9642L55.2358 41.1953" stroke="#FF6CA1" strokeWidth="2" strokeLinecap="round"/>
<rect x="50.0039" y="16.8672" width="31.5625" height="9.19531" rx="4.59766" stroke="#FF6CA1" strokeWidth="2"/>
<path d="M98.6758 50.0859L98.6758 57.2494" stroke="#FF6CA1" strokeWidth="2" strokeLinecap="round"/>
<path d="M77.0859 50.0859L77.0859 57.2494" stroke="#FF6CA1" strokeWidth="2" strokeLinecap="round"/>
<path d="M55.0039 50.0859L55.0039 57.2494" stroke="#FF6CA1" strokeWidth="2" strokeLinecap="round"/>
<path d="M33.3203 50.0859L33.3203 57.2494" stroke="#FF6CA1" strokeWidth="2" strokeLinecap="round"/>
<path d="M93.832 45.9062H103.832" stroke="#949395" strokeWidth="5" strokeLinecap="round"/>
<path d="M93.832 61.6016H103.832" stroke="#949395" strokeWidth="5" strokeLinecap="round"/>
<path d="M72.2422 45.9062H82.2422" stroke="#949395" strokeWidth="5" strokeLinecap="round"/>
<path d="M72.2422 61.6016H82.2422" stroke="#949395" strokeWidth="5" strokeLinecap="round"/>
<path d="M50.1602 45.9062H60.1602" stroke="#949395" strokeWidth="5" strokeLinecap="round"/>
<path d="M50.1602 61.6016H60.1602" stroke="#949395" strokeWidth="5" strokeLinecap="round"/>
<path d="M28.4766 45.9062H38.4766" stroke="#949395" strokeWidth="5" strokeLinecap="round"/>
<path d="M28.4805 61.6016H38.4805" stroke="#949395" strokeWidth="5" strokeLinecap="round"/>
</svg>
