<svg width="132" height="77" viewBox="0 0 132 77" fill="none" xmlns="http://www.w3.org/2000/svg">
<rect y="0.734375" width="132" height="76" rx="8" fill="#F4F4F4"/>
<path d="M47.5977 38.7529C52.4314 38.7529 56.1519 38.7529 57.9997 38.7529C58.7112 38.7529 59.2876 38.1761 59.2876 37.4646V21.5539C59.2876 20.8424 59.8627 20.2656 60.5742 20.2656C62.4692 20.2656 65.9069 20.2656 67.0239 20.2656" stroke="#FF6CA1" strokeWidth="2" strokeLinecap="round"/>
<path d="M47.5977 38.708C52.4314 38.708 56.1519 38.708 57.9997 38.708C58.7112 38.708 59.2876 39.2848 59.2876 39.9963V55.907C59.2876 56.6185 59.8627 57.1953 60.5742 57.1953C62.4692 57.1953 65.9069 57.1953 67.0239 57.1953" stroke="#FF6CA1" strokeWidth="2" strokeLinecap="round"/>
<rect x="15.3164" y="34.1328" width="31.5625" height="9.19531" rx="4.59766" stroke="#FF6CA1" strokeWidth="2"/>
<path d="M86.1172 20.2812H102.117" stroke="#FF6CA1" strokeWidth="2" strokeLinecap="round"/>
<path d="M86.1172 32.7031H102.117" stroke="#FF6CA1" strokeWidth="2" strokeLinecap="round"/>
<path d="M86.1172 44.7031H102.117" stroke="#FF6CA1" strokeWidth="2" strokeLinecap="round"/>
<path d="M86.1172 57.1562H102.117" stroke="#FF6CA1" strokeWidth="2" strokeLinecap="round"/>
<path d="M71.7266 20.2812H81.7266" stroke="#949395" strokeWidth="5" strokeLinecap="round"/>
<path d="M71.7266 32.7109H81.7266" stroke="#949395" strokeWidth="5" strokeLinecap="round"/>
<path d="M71.7266 44.7031H81.7266" stroke="#949395" strokeWidth="5" strokeLinecap="round"/>
<path d="M71.7266 57.1562H81.7266" stroke="#949395" strokeWidth="5" strokeLinecap="round"/>
<path d="M106.84 20.2656H116.84" stroke="#949395" strokeWidth="5" strokeLinecap="round"/>
<path d="M106.84 32.7031H116.84" stroke="#949395" strokeWidth="5" strokeLinecap="round"/>
<path d="M106.84 44.7031H116.84" stroke="#949395" strokeWidth="5" strokeLinecap="round"/>
<path d="M106.84 57.1562H116.84" stroke="#949395" strokeWidth="5" strokeLinecap="round"/>
<path d="M59.5554 32.7188L67.0235 32.7187" stroke="#FF6CA1" strokeWidth="2" strokeLinecap="round"/>
<path d="M59.5547 44.7031L67.0228 44.7031" stroke="#FF6CA1" strokeWidth="2" strokeLinecap="round"/>
</svg>
