<svg width="99" height="114" viewBox="0 0 99 114" fill="none" xmlns="http://www.w3.org/2000/svg">
<path d="M15.3818 19.6077L16.9828 17.5601L30.3198 29.0882L29.5107 30.1229L15.3818 19.6077Z" fill="#29282C"/>
<path d="M13.0957 25.7217L13.9536 23.2681L30.2884 29.8972L29.8549 31.1371L13.0957 25.7217Z" fill="#29282C"/>
<path d="M13.6865 22.4022L14.9587 20.1356L29.9197 29.5264L29.2768 30.6719L13.6865 22.4022Z" fill="#29282C"/>
<path d="M26.5188 38.1073C28.7715 43.1208 34.4347 45.7083 39.0845 43.6189C47.6446 40.4559 45.6097 35.5547 43.3566 30.5415C41.104 25.528 35.5088 23.1575 30.8589 25.2468C26.2092 27.3361 24.266 33.094 26.5188 38.1073Z" fill="#9FBFFF"/>
<path d="M42.6136 37.7759L40.9224 35.3083L40.499 38.1537L42.6136 37.7759Z" fill="#538CFF"/>
<path d="M43.1614 35.2738C42.8228 35.4259 42.4223 35.2688 42.2668 34.9228C42.1114 34.5768 42.2598 34.173 42.5984 34.0208C42.937 33.8687 43.3375 34.0258 43.4929 34.3718C43.6484 34.7178 43.5 35.1217 43.1614 35.2738Z" fill="#29282C"/>
<path d="M38.2874 37.3269C37.9488 37.479 37.5483 37.3219 37.3928 36.9759C37.2373 36.6299 37.3858 36.2261 37.7244 36.0739C38.0629 35.9218 38.4634 36.0789 38.6189 36.4249C38.7744 36.7709 38.6259 37.1748 38.2874 37.3269Z" fill="#29282C"/>
<path d="M30.952 40.3265C30.2105 41.1638 28.679 40.9915 27.5312 39.9418C26.3834 38.892 26.0541 37.3623 26.7956 36.525C27.5371 35.6877 29.0686 35.86 30.2164 36.9097C31.3642 37.9595 31.6935 39.4893 30.952 40.3265Z" fill="#538CFF"/>
<path d="M38.4475 39.2912C38.0988 39.4478 37.6864 39.286 37.5263 38.9297C37.3662 38.5734 37.5191 38.1576 37.8677 38.0009C38.2164 37.8442 38.6288 38.0061 38.7889 38.3624C38.949 38.7187 38.7961 39.1345 38.4475 39.2912Z" fill="#538CFF"/>
<path d="M43.9074 37.4146C43.5588 37.5713 43.1464 37.4094 42.9863 37.0531C42.8262 36.6968 42.979 36.281 43.3277 36.1243C43.6763 35.9676 44.0888 36.1295 44.2489 36.4858C44.409 36.8421 44.2561 37.2579 43.9074 37.4146Z" fill="#538CFF"/>
<path d="M33.0588 33.8079C38.5744 33.6297 41.9308 30.3843 41.745 27.9026C41.7052 27.3734 38.827 24.8256 36.9053 24.6919C31.2901 23.0197 26.0912 27.1457 25.0202 31.2682C23.4758 38.5186 28.8662 42.4664 31.8095 43.4543C31.8095 43.4543 32.1232 42.0426 31.15 40.2753C30.8545 40.0714 30.9259 40.5775 30.0546 40.466C27.3472 40.1196 26.3315 37.5856 27.3148 36.7358C28.8453 35.4126 30.591 37.0623 31.3118 38.6664C31.7532 38.3709 31.4923 37.1778 31.0597 36.5872C30.2866 35.5312 28.8861 34.4761 28.9322 33.9196C29.1995 33.3671 30.3875 33.8943 33.0588 33.8079Z" fill="#29282C"/>
<path d="M54.8554 41.8936C52.9089 41.8936 46.4793 44.5775 43.5083 45.9193C43.7958 46.3984 44.6585 47.6711 45.8087 48.9275C47.2464 50.4979 53.8379 65.7159 54.8554 70.3166C55.8729 74.9174 56.7134 82.2167 57.2885 85.9548C57.7486 88.9454 61.2991 98.0098 63.0173 102.168C69.5469 100.558 76.5467 94.3305 79.2306 91.4183L73.9221 72.617C76.2667 74.5268 82.0752 78.2309 86.5521 77.7708C92.1482 77.1957 93.1657 74.1875 93.7408 72.617C94.3159 71.0466 95.5988 67.4412 96.8817 63.8579C98.1646 60.2746 98.3194 50.9403 98.3194 47.357C98.3194 43.7737 97.9655 30.7456 97.8107 29.5954C97.7647 29.2533 84.4587 31.1286 81.9734 31.2764L83.2563 43.0438C83.2563 52.2896 82.725 52.9483 80.9559 58.1069C78.2795 56.7722 72.0375 53.2142 68.4808 49.6574C64.0348 45.2115 57.2885 41.8936 54.8554 41.8936Z" fill="#FF6CA1"/>
<path d="M95.3879 22.2609C96.693 24.9757 95.1773 28.7307 93.8086 29.9714C89.4941 30.8119 87.0388 30.9446 82.5031 31.2647C81.5648 30.4205 79.4467 27.777 78.4845 23.9568C77.5228 20.1367 81.2737 20.7829 83.2697 21.5835C83.9577 21.7246 85.7329 21.3237 87.3282 18.5914C88.9238 15.859 87.2052 13.6578 86.1466 12.8987C85.5308 12.3846 84.788 11.3108 86.7433 11.1281C90.5792 10.8681 93.0517 15.4859 93.8086 17.8273C94.9318 18.3984 94.9531 20.6055 94.823 21.6376L95.3879 22.2609Z" fill="#9FBFFF"/>
<path d="M80.4876 17.8923C81.0959 19.1284 82.3465 20.7714 82.8959 21.4385L78.3748 22.802C76.6106 14.8689 79.7272 16.3471 80.4876 17.8923Z" fill="#9FBFFF"/>
<path fillRule="evenodd" clipRule="evenodd" d="M28.7248 50.4299C26.1 52.4352 20.3998 56.8992 18.3649 58.1732C15.8212 59.7658 7.94678 71.6217 6.75235 77.5053C5.55791 83.389 1.9525 95.0016 1.15621 96.8596C0.359925 98.7176 -0.989341 105.928 1.15621 110.065C2.72667 113.092 5.00812 113.05 6.74292 113.019C7.37823 113.007 7.94019 112.997 8.36709 113.139C9.95966 113.67 11.5744 113.936 12.9015 113.936C14.1153 113.936 20.3799 112.844 23.878 112.235C24.2047 112.177 24.5073 112.125 24.7795 112.078C27.3276 111.635 30.1913 111.893 31.3046 112.078C31.7543 111.104 32.9457 108.968 34.1135 108.207C34.8413 107.733 37.7548 107.495 40.8263 107.244C43.9181 106.992 47.1705 106.726 48.5131 106.194C47.5328 102.375 45.4916 94.307 45.1731 92.5906C44.0198 86.3751 40.3011 73.8115 35.0425 63.7694C34.9443 63.5818 34.7515 63.2275 34.4918 62.7515C32.8952 59.8216 28.7248 52.1424 28.7248 50.4299ZM27.3835 83.5881C28.342 86.2057 30.2943 91.666 30.4359 92.5685C30.5775 93.4709 31.3207 96.6901 31.6746 98.1867C29.5437 97.9288 25.0167 97.4258 23.955 97.4789C22.8933 97.532 20.5191 97.1767 19.4648 96.9923C20.8583 93.962 23.8931 87.5872 24.884 86.3309C25.8749 85.0745 26.9632 83.9787 27.3835 83.5881Z" fill="#FF6CA1"/>
<path d="M35.8333 102.08L31.6748 111.348L37.249 112.277C41.2375 112.564 49.8259 113.117 52.2678 113.029C54.7098 112.94 54.7744 111.871 54.5019 111.348C54.9588 111.348 56.0148 111.272 56.581 110.972C57.7489 110.405 57.3773 109.497 57.0456 109.114C57.2959 109.114 58.24 109.136 58.7487 108.03C59.2614 106.915 57.5468 106.445 56.581 106.393C56.8611 106.046 57.1783 105.269 56.205 104.933C54.9885 104.513 49.2154 103.96 49.2154 103.584C49.0207 102.575 47.5857 102.161 46.8929 102.08C44.1572 101.519 39.9254 101.77 35.8333 102.08Z" fill="#9FBFFF"/>
<path fillRule="evenodd" clipRule="evenodd" d="M75.7289 15.7377C71.6723 15.4151 68.481 12.0209 68.481 7.88139C68.481 3.52862 72.0094 0 76.362 0C80.627 0 84.101 3.38776 84.2395 7.61915C84.5151 9.03619 85.1066 11.6411 85.9568 13.0755C87.1048 15.0112 88.9823 17.2223 90.574 18.9509L87.2557 22.2715C85.5251 20.6816 83.3016 18.8066 81.2857 17.6204C79.6591 16.6633 76.5673 15.9262 75.7289 15.7377Z" fill="white"/>
<path d="M41.9651 39.8759L39.3462 40.4067C39.6023 40.7022 40.2571 41.1362 40.7574 41.1207C41.5838 41.0955 41.8182 40.3939 41.9651 39.8759Z" stroke="#29282C" strokeWidth="0.5"/>
<path d="M40.9874 35.4016L42.6786 37.7838L40.5693 38.1116" stroke="#29282C" strokeWidth="0.5" strokeLinecap="round"/>
<path d="M37.0745 33.9304C36.4919 34.1203 35.831 34.608 35.5952 35.157" stroke="#29282C" strokeWidth="0.5" strokeLinecap="round"/>
<path d="M41.7876 32.4879C42.3605 32.2697 43.1829 32.2335 43.7137 32.5118" stroke="#29282C" strokeWidth="0.5" strokeLinecap="round"/>
<path d="M30.107 38.0705C29.6184 37.6547 28.5067 37.1521 27.8799 37.1835" stroke="#29282C" strokeWidth="0.5" strokeLinecap="round"/>
<path d="M28.457 37.3388C28.3282 37.6595 28.262 38.3209 28.3852 38.6456" stroke="#29282C" strokeWidth="0.5" strokeLinecap="round"/>
<path d="M17.9964 97.336C17.4167 97.1586 15.7152 97.3059 13.5468 99.3121C11.3783 101.318 9.27446 102.654 8.49365 103.072" stroke="#29282C" strokeWidth="0.5" strokeLinecap="round"/>
<path d="M17.4834 98.9184C17.2348 98.9303 16.5109 99.3471 15.6053 100.922C14.6996 102.496 13.8153 103.674 13.4863 104.066" stroke="#29282C" strokeWidth="0.5" strokeLinecap="round"/>
<path d="M20.5178 63.0691C20.193 65.1527 23.4391 69.0581 24.7512 73.1036C25.6689 75.9331 25.2379 78.2132 26.9853 81.8628" stroke="#29282C" strokeWidth="0.5" strokeLinecap="round"/>
<path d="M55.5854 44.6584C58.7679 45.5299 62.6596 53.8414 64.3004 57.8636C65.9412 61.8857 73.7545 66.8435 72.9312 70.7373" stroke="#29282C" strokeWidth="0.5" strokeLinecap="round"/>
<path d="M81.8091 58.8222C82.6279 58.9213 84.6881 59.4115 86.3784 60.5793C88.4913 62.0396 89.0938 63.2385 89.5251 63.3133" stroke="#29282C" strokeWidth="0.5" strokeLinecap="round"/>
<path d="M48.3968 103.606C47.2169 103.429 45.9283 103.177 44.8135 103.23" stroke="#29282C" strokeWidth="0.5" strokeLinecap="round"/>
<path d="M41.8495 43.4197C41.9672 44.0245 42.3892 45.437 43.1324 46.251M31.387 44.2603C31.4017 45.3808 31.3693 47.8524 31.1216 48.7726L31.387 44.2603ZM33.3779 44.7911C33.4663 46.0444 33.5902 48.6575 33.3779 49.0822V44.7911ZM35.5898 45.145C35.6632 46.4425 35.8729 49.1884 36.1206 49.79L35.5898 45.145ZM37.7132 45.145C37.7866 46.0002 37.9963 47.817 38.2441 48.2417L37.7132 45.145ZM39.9251 44.7911C40.1242 45.7644 40.6197 47.817 41.009 48.2417L39.9251 44.7911Z" stroke="#29282C" strokeWidth="0.5" strokeLinecap="round"/>
<path d="M55.8288 106.282C54.1477 105.818 50.5202 105.132 48.5737 105.353" stroke="#29282C" strokeWidth="0.5" strokeLinecap="round"/>
<path d="M55.8286 108.605C54.2909 108.182 50.973 107.558 49.1929 107.759" stroke="#29282C" strokeWidth="0.5" strokeLinecap="round"/>
<path d="M53.7492 110.817C52.3756 110.436 49.4117 109.874 47.8213 110.055" stroke="#29282C" strokeWidth="0.5" strokeLinecap="round"/>
<path d="M88.7198 19.509C84.9742 16.2649 77.6514 9.27672 78.3238 7.27715C79.1644 4.7777 82.814 7.03384 83.3449 8.86973C83.8757 10.7056 78.7441 15.9478 76.9746 15.3064C75.2051 14.6649 73.0153 10.5287 75.2493 9.9978C77.0365 9.57312 83.5143 17.0022 87.4369 20.5707" stroke="#29282C" strokeWidth="0.5" strokeLinecap="round"/>
<path d="M90.9121 18.5358L86.7954 22.6217L89.8112 25.6602L93.9279 21.5743L90.9121 18.5358Z" fill="#29282C"/>
</svg>
