<svg width="141" height="129" viewBox="0 0 141 129" fill="none" xmlns="http://www.w3.org/2000/svg">
<path d="M38.4547 43.5818L35.6205 37.6L13.2048 41.6262L12.8184 43.5818H13.9778H20.8056H38.4547Z" fill="#29282C"/>
<rect x="49.5635" y="50.4181" width="88.0181" height="64.0908" rx="10" fill="white"/>
<rect y="4.27271" width="62.3817" height="39.309" rx="10" fill="#EAEAEA"/>
<path d="M36.6302 43.5818L34.0922 37.6L14.0189 41.6262L13.6729 43.5818H14.7111H20.8254H36.6302Z" fill="#29282C"/>
<path d="M75.2315 54.1053C75.2315 52.391 67.9889 51.5161 63.9011 51.2929C62.3015 51.2055 61.7039 51.2927 60.5686 53.8375C58.8357 57.7214 56.703 62.543 55.5033 67.2307C52.5707 81.6953 58.078 87.9635 64.0344 90.6689C73.7652 95.0888 83.6293 90.1332 88.1614 86.1152L100.558 114.509H139.348C139.481 111.161 140.628 102.241 140.948 99.7763C141.348 96.6959 139.348 85.8473 138.415 82.2312C137.482 78.615 135.482 77.1417 133.616 75.4006C131.75 73.6595 130.95 72.4541 128.818 69.3736C126.685 66.2932 122.419 62.2752 120.553 61.2038C118.687 60.1323 113.355 57.5876 104.824 57.0519C96.2926 56.5161 90.8274 59.7305 88.2947 61.0698C85.7621 62.4091 83.496 64.8199 82.5629 67.2307C81.8164 69.1593 80.3857 70.8022 79.7636 71.3826C78.6084 72.4094 75.7913 74.3291 73.7652 73.7934C71.2325 73.1237 72.1656 69.7754 73.232 66.2932C74.2984 62.8109 75.2315 56.2483 75.2315 54.1053Z" fill="#538CFF"/>
<path d="M86.5529 48.1173C86.9169 45.5126 89.0712 41.6127 91.1919 39.309L94.9032 39.9866L102.856 42.5613L103.386 45.0006C102.502 46.0395 100.232 48.2974 100.072 50.4211C99.8073 53.9444 104.069 54.1485 104.049 54.2154C103.519 55.9771 104.977 58.4163 105.109 59.5004C104.932 60.72 103.492 63.3219 99.1446 63.9723C94.7971 64.6228 92.4732 62.4365 91.8547 61.2621C91.9872 58.8229 92.3848 55.7061 92.3848 55.7061C92.3848 55.7061 89.2038 54.622 87.6133 53.5379C86.0811 52.4936 86.1553 50.9631 86.5529 48.1173Z" fill="#9FBFFF"/>
<path d="M97.2997 36.8154L96.4935 32.4727L90.5815 39.9738C90.5815 39.9738 91.2534 41.1582 92.1939 41.6846C96.0904 43.8654 98.7776 42.869 101.331 43.7902C103.373 44.5272 102.463 45.7642 102.002 46.2906C100.39 48.133 97.8371 51.6862 100.524 53.7918C103.077 55.7921 104.69 53.9672 105.361 53.0022L111.945 44.4482L108.989 44.9746L109.258 41.0266H104.958L102.137 35.7626L97.2997 36.8154Z" fill="#29282C"/>
<path d="M102.401 47.9279C100.854 47.5003 99.6266 49.0461 99.2798 49.8448C99.1758 50.0845 98.8897 51.2826 99.5399 51.7618C100.84 52.7203 102.574 51.5622 102.921 50.9232C103.571 49.9647 103.701 48.2873 102.401 47.9279Z" fill="#9FBFFF"/>
<path d="M63.1777 50.6732L62.7818 52.6502L74.5279 53.8363C74.5279 53.8363 75.0559 50.9369 77.2996 48.8283C80.7942 45.5439 81.3909 44.0401 81.127 43.5568C80.551 42.5026 76.5077 44.4793 76.5077 44.4793C76.5077 44.4793 79.8072 34.4637 78.0914 33.673C77.4851 33.3935 76.3757 34.5954 76.1117 35.2544C76.2437 34.5515 76.2965 33.0931 75.4518 32.8823C74.6072 32.6714 73.6921 34.1122 73.3402 34.859C73.4721 34.1562 73.5249 32.6977 72.6803 32.4869C71.8356 32.276 71.0965 34.4637 70.5686 35.518C70.6126 34.6394 70.9381 32.7241 70.3046 32.6187C69.5128 32.4869 66.3453 40.6576 63.7057 44.7429C61.594 48.0112 62.4739 50.0582 63.1777 50.6732Z" fill="#9FBFFF"/>
<path d="M100.836 50.0237C101.012 49.5816 101.43 48.765 101.966 48.2489M102.546 47.8545C102.342 47.9342 102.148 48.0744 101.966 48.2489M102.244 50.4181C102.26 49.958 102.227 48.8799 101.966 48.2489" stroke="#29282C" strokeWidth="0.5" strokeLinecap="round"/>
<path d="M70.3121 36.4514L69.2183 39.4101M73.3201 35.0363L71.4059 39.6674M75.9179 35.8082L74.0037 40.182M76.0546 44.0412C74.8241 44.2985 71.9528 45.2504 70.3121 46.9999" stroke="#29282C" strokeWidth="0.5" strokeLinecap="round"/>
<path d="M86.6285 70.9438C86.6377 70.806 86.5334 70.6869 86.3956 70.6777C86.2579 70.6686 86.1388 70.7728 86.1296 70.9106L86.6285 70.9438ZM87.585 84.4208C87.6313 84.5509 87.7743 84.6188 87.9044 84.5725C88.0345 84.5262 88.1024 84.3832 88.0561 84.2531L87.585 84.4208ZM108.896 72.5655C108.857 72.433 108.718 72.3574 108.586 72.3965C108.453 72.4356 108.377 72.5747 108.417 72.7071L108.896 72.5655ZM112.846 78.4998C112.962 78.5744 113.117 78.5407 113.191 78.4245C113.266 78.3083 113.232 78.1536 113.116 78.079L112.846 78.4998ZM110.05 78.3165C109.919 78.2707 109.777 78.3393 109.731 78.4695C109.685 78.5998 109.754 78.7425 109.884 78.7882L110.05 78.3165ZM124.644 87.4922L124.837 87.3333L124.644 87.4922ZM127.932 101.691C127.932 101.829 128.044 101.941 128.182 101.941C128.32 101.941 128.432 101.829 128.432 101.691H127.932ZM86.1296 70.9106C85.9543 73.5495 85.995 79.9542 87.585 84.4208L88.0561 84.2531C86.5011 79.885 86.4544 73.5636 86.6285 70.9438L86.1296 70.9106ZM108.417 72.7071C108.778 73.9292 110.16 76.7754 112.846 78.4998L113.116 78.079C110.56 76.4379 109.234 73.7098 108.896 72.5655L108.417 72.7071ZM109.884 78.7882C112.48 79.6998 115.713 81.4161 118.511 83.1626C119.908 84.0349 121.193 84.9121 122.231 85.6964C123.274 86.4844 124.052 87.1673 124.451 87.6511L124.837 87.3333C124.398 86.8011 123.579 86.0886 122.532 85.2975C121.48 84.5026 120.183 83.617 118.776 82.7384C115.964 80.9831 112.695 79.2454 110.05 78.3165L109.884 78.7882ZM124.451 87.6511C125.981 89.5091 126.856 92.3806 127.346 95.1309C127.834 97.8723 127.932 100.452 127.932 101.691H128.432C128.432 100.432 128.333 97.8218 127.838 95.0433C127.345 92.2736 126.452 89.2948 124.837 87.3333L124.451 87.6511Z" fill="#29282C"/>
<circle cx="94.0001" cy="46.9999" r="0.854544" fill="#29282C"/>
<circle cx="94.8545" cy="50.4181" r="0.854544" fill="#538CFF"/>
<circle cx="88.8726" cy="44.4363" r="0.854544" fill="#29282C"/>
<circle cx="87.1636" cy="46.9999" r="0.854544" fill="#538CFF"/>
<path d="M130.488 109.559C131.025 109.245 130.622 107.601 130.354 106.818C133.573 108.697 138.223 107.862 140.145 107.21L139.877 112.821C139.698 114.257 138.911 117.415 137.195 118.563C135.478 119.712 132.813 123.392 131.695 125.089C129.147 128.482 128.074 128.286 127.672 128.09C127.028 127.777 127.627 125.48 128.074 124.436L128.055 124.456C127.156 125.418 125.467 127.227 124.721 126.916C123.97 126.602 124.318 124.784 124.721 123.914C123.782 124.697 122.307 125.741 121.636 125.219C121.185 124.868 121.591 122.957 121.904 122.087C121.368 122.609 120.295 123.392 119.892 123.001C118.903 122.038 121.01 117.911 122.307 115.823C121.859 115.997 120.912 116.267 120.697 115.953C120.429 115.562 121.904 113.474 124.184 112.169C126.464 110.864 129.818 109.95 130.488 109.559Z" fill="#9FBFFF"/>
<path d="M123.054 121.649C123.468 120.807 124.543 118.911 125.535 118.06M125.907 122.978C126.403 122.137 127.644 120.214 128.636 119.256M128.76 123.909C128.967 123.422 129.653 122.128 130.745 120.852M123.55 114.87C124.295 114.072 126.081 112.371 127.272 111.945" stroke="#29282C" strokeWidth="0.5" strokeLinecap="round"/>
<path d="M91.8634 45.7181L89.2998 47.8545L91.8634 48.709V45.7181Z" fill="#538CFF"/>
<path d="M94.2067 43.9361C94.0686 43.9361 93.9567 44.0481 93.9567 44.1861C93.9567 44.3242 94.0686 44.4361 94.2067 44.4361V43.9361ZM96.3569 45.4189C96.4346 45.533 96.5902 45.5625 96.7043 45.4847C96.8183 45.4069 96.8478 45.2514 96.77 45.1373L96.3569 45.4189ZM88.8508 41.6319C88.7132 41.6441 88.6117 41.7655 88.6239 41.903C88.6361 42.0406 88.7575 42.1421 88.8951 42.1299L88.8508 41.6319ZM90.9308 42.7876C91.0295 42.8841 91.1878 42.8824 91.2844 42.7837C91.3809 42.685 91.3792 42.5267 91.2805 42.4301L90.9308 42.7876ZM92.0151 45.9511C92.1187 45.8598 92.1288 45.7018 92.0375 45.5982C91.9463 45.4946 91.7883 45.4845 91.6847 45.5758L92.0151 45.9511ZM89.3691 47.9473L89.2039 47.7597L88.8864 48.0391L89.2843 48.1825L89.3691 47.9473ZM91.6411 49.0318C91.771 49.0786 91.9142 49.0113 91.961 48.8814C92.0079 48.7515 91.9405 48.6083 91.8106 48.5615L91.6411 49.0318ZM88.8729 49.5246L88.9827 49.3L88.6229 49.1241V49.5246H88.8729ZM91.6018 50.8593L91.7658 51.0479L92.0505 50.8004L91.7116 50.6347L91.6018 50.8593ZM89.6172 51.1019L89.7437 50.8863L89.6172 51.1019ZM94.2067 44.4361C94.4482 44.4361 94.8593 44.4863 95.2774 44.6393C95.6959 44.7924 96.0986 45.04 96.3569 45.4189L96.77 45.1373C96.4329 44.6426 95.926 44.3442 95.4493 44.1698C94.9723 43.9952 94.5026 43.9361 94.2067 43.9361V44.4361ZM88.8951 42.1299C89.0954 42.1121 89.4523 42.1222 89.8395 42.2177C90.2266 42.313 90.6254 42.4889 90.9308 42.7876L91.2805 42.4301C90.8912 42.0494 90.4011 41.841 89.9592 41.7322C89.5174 41.6233 89.1052 41.6092 88.8508 41.6319L88.8951 42.1299ZM91.6847 45.5758L89.2039 47.7597L89.5343 48.135L92.0151 45.9511L91.6847 45.5758ZM89.2843 48.1825L91.6411 49.0318L91.8106 48.5615L89.4538 47.7121L89.2843 48.1825ZM88.7631 49.7492L91.492 51.0838L91.7116 50.6347L88.9827 49.3L88.7631 49.7492ZM91.4378 50.6706C91.2958 50.794 91.0015 50.9317 90.659 50.9922C90.3174 51.0526 89.9824 51.0264 89.7437 50.8863L89.4906 51.3175C89.8721 51.5414 90.3434 51.5557 90.746 51.4846C91.1478 51.4136 91.5357 51.248 91.7658 51.0479L91.4378 50.6706ZM89.7437 50.8863C89.3921 50.68 89.2527 50.4809 89.1877 50.2882C89.116 50.0755 89.1229 49.846 89.1229 49.5246H88.6229C88.6229 49.8099 88.6097 50.1388 88.714 50.448C88.825 50.7772 89.0577 51.0634 89.4906 51.3175L89.7437 50.8863Z" fill="#29282C"/>
<path d="M48.5076 9.31591C48.8373 10.9129 48.3702 12.3769 48.0954 12.9092C51.6128 12.5898 54.5988 14.9942 55.6522 16.2363L56.2018 15.3048C56.3392 15.0386 57.744 14.8 57.988 12.9092C58.1254 11.8445 58.0796 10.3806 58.2628 9.31594C58.6292 6.96478 59.252 2.23583 58.8123 2.12936C58.3727 2.0229 57.7132 3.32713 57.4384 3.99255C57.6216 3.14968 57.8781 1.41071 57.4384 1.19777C56.9987 0.984835 56.4308 1.86319 56.2018 2.26245C56.385 1.77447 56.3392 0.532209 55.7896 0.399262C55.24 0.266308 54.5531 1.19763 54.4157 1.7301C54.5531 1.06455 54.4157 -0.000129966 53.8661 0C52.6372 0.000290636 51.1639 4.61359 50.5685 6.7873C50.2938 5.76699 48.7039 4.28615 48.5076 4.39178C47.271 5.0572 48.0954 7.31964 48.5076 9.31591Z" fill="#9FBFFF"/>
<path d="M53.8365 1.70911L52.9819 5.12728" stroke="#29282C" strokeWidth="0.4" strokeLinecap="round"/>
<path d="M55.8796 2.13635L54.5792 6.39529M57.2543 3.84544L56.3069 6.83635M50.418 6.94661C50.9381 7.2774 52.1085 8.40209 52.6286 10.2545" stroke="#29282C" strokeWidth="0.4" strokeLinecap="round"/>
<path d="M32.8934 10.7027C29.5659 9.81361 27.0207 10.4315 25.3428 10.974C22.2519 11.833 15.1741 13.496 12.8908 15.3142C10.5064 17.2131 7.19474 22.5027 5.60512 25.2154C3.70642 28.2897 -0.4595 34.8437 0.0414754 39.0499C0.703815 44.6108 10.5064 43.7518 15.5402 43.1188C18.2337 42.6667 24.8129 41.5726 29.5817 40.8131C34.3506 40.0535 37.574 37.151 38.5895 35.7947C38.3246 34.1671 37.4763 33.2177 36.735 31.8614C36.0532 30.6138 35.6753 29.5556 35.6753 29.5556C35.6753 29.5556 41.7525 30.6138 45.4779 28.6062C47.9947 27.2499 53.1168 20.0613 55.5454 16.2636C53.8233 14.2292 50.8107 11.7747 48.922 11.9234C47.1999 12.059 45.6103 15.3142 44.683 16.5349C44.0207 17.4068 41.3693 19.133 39.9142 18.9763C37.3973 18.7052 35.9402 11.5168 32.8934 10.7027Z" fill="white"/>
<path d="M28.1326 8.7767C28.7284 6.33129 26.3488 3.34783 25.2089 2.56366C24.0235 2.91218 21.3946 3.74997 20.0815 4.27275C18.7685 4.79553 19.6654 8.54052 20.3361 9.82226C20.8832 10.8678 21.2935 11.9134 21.2935 13.0896C21.2935 13.533 22.7981 14.5273 23.7556 14.5273C25.9822 14.5273 27.1751 12.6976 26.3544 11.7827C25.5337 10.8678 25.5338 10.345 25.5338 10.345C26.0809 10.2143 27.7726 10.2546 28.1326 8.7767Z" fill="#9FBFFF"/>
<path d="M20.6288 7.01269C20.5403 6.94666 20.415 6.96491 20.349 7.05345C20.2829 7.142 20.3012 7.26731 20.3897 7.33334L20.6288 7.01269ZM21.4042 8.08995C21.4928 8.15598 21.6181 8.13773 21.6841 8.04919C21.7502 7.96064 21.7319 7.83533 21.6434 7.7693L21.4042 8.08995ZM20.4409 7.886C20.4168 7.9938 20.4847 8.10072 20.5925 8.12481C20.7003 8.1489 20.8072 8.08104 20.8313 7.97324L20.4409 7.886ZM22.1026 5.81874C22.0125 5.8827 21.9913 6.00755 22.0553 6.09761C22.1193 6.18766 22.2441 6.20881 22.3342 6.14485L22.1026 5.81874ZM23.2219 5.51435C23.3119 5.45039 23.3331 5.32553 23.2691 5.23548C23.2052 5.14543 23.0803 5.12427 22.9903 5.18823L23.2219 5.51435ZM25.2393 4.47192C25.1404 4.52109 25.1 4.64114 25.1492 4.74005C25.1984 4.83895 25.3184 4.87927 25.4173 4.83009L25.2393 4.47192ZM26.1782 4.45179C26.2771 4.40262 26.3175 4.28257 26.2683 4.18367C26.2191 4.08476 26.0991 4.04444 26.0002 4.09362L26.1782 4.45179ZM25.2071 5.88826C25.1244 5.81511 24.998 5.8229 24.9248 5.90566C24.8517 5.98842 24.8594 6.11482 24.9422 6.18797L25.2071 5.88826ZM26.216 7.04692L26.2859 7.23431L26.5982 7.11784L26.3485 6.89706L26.216 7.04692ZM25.1316 7.23782C25.0281 7.27642 24.9755 7.3916 25.0141 7.4951C25.0527 7.59859 25.1679 7.65121 25.2714 7.61262L25.1316 7.23782ZM25.2434 8.68623L25.1481 8.51042L24.7419 8.7307L25.1805 8.87607L25.2434 8.68623ZM26.6384 7.92962L26.8324 7.88086L26.7696 7.63097L26.5431 7.75382L26.6384 7.92962ZM20.3897 7.33334L20.6433 7.52249L20.8825 7.20184L20.6288 7.01269L20.3897 7.33334ZM20.6433 7.52249L21.4042 8.08995L21.6434 7.7693L20.8825 7.20184L20.6433 7.52249ZM20.5677 7.31855L20.4409 7.886L20.8313 7.97324L20.9581 7.40579L20.5677 7.31855ZM22.3342 6.14485L23.2219 5.51435L22.9903 5.18823L22.1026 5.81874L22.3342 6.14485ZM25.4173 4.83009L26.1782 4.45179L26.0002 4.09362L25.2393 4.47192L25.4173 4.83009ZM24.9422 6.18797L26.0836 7.19677L26.3485 6.89706L25.2071 5.88826L24.9422 6.18797ZM26.1461 6.85952L25.1316 7.23782L25.2714 7.61262L26.2859 7.23431L26.1461 6.85952ZM25.3388 8.86203L26.7338 8.10543L26.5431 7.75382L25.1481 8.51042L25.3388 8.86203ZM26.4444 7.97839C26.4591 8.03654 26.4695 8.14403 26.446 8.25338C26.4233 8.35921 26.3722 8.45458 26.2743 8.51953L26.4953 8.85292C26.7017 8.71611 26.7985 8.51724 26.8371 8.33725C26.875 8.16077 26.86 7.99084 26.8324 7.88086L26.4444 7.97839ZM26.2743 8.51953C26.179 8.58267 26.0133 8.60784 25.8087 8.59388C25.6125 8.58049 25.4199 8.53402 25.3064 8.49638L25.1805 8.87607C25.3206 8.9225 25.5465 8.97691 25.7815 8.99295C26.008 9.00841 26.2862 8.99155 26.4953 8.85292L26.2743 8.51953Z" fill="#29282C"/>
<circle cx="23.5" cy="6.40908" r="0.427272" fill="#29282C"/>
<circle cx="26.0635" cy="5.55453" r="0.427272" fill="#29282C"/>
<path d="M19.6544 9.40001C19.9378 9.6481 21.3636 9.47478 21.3636 8.54546C21.3636 8.54546 21.1275 8.46837 20.7048 8.33561C20.2821 8.20286 19.7185 7.72494 19.7185 6.8753C19.7185 6.21152 20.6108 6.25575 21.1275 6.47701L20.0003 5.14946C20.0003 4.88394 20.4793 4.35292 22.3956 4.35292C24.3119 4.35292 25.3545 3.37938 25.6363 2.8926C25.0727 2.09609 22.9592 0.901311 20.0003 2.4943C17.2511 3.97438 17.6822 7.67374 19.6544 9.40001Z" fill="#29282C"/>
<path d="M32.3591 17.9454C32.7416 20.5888 33.8123 26.3678 35.0361 28.3367M18.0821 19.9963C17.9121 21.6826 17.1754 26.5592 15.2378 33.1221M11.9634 32.712C14.1304 32.712 19.4843 34.216 20.8865 35.0363" stroke="#29282C" strokeWidth="0.4" strokeLinecap="round"/>
<path d="M18.517 37.8089C16.9879 39.4069 16.9054 40.9028 17.2738 41.6453C17.8263 42.2641 21.2679 42.2838 22.6609 42.3878C24.3184 42.5115 29.4292 43.0066 30.5342 42.5115C30.8468 42.3715 30.8565 42.0578 30.8105 41.8928C31.0868 41.8928 32.0537 41.769 32.3299 41.5215C32.6521 41.2329 32.4681 40.9027 32.3299 40.6552C32.6062 40.6552 33.2192 40.4927 33.2968 40.284C33.5178 39.69 32.4681 39.2939 32.1918 39.1702C32.3299 39.0464 32.3299 38.7989 32.1918 38.6752C31.3912 37.9579 27.9098 37.6851 27.9098 37.6851C27.9098 37.6851 27.0881 36.8713 25.9759 36.8189C24.4447 36.7468 22.9136 36.698 21.4177 36.819C20.3497 36.9053 19.2074 37.0873 18.517 37.8089Z" fill="#9FBFFF"/>
<path d="M26.8222 41.3548C27.7116 41.3548 29.8044 41.4584 31.06 41.8727M27.7639 40.06C28.601 40.0169 30.7147 40.06 32.4726 40.5779M27.2931 38.7653C28.2871 38.7221 30.7147 38.7653 32.4726 39.2832M24.7817 37.6C25.2526 37.6 26.4455 37.6518 27.45 37.8589" stroke="#29282C" strokeWidth="0.4" strokeLinecap="round"/>
</svg>
