<svg width="320" height="136" viewBox="0 0 320 136" fill="none" xmlns="http://www.w3.org/2000/svg">
<g clip-path="url(#clip0_16686_403941)">
<rect width="320" height="135" transform="translate(0 0.75)" fill="white"/>
<g style="mix-blend-mode:multiply">
<path d="M232.339 27.957H127.631C120.789 27.957 114.692 30.6079 110.229 35.0255C105.767 39.4439 103.09 45.4813 103.09 52.2553V55.053C103.09 55.3475 103.09 55.4951 103.239 55.7896V56.2316C103.239 56.3785 103.239 56.6729 103.387 56.8205C103.387 56.9674 103.387 57.115 103.536 57.2618C103.536 57.4095 103.685 57.7039 103.685 57.8507C103.834 58.2928 103.834 58.5873 103.983 59.0293C103.983 59.1762 103.983 59.3238 104.131 59.3238C104.131 59.6182 104.28 59.7659 104.28 60.0603C104.28 60.2071 104.429 60.3548 104.429 60.3548C104.578 60.6492 104.578 60.7961 104.726 61.0905C104.726 61.2381 104.875 61.2381 104.875 61.3858C105.023 61.6802 105.023 61.827 105.172 62.1215C105.172 62.2691 105.172 62.2691 105.321 62.4159C105.47 62.7104 105.618 62.858 105.618 63.1525C106.362 64.6247 107.255 65.9502 108.296 67.2756H173.738C181.621 67.2756 188.612 70.9574 193.074 76.5536H202.444L224.01 96.8748V76.5536H232.339C239.181 76.5536 245.279 73.9028 249.741 69.4844C254.203 65.0668 256.88 59.0293 256.88 52.2553C256.88 38.8542 245.874 27.957 232.339 27.957Z" fill="#4A86FF"/>
</g>
<path d="M126.143 76.5533H125.696C125.399 76.5533 125.102 76.5533 124.804 76.4057H124.358C124.06 76.4057 123.763 76.2581 123.466 76.2581C123.316 76.2581 123.168 76.2581 123.019 76.1112C122.722 76.1112 122.424 75.9636 122.127 75.9636C121.978 75.9636 121.83 75.9636 121.68 75.8168C121.383 75.6691 121.086 75.6691 120.788 75.5223C120.639 75.5223 120.64 75.5223 120.491 75.3747C119.599 75.0802 118.855 74.7858 117.963 74.4913C117.516 74.3437 117.219 74.1969 116.772 73.9024C116.772 73.9024 116.624 73.9024 116.624 73.7548C116.326 73.608 115.88 73.4604 115.583 73.1659L115.434 73.0191C115.136 72.8715 114.839 72.577 114.393 72.4294C114.393 72.4294 114.244 72.4294 114.244 72.2825C113.946 71.9881 113.5 71.8405 113.203 71.546C111.418 70.2206 109.113 68.6007 107.625 66.834H66.8728C53.3376 66.834 43 77.7311 43 91.1315C43 104.533 54.0061 115.43 67.5413 115.43H75.87V135.752L97.4365 115.43H173.737C187.271 115.43 198.277 104.533 198.277 91.1315C198.277 85.5361 196.344 80.2344 193.072 76.1112H127.629C127.034 76.5533 126.588 76.5533 126.142 76.5533H126.143Z" fill="#CFDFFF"/>
<path d="M114.641 71.9895C114.939 72.284 115.385 72.4316 115.683 72.726C115.683 72.726 115.831 72.726 115.831 72.8729C116.129 73.0205 116.427 73.3149 116.872 73.4626L117.021 73.6094C117.319 73.757 117.616 73.9038 118.063 74.1983C118.063 74.1983 118.211 74.1983 118.211 74.3459C118.657 74.4927 118.955 74.6404 119.4 74.9348C120.293 75.2293 121.037 75.5237 121.93 75.8182C122.078 75.8182 122.078 75.8182 122.227 75.9658C122.524 76.1126 122.822 76.1126 123.119 76.2603C123.267 76.2603 123.417 76.2603 123.566 76.4071C123.863 76.4071 124.16 76.5547 124.458 76.5547C124.606 76.5547 124.755 76.5547 124.904 76.7015C125.202 76.7015 125.499 76.8492 125.797 76.8492H126.242C126.54 76.8492 126.838 76.8492 127.135 76.9968H192.776C188.315 71.253 181.324 67.7188 173.441 67.7188H109.584C111.22 69.0442 112.856 70.6641 114.641 71.9895Z" fill="#2554F6" stroke="#2554F6" stroke-width="1.48698" stroke-miterlimit="10"/>
<path d="M146.791 56.6002C147.31 56.6076 147.825 56.5127 148.307 56.3212C148.789 56.1296 149.227 55.8451 149.597 55.4843C149.967 55.1234 150.26 54.6934 150.461 54.2193C150.661 53.7451 150.764 53.2362 150.764 52.7222C150.764 52.2082 150.661 51.6993 150.461 51.2251C150.26 50.7509 149.967 50.3209 149.597 49.9601C149.227 49.5992 148.789 49.3147 148.307 49.1232C147.825 48.9316 147.31 48.8368 146.791 48.8442C145.762 48.8588 144.78 49.2738 144.057 49.9995C143.335 50.7252 142.93 51.7032 142.93 52.7222C142.93 53.7411 143.335 54.7192 144.057 55.4448C144.78 56.1705 145.762 56.5855 146.791 56.6002ZM180.082 56.6002C180.601 56.6076 181.116 56.5127 181.598 56.3212C182.08 56.1296 182.518 55.8451 182.888 55.4843C183.258 55.1234 183.552 54.6934 183.752 54.2193C183.952 53.7451 184.055 53.2362 184.055 52.7222C184.055 52.2082 183.952 51.6993 183.752 51.2251C183.552 50.7509 183.258 50.3209 182.888 49.9601C182.518 49.5992 182.08 49.3147 181.598 49.1232C181.116 48.9316 180.601 48.8368 180.082 48.8442C179.053 48.8588 178.071 49.2738 177.349 49.9995C176.626 50.7252 176.221 51.7032 176.221 52.7222C176.221 53.7411 176.626 54.7192 177.349 55.4448C178.071 56.1705 179.053 56.5855 180.082 56.6002ZM213.374 56.6002C214.413 56.6002 215.409 56.1916 216.144 55.4643C216.878 54.7371 217.291 53.7507 217.291 52.7222C217.291 51.6937 216.878 50.7073 216.144 49.98C215.409 49.2527 214.413 48.8442 213.374 48.8442C212.335 48.8442 211.339 49.2527 210.605 49.98C209.87 50.7073 209.457 51.6937 209.457 52.7222C209.457 53.7507 209.87 54.7371 210.605 55.4643C211.339 56.1916 212.335 56.6002 213.374 56.6002Z" fill="white"/>
<path d="M66.502 95.9909C66.502 95.9909 91.638 89.9535 81.9706 83.916C72.3032 77.8777 69.4767 95.9909 98.4798 95.9909C107.106 95.9909 105.024 90.5424 120.344 93.1932C144.289 97.3164 143.249 87.3026 154.403 91.4257C165.558 95.5496 175.523 96.8743 175.523 96.8743" stroke="#3E3E41" stroke-width="1.9586" stroke-miterlimit="10" stroke-linecap="round"/>
<path d="M240.221 4.25V18.975M278 47.8385H263.275M270.712 16.1781L258.069 26.9276" stroke="#CFDFFF" stroke-width="1.48698" stroke-miterlimit="10" stroke-linecap="round" stroke-linejoin="round"/>
</g>
<defs>
<clipPath id="clip0_16686_403941">
<rect width="320" height="135" fill="white" transform="translate(0 0.75)"/>
</clipPath>
</defs>
</svg>
