<svg width="18" height="18" viewBox="0 0 18 18" fill="none" xmlns="http://www.w3.org/2000/svg">
<path d="M9.02298 4.48535C7.36798 4.48535 6.02298 5.83035 6.02298 7.48535V8.93035C6.02298 9.23535 5.89298 9.70035 5.73798 9.96035L5.16298 10.9154C4.80798 11.5054 5.05298 12.1604 5.70298 12.3804C7.85798 13.1004 10.183 13.1004 12.338 12.3804C12.943 12.1804 13.208 11.4654 12.878 10.9154L12.303 9.96035C12.153 9.70035 12.023 9.23535 12.023 8.93035V7.48535C12.023 5.83535 10.673 4.48535 9.02298 4.48535Z" stroke="#29282C" strokeWidth="1.2" strokeMiterlimit="10" strokeLinecap="round"/>
<path d="M9.9479 4.63C9.7929 4.585 9.6329 4.55 9.4679 4.53C8.9879 4.47 8.5279 4.505 8.0979 4.63C8.2429 4.26 8.6029 4 9.0229 4C9.4429 4 9.8029 4.26 9.9479 4.63Z" stroke="#29282C" strokeWidth="1.2" strokeMiterlimit="10" strokeLinecap="round" strokeLinejoin="round"/>
<path d="M10.5229 12.5605C10.5229 13.3855 9.84795 14.0605 9.02295 14.0605C8.61295 14.0605 8.23295 13.8905 7.96295 13.6205C7.69295 13.3505 7.52295 12.9705 7.52295 12.5605" stroke="#29282C" strokeWidth="1.2" strokeMiterlimit="10"/>
</svg>
