<svg width="16" height="17" viewBox="0 0 16 17" fill="none" xmlns="http://www.w3.org/2000/svg">
  <path
    d="M9.33325 2.10938H5.99992C2.66659 2.10938 1.33325 3.44786 1.33325 6.79406V10.8095C1.33325 13.484 2.185 14.8759 4.22887 15.327"
    stroke="#A9A9AB" strokeWidth="1.2" strokeLinecap="round" strokeLinejoin="round" />
  <path d="M14.6665 7.46484V9.80735" stroke="#A9A9AB" strokeWidth="1.2" strokeLinecap="round"
    strokeLinejoin="round" />
  <path
    d="M14.6666 7.4633H11.9999C9.99992 7.4633 9.33325 6.79406 9.33325 4.78634V2.10938L14.6666 7.4633Z"
    stroke="#A9A9AB" strokeWidth="1.2" strokeLinecap="round" strokeLinejoin="round" />
  <path
    d="M6.93347 12.5744V13.793C6.93347 13.8191 6.95024 13.8358 6.98377 13.8433C7.11047 13.8582 7.21108 13.8656 7.28561 13.8656C7.55391 13.8656 7.76073 13.8042 7.90606 13.6812C8.05512 13.5545 8.12964 13.3793 8.12964 13.1558C8.12964 12.7123 7.8483 12.4906 7.28561 12.4906C7.19245 12.4906 7.08998 12.4999 6.97818 12.5185C6.94837 12.526 6.93347 12.5446 6.93347 12.5744ZM6.31861 15.9058C6.2329 15.9058 6.15837 15.8742 6.09502 15.8108C6.03167 15.7475 6 15.6729 6 15.5872V12.172C6 12.0825 6.02981 12.0024 6.08943 11.9316C6.14906 11.8608 6.22358 11.8217 6.31302 11.8142C6.62976 11.7844 6.93533 11.7695 7.22972 11.7695C8.42217 11.7695 9.01839 12.213 9.01839 13.0999C9.01839 13.5806 8.87865 13.9458 8.59917 14.1954C8.32342 14.4414 7.91724 14.5643 7.38064 14.5643C7.23903 14.5643 7.10674 14.5587 6.98377 14.5476C6.95024 14.5476 6.93347 14.5625 6.93347 14.5923V15.5872C6.93347 15.6729 6.90179 15.7475 6.83844 15.8108C6.77509 15.8742 6.70057 15.9058 6.61486 15.9058H6.31861Z"
    fill="#A9A9AB" />
  <path
    d="M10.5142 12.5968V15.1345C10.5142 15.168 10.531 15.1885 10.5645 15.196C10.639 15.2109 10.7285 15.2183 10.8328 15.2183C11.2092 15.2183 11.4868 15.1084 11.6656 14.8885C11.8482 14.6687 11.9395 14.3091 11.9395 13.8097C11.9395 13.3626 11.8482 13.0346 11.6656 12.826C11.4831 12.6173 11.2054 12.513 10.8328 12.513C10.7285 12.513 10.639 12.5204 10.5645 12.5353C10.531 12.5428 10.5142 12.5633 10.5142 12.5968ZM9.89933 15.917C9.80989 15.9096 9.73536 15.8723 9.67574 15.8052C9.61612 15.7344 9.58631 15.6525 9.58631 15.5593V12.172C9.58631 12.0788 9.61612 11.9987 9.67574 11.9316C9.73536 11.8608 9.80989 11.8217 9.89933 11.8142C10.19 11.7844 10.4769 11.7695 10.7601 11.7695C11.4272 11.7695 11.9414 11.9465 12.3029 12.3005C12.6643 12.6546 12.8451 13.1576 12.8451 13.8097C12.8451 14.5178 12.6643 15.0544 12.3029 15.4196C11.9414 15.781 11.4272 15.9617 10.7601 15.9617C10.4769 15.9617 10.19 15.9468 9.89933 15.917Z"
    fill="#A9A9AB" />
  <path
    d="M13.7642 15.9058C13.6784 15.9058 13.6039 15.8742 13.5406 15.8108C13.4772 15.7475 13.4455 15.6729 13.4455 15.5872V12.144C13.4455 12.0583 13.4772 11.9838 13.5406 11.9205C13.6039 11.8571 13.6784 11.8254 13.7642 11.8254H15.6814C15.7671 11.8254 15.8416 11.8571 15.905 11.9205C15.9683 11.9838 16 12.0583 16 12.144V12.2726C16 12.3583 15.9683 12.4328 15.905 12.4962C15.8416 12.5595 15.7671 12.5912 15.6814 12.5912H14.4461C14.4125 12.5912 14.3958 12.6061 14.3958 12.6359V13.4688C14.3958 13.5023 14.4125 13.5191 14.4461 13.5191H15.5696C15.6553 13.5191 15.7298 13.5508 15.7932 13.6141C15.8565 13.6737 15.8882 13.7464 15.8882 13.8321V13.9215C15.8882 14.0072 15.8565 14.0818 15.7932 14.1451C15.7298 14.2047 15.6553 14.2346 15.5696 14.2346H14.4461C14.4125 14.2346 14.3958 14.2513 14.3958 14.2849V15.5872C14.3958 15.6729 14.3641 15.7475 14.3008 15.8108C14.2411 15.8742 14.1685 15.9058 14.0828 15.9058H13.7642Z"
    fill="#A9A9AB" />
</svg>
  