<svg xmlns="http://www.w3.org/2000/svg" width="16" height="16" fill="none"><path stroke="#3E3E41" strokeLinecap="round" strokeLinejoin="round" strokeWidth="1.2" d="M15.4 8A7.4 7.4 0 1 1 .6 8a7.4 7.4 0 0 1 14.8 0Z"/><path stroke="#3E3E41" strokeLinecap="round" strokeLinejoin="round" strokeMiterlimit="10" strokeWidth="1.2" d="M10.926 9.026c-.8.8-1.948 1.048-2.961.73L6.13 11.582a.746.746 0 0 1-.58.191l-.85-.113c-.284-.036-.539-.305-.582-.581l-.113-.85a.793.793 0 0 1 .191-.581l1.828-1.828a2.953 2.953 0 0 1 .73-2.96 2.959 2.959 0 0 1 4.172 0c1.147 1.14 1.147 3.01 0 4.165ZM6.796 10.918l-.602-.61"/><path stroke="#3E3E41" strokeLinecap="round" strokeLinejoin="round" strokeWidth="2" d="M8.882 6.964h.006"/></svg>