<svg width="21" height="20" viewBox="0 0 21 20" fill="currentColor" xmlns="http://www.w3.org/2000/svg">
<path d="M3 9.36523H18V10.6152H3V9.36523Z"/>
<path fillRule="evenodd" clipRule="evenodd" d="M8.63824 3.78404C9.23522 3.50795 9.91005 3.375 10.6544 3.375C11.2159 3.375 11.7422 3.46692 12.2295 3.6552L12.0958 4.00127L12.2295 3.6552C12.704 3.83853 13.1252 4.08342 13.4894 4.39188C13.8433 4.68179 14.1279 4.99645 14.3337 5.33829C14.4612 5.54153 14.4873 5.77083 14.4206 5.99597C14.3548 6.24532 14.1783 6.41371 13.954 6.5L13.9475 6.50248L13.9475 6.50242C13.7668 6.56815 13.5775 6.57775 13.3907 6.52679L13.3758 6.52271L13.3612 6.51742C13.1756 6.44993 13.0243 6.33027 12.9122 6.17005L12.9073 6.16307L12.9073 6.16301C12.7871 5.98257 12.6283 5.8004 12.4271 5.61748C12.2465 5.45332 12.0126 5.31038 11.7169 5.1939C11.4424 5.08575 11.0918 5.025 10.6544 5.025C9.88764 5.025 9.33447 5.19802 8.95132 5.49965C8.58478 5.78821 8.38937 6.19713 8.38937 6.78C8.38937 7.06745 8.46342 7.32568 8.61221 7.56306C8.76669 7.78434 9.0189 7.99551 9.39707 8.18459C9.77354 8.37283 10.27 8.52415 10.8969 8.63026L10.8974 8.63034C12.2195 8.85581 13.2362 9.2751 13.8768 9.93715C14.0843 10.1449 14.2577 10.3714 14.3975 10.6153H12.0477C11.6851 10.4282 11.2187 10.29 10.6346 10.2117L10.6313 10.2112L10.6313 10.2112C9.46282 10.0443 8.51115 9.66332 7.81023 9.04028L7.80776 9.03809L7.80777 9.03808C7.10354 8.40091 6.73936 7.61169 6.73936 6.69C6.73936 6.03572 6.90116 5.44705 7.23626 4.93863L7.23949 4.93372L7.23953 4.93375C7.58157 4.43209 8.05221 4.04969 8.63824 3.78404ZM13.123 11.8653C13.1674 12.0295 13.1894 12.2042 13.1894 12.39C13.1894 12.8652 13.0867 13.2432 12.9009 13.542L12.9008 13.542L12.897 13.5483C12.7191 13.8476 12.4601 14.0776 12.1048 14.2383L12.1048 14.2383L12.1017 14.2398C11.7523 14.4017 11.3187 14.49 10.7894 14.49C10.3106 14.49 9.88867 14.4339 9.52 14.3266C9.16228 14.2098 8.85578 14.0464 8.59605 13.8391C8.34225 13.6286 8.13846 13.3852 7.98222 13.108C7.88485 12.9306 7.74058 12.7932 7.55454 12.7086C7.36129 12.6208 7.15297 12.6082 6.9503 12.6793C6.7395 12.7463 6.56471 12.8796 6.45515 13.0804L6.44862 13.0924L6.44298 13.1048C6.34058 13.3301 6.35969 13.5642 6.46395 13.7727C6.70646 14.2577 7.03724 14.6817 7.45348 15.0431L7.45345 15.0432L7.45781 15.0468C7.87656 15.3995 8.36793 15.671 8.9267 15.8644L8.92667 15.8645L8.93483 15.8671C9.50637 16.0504 10.1255 16.14 10.7894 16.14C11.3734 16.14 11.9142 16.0604 12.408 15.8958L12.408 15.8958L12.415 15.8933C12.9057 15.7189 13.3341 15.4704 13.694 15.1448C14.0673 14.8162 14.3497 14.4142 14.5405 13.9442C14.7421 13.4725 14.8394 12.9524 14.8394 12.39C14.8394 12.21 14.8286 12.035 14.8071 11.8653H13.123Z" />
</svg>
