<svg xmlns="http://www.w3.org/2000/svg" width="170" height="132" viewBox="0 0 170 132" fill="none">
  <path opacity="0.15" d="M74.149 112.321C85.7126 109.793 94.9886 100.143 107.966 93.4465C127.713 83.2603 149.124 73.821 145.812 58.6805C140.192 32.9644 115.952 42.7564 92.2894 34.9396C73.9095 28.8648 67.0283 18.678 54.2838 21.4672C25.1313 27.8392 5.94748 53.3449 11.4326 78.4359C16.9198 103.523 44.9973 118.696 74.149 112.321Z" fill="#9FBFFF"/>
  <path d="M71.9488 64.0721C71.9488 64.0721 72.9884 69.1207 74.8037 76.8971C75.3081 79.0581 84.8953 67.4768 87.4186 71.0094C88.4861 72.5039 89.0508 75.2684 86.8298 79.8409C84.1976 85.2601 78.8844 93.4818 79.4794 95.7375C81.449 103.204 83.7257 111.265 86.2122 119.064L51.9809 131.776C44.2111 106.858 37.1553 81.6683 37.3782 78.1115C37.6805 73.3021 41.1211 71.3132 42.8031 70.9201C44.6313 63.682 50.0434 64.3165 52.5202 65.5385C54.3157 60.2542 58.6917 60.4434 60.6562 61.1985C63.281 56.2915 70.8038 56.6155 71.9488 64.0721Z" fill="#9FBFFF"/>
  <path d="M122.973 52.7699L130.859 37.4594L117.87 35.1201L132.603 32.1053L122.193 11.3322L136.995 30.9972L145.667 12.1029L141.423 30.7175L159.146 28.5482L145.434 36.9598L159.155 47.9765L140.979 40.353L135.043 63.6276L134.786 43.0951L122.973 52.7699Z" fill="#FF6CA1"/>
  <path d="M19.6895 103.621C19.1916 102.798 20.9025 100.852 23.5094 99.2734C26.1163 97.6948 117.399 43.3357 117.399 43.3357C117.399 43.3357 27.9197 100.673 25.3116 102.251C22.7047 103.83 20.1874 104.443 19.6895 103.621Z" fill="#29282C" stroke="#29282C"/>
  <path d="M43.5713 92.5039L39.5713 88.0039L67.9883 70.4199L68.5771 76.3076L43.5713 92.5039Z" fill="#9FBFFF"/>
  <path d="M53.2092 66.8877C52.859 68.9426 53.7957 74.7862 57.9797 79.2518M57.9797 79.2518C65.5097 85.8138 66.9589 76.2625 64.823 69.3087M57.9797 79.2518C58.378 81.9786 58.7874 86.5381 53.4098 85.6251C48.0322 84.7124 44.6971 76.1523 44.4375 72.064" stroke="#29282C" strokeLinecap="round"/>
  <path d="M69.3356 100.702C65.3344 91.531 67.9077 85.1033 71.4074 81.4469" stroke="#29282C" strokeLinecap="round"/>
  <path d="M39.1392 82.1953C39.8216 83.9192 42.4256 88.1674 45.0268 89.2605C47.628 90.3522 50.9145 89.2605 50.9145 85.1391" stroke="#29282C" strokeLinecap="round"/>
</svg>