<svg width="16" height="16" viewBox="0 0 16 16" fill="none" xmlns="http://www.w3.org/2000/svg">
  <path
    d="M6.99992 13.2654V2.73203C6.99992 1.73203 6.57325 1.33203 5.51325 1.33203H2.81992C1.75992 1.33203 1.33325 1.73203 1.33325 2.73203V13.2654C1.33325 14.2654 1.75992 14.6654 2.81992 14.6654H5.51325C6.57325 14.6654 6.99992 14.2654 6.99992 13.2654Z"
    stroke="#A9A9AB" strokeWidth="1.2" strokeLinecap="round" strokeLinejoin="round" />
  <path
    d="M14.6667 5.6787V2.65203C14.6667 1.71203 14.24 1.33203 13.18 1.33203H10.4867C9.42667 1.33203 9 1.71203 9 2.65203V5.67203C9 6.6187 9.42667 6.99203 10.4867 6.99203H13.18C14.24 6.9987 14.6667 6.6187 14.6667 5.6787Z"
    stroke="#A9A9AB" strokeWidth="1.2" strokeLinecap="round" strokeLinejoin="round" />
  <path
    d="M14.6667 13.18V10.4867C14.6667 9.42667 14.24 9 13.18 9H10.4867C9.42667 9 9 9.42667 9 10.4867V13.18C9 14.24 9.42667 14.6667 10.4867 14.6667H13.18C14.24 14.6667 14.6667 14.24 14.6667 13.18Z"
    stroke="#A9A9AB" strokeWidth="1.2" strokeLinecap="round" strokeLinejoin="round" />
</svg>
  