<svg width="28" height="20" viewBox="0 0 28 20" fill="none" xmlns="http://www.w3.org/2000/svg">
<path fillRule="evenodd" clipRule="evenodd" d="M5.46294 5.29883C5.16229 5.29883 4.91919 5.5404 4.91919 5.84258V6.98008C4.91919 7.39429 4.5834 7.73008 4.16919 7.73008C3.75498 7.73008 3.41919 7.39429 3.41919 6.98008V5.84258C3.41919 4.70726 4.33859 3.79883 5.46294 3.79883H14.5379C15.6733 3.79883 16.5817 4.71823 16.5817 5.84258V6.98008C16.5817 7.39429 16.2459 7.73008 15.8317 7.73008C15.4175 7.73008 15.0817 7.39429 15.0817 6.98008V5.84258C15.0817 5.54193 14.8401 5.29883 14.5379 5.29883H10.7505V14.6991H12.4621C12.8763 14.6991 13.2121 15.0349 13.2121 15.4491C13.2121 15.8633 12.8763 16.1991 12.4621 16.1991H7.53711C7.1229 16.1991 6.78711 15.8633 6.78711 15.4491C6.78711 15.0349 7.1229 14.6991 7.53711 14.6991H9.25049V5.29883H5.46294Z" fill="#69696B"/>
<path fillRule="evenodd" clipRule="evenodd" d="M26.4619 9.30866C26.5393 9.4955 26.4965 9.71055 26.3535 9.85355L24.3535 11.8536C24.1583 12.0488 23.8417 12.0488 23.6464 11.8536L21.6464 9.85355C21.5034 9.71055 21.4607 9.4955 21.538 9.30866C21.6154 9.12182 21.7978 9 22 9L26 9C26.2022 9 26.3845 9.12182 26.4619 9.30866Z" fill="#69696B"/>
</svg>
