<svg width="21" height="20" viewBox="0 0 21 20" fill="none" xmlns="http://www.w3.org/2000/svg">
<path d="M2.699 16.2505C2.44233 16.2505 2.24525 16.1405 2.10775 15.9205C1.97025 15.7005 1.9565 15.4667 2.0665 15.2192L5.93025 5.99297C6.06775 5.67214 6.29233 5.51172 6.604 5.51172C6.934 5.51172 7.15858 5.67214 7.27775 5.99297L11.1552 15.2467C11.2561 15.5034 11.2377 15.7371 11.1002 15.948C10.9719 16.1496 10.7748 16.2505 10.509 16.2505C10.3715 16.2505 10.2386 16.2138 10.1102 16.1405C9.99108 16.058 9.904 15.948 9.849 15.8105L6.439 7.34047H6.824L3.359 15.8105C3.29483 15.9571 3.19858 16.0671 3.07025 16.1405C2.95108 16.2138 2.82733 16.2505 2.699 16.2505ZM3.42775 13.8855L3.97775 12.703H9.36775L9.91775 13.8855H3.42775Z" fill="#69696B" stroke="#69696B" strokeWidth="0.2"/>
<ellipse cx="15.5" cy="6.25" rx="3.75" ry="3.75" fill="#29282C"/>
</svg>
