<svg width="21" height="20" viewBox="0 0 21 20" fill="none" xmlns="http://www.w3.org/2000/svg">
<rect x="2" y="1.2" width="17" height="17" rx="3.75" stroke="#D4D4D5" strokeWidth="0.5"/>
<path d="M6.56814 15.4888C6.31147 15.4888 6.11439 15.3788 5.97689 15.1588C5.83939 14.9388 5.82564 14.705 5.93564 14.4575L9.79939 5.23125C9.93689 4.91042 10.1615 4.75 10.4731 4.75C10.8031 4.75 11.0277 4.91042 11.1469 5.23125L15.0244 14.485C15.1252 14.7417 15.1069 14.9754 14.9694 15.1863C14.8411 15.3879 14.644 15.4888 14.3781 15.4888C14.2406 15.4888 14.1077 15.4521 13.9794 15.3787C13.8602 15.2963 13.7731 15.1863 13.7181 15.0487L10.3081 6.57875H10.6931L7.22814 15.0487C7.16397 15.1954 7.06772 15.3054 6.93939 15.3787C6.82022 15.4521 6.69647 15.4888 6.56814 15.4888ZM7.29689 13.1237L7.84689 11.9412H13.2369L13.7869 13.1237H7.29689Z" fill="#69696B" stroke="#69696B" strokeWidth="0.2"/>
</svg>
