<svg width="28" height="20" viewBox="0 0 28 20" fill="none" xmlns="http://www.w3.org/2000/svg">
<path fillRule="evenodd" clipRule="evenodd" d="M3.20024 3.72266C2.98935 3.72266 2.79927 3.79919 2.64927 3.94919C2.50183 4.09663 2.43774 4.28568 2.43774 4.48516V15.3002C2.43774 15.5001 2.5016 15.6858 2.63668 15.8378L2.64889 15.8515L2.66263 15.8637C2.81459 15.9988 3.00032 16.0627 3.20024 16.0627C3.39972 16.0627 3.58877 15.9986 3.73621 15.8511C3.88621 15.7011 3.96274 15.5111 3.96274 15.3002V10.5577H10.9127V15.3002C10.9127 15.5001 10.9766 15.6858 11.1117 15.8378L11.1239 15.8515L11.1376 15.8637C11.2846 15.9944 11.4634 16.0627 11.6602 16.0627C11.8602 16.0627 12.0459 15.9988 12.1979 15.8637L12.2047 15.8576L12.2112 15.8511C12.3612 15.7011 12.4377 15.5111 12.4377 15.3002V4.48516C12.4377 4.27694 12.3625 4.08657 12.2048 3.94287C12.0612 3.80214 11.8805 3.72266 11.6752 3.72266C11.4643 3.72266 11.2743 3.79919 11.1243 3.94919C10.9768 4.09663 10.9127 4.28568 10.9127 4.48516V9.12266H3.96274V4.48516C3.96274 4.27987 3.88964 4.09193 3.73644 3.94896C3.59347 3.79576 3.40553 3.72266 3.20024 3.72266ZM16.4968 13.0563L16.0353 13.236C16.0335 13.2359 16.0318 13.2358 16.03 13.2358L16.4959 13.0557C16.4962 13.0559 16.4965 13.0561 16.4968 13.0563ZM14.9815 13.6412C14.9536 13.5781 14.9156 13.5184 14.8658 13.464C14.7413 13.3225 14.5737 13.2477 14.3857 13.2477C14.1966 13.2477 14.033 13.3273 13.9092 13.46C13.78 13.5992 13.7282 13.7733 13.7282 13.9502C13.7282 14.3432 13.8243 14.7069 14.0202 15.0334L14.0215 15.0356C14.2162 15.3541 14.4845 15.6064 14.8197 15.7913L14.8234 15.7933C15.1647 15.9757 15.5491 16.0627 15.9682 16.0627C16.3458 16.0627 16.6988 15.9793 17.0214 15.8091L17.0253 15.807C17.3445 15.6329 17.6039 15.395 17.798 15.0949L17.7995 15.0926C17.9981 14.7797 18.0957 14.4285 18.0957 14.0477C18.0957 13.7777 18.0498 13.5215 17.9546 13.2822C17.8616 13.0358 17.7135 12.8214 17.5153 12.6406C17.4487 12.5783 17.3766 12.5212 17.2993 12.469C17.4558 12.3384 17.5851 12.1842 17.6857 12.0076C17.8067 11.8044 17.8632 11.5763 17.8632 11.3327C17.8632 11.0031 17.7787 10.6992 17.6048 10.4307C17.4396 10.1628 17.2108 9.95388 16.926 9.80482C16.6411 9.64802 16.3244 9.57266 15.9832 9.57266C15.6186 9.57266 15.2792 9.64978 14.9713 9.80922C14.6657 9.96244 14.4181 10.1784 14.2364 10.4569C14.0514 10.7406 13.9607 11.0606 13.9607 11.4077C13.9607 11.5841 14.0148 11.7517 14.1345 11.8898L14.1418 11.8982L14.1497 11.9061C14.2756 12.032 14.4365 12.1027 14.6182 12.1027C14.808 12.1027 14.9771 12.0265 15.1019 11.8824L15.1082 11.8747C15.2237 11.7325 15.2757 11.5631 15.2757 11.3852C15.2757 11.2966 15.2996 11.2215 15.3495 11.1509C15.4114 11.0706 15.4949 11.0021 15.6076 10.9473C15.7225 10.8937 15.8513 10.8652 15.9982 10.8652C16.1807 10.8652 16.3055 10.9176 16.3994 11.0056C16.4962 11.0964 16.5407 11.1987 16.5407 11.3327C16.5407 11.4256 16.5166 11.5034 16.4689 11.5746C16.4116 11.6546 16.34 11.7201 16.251 11.7721C16.1654 11.8175 16.0823 11.8377 15.9982 11.8377C15.8087 11.8377 15.6357 11.9057 15.4997 12.0417C15.3643 12.1771 15.3032 12.3499 15.3032 12.5327C15.3032 12.7156 15.364 12.8862 15.4921 13.0235L15.4997 13.0311C15.6357 13.1671 15.8087 13.2352 15.9982 13.2352C16.0089 13.2352 16.0195 13.2354 16.03 13.2358L14.9815 13.6412ZM14.6893 13.7541L14.9815 13.6412C14.9821 13.6427 14.9828 13.6442 14.9834 13.6456L14.6918 13.7592C14.691 13.7575 14.6902 13.7558 14.6893 13.7541ZM14.9834 13.6456L16.0353 13.236C16.1575 13.2417 16.2614 13.2757 16.3538 13.3352C16.4618 13.405 16.5484 13.4991 16.6145 13.6239L16.6163 13.6273C16.6785 13.7412 16.7132 13.8762 16.7132 14.0402C16.7132 14.3005 16.6357 14.4662 16.5091 14.5804C16.3788 14.6977 16.1943 14.7702 15.9232 14.7702C15.7475 14.7702 15.599 14.7319 15.4703 14.661C15.3346 14.5813 15.2314 14.4805 15.1551 14.3577C15.0801 14.2319 15.0432 14.0981 15.0432 13.9502C15.0432 13.8455 15.025 13.7417 14.9834 13.6456Z" fill="#4A86FF"/>
<path fillRule="evenodd" clipRule="evenodd" d="M26.4619 9.30866C26.5393 9.4955 26.4965 9.71055 26.3535 9.85355L24.3535 11.8536C24.1583 12.0488 23.8417 12.0488 23.6464 11.8536L21.6464 9.85355C21.5034 9.71055 21.4607 9.4955 21.538 9.30866C21.6154 9.12182 21.7978 9 22 9L26 9C26.2022 9 26.3845 9.12182 26.4619 9.30866Z" fill="#69696B"/>
</svg>
