<svg width="28" height="20" viewBox="0 0 28 20" fill="none" xmlns="http://www.w3.org/2000/svg">
<path fillRule="evenodd" clipRule="evenodd" d="M3.82524 3.72266C3.61435 3.72266 3.42427 3.79919 3.27427 3.94919C3.12683 4.09663 3.06274 4.28568 3.06274 4.48516V15.3002C3.06274 15.5001 3.1266 15.6858 3.26168 15.8378L3.27389 15.8515L3.28763 15.8637C3.43959 15.9988 3.62532 16.0627 3.82524 16.0627C4.02472 16.0627 4.21377 15.9986 4.36121 15.8511C4.51121 15.7011 4.58774 15.5111 4.58774 15.3002V10.5577H11.5377V15.3002C11.5377 15.5001 11.6016 15.6858 11.7367 15.8378L11.7489 15.8515L11.7626 15.8637C11.9096 15.9944 12.0884 16.0627 12.2852 16.0627C12.4852 16.0627 12.6709 15.9988 12.8229 15.8637L12.8297 15.8576L12.8362 15.8511C12.9862 15.7011 13.0627 15.5111 13.0627 15.3002V4.48516C13.0627 4.27694 12.9875 4.08657 12.8298 3.94287C12.6862 3.80214 12.5055 3.72266 12.3002 3.72266C12.0893 3.72266 11.8993 3.79919 11.7493 3.94919C11.6018 4.09663 11.5377 4.28568 11.5377 4.48516V9.12266H4.58774V4.48516C4.58774 4.27987 4.51464 4.09193 4.36144 3.94896C4.21847 3.79576 4.03053 3.72266 3.82524 3.72266ZM16.0757 9.58016C16.0304 9.58016 15.9869 9.58573 15.9469 9.59372C15.9043 9.60225 15.8629 9.61459 15.823 9.63019L14.6584 10.0482C14.519 10.0976 14.3934 10.1851 14.3095 10.3214C14.2377 10.4381 14.2032 10.5677 14.2032 10.7027C14.2032 10.8854 14.2642 11.0584 14.3996 11.1938L14.4074 11.2011C14.5447 11.3292 14.7153 11.3902 14.8982 11.3902C15.0221 11.3902 15.1427 11.3613 15.2572 11.3141L15.3732 11.2649V15.3677C15.3732 15.5565 15.4443 15.7257 15.5772 15.8586C15.7069 15.9883 15.8724 16.0627 16.0607 16.0627C16.2501 16.0627 16.4232 15.9946 16.5591 15.8586C16.6921 15.7257 16.7632 15.5565 16.7632 15.3677V10.2827C16.7632 10.1027 16.7069 9.929 16.5744 9.79207C16.4411 9.64343 16.2619 9.58016 16.0757 9.58016Z" fill="#4A86FF"/>
<path fillRule="evenodd" clipRule="evenodd" d="M26.4619 9.30866C26.5393 9.4955 26.4965 9.71055 26.3535 9.85355L24.3535 11.8536C24.1583 12.0488 23.8417 12.0488 23.6464 11.8536L21.6464 9.85355C21.5034 9.71055 21.4607 9.4955 21.538 9.30866C21.6154 9.12182 21.7978 9 22 9L26 9C26.2022 9 26.3845 9.12182 26.4619 9.30866Z" fill="#69696B"/>
</svg>
