<svg width="16" height="17" viewBox="0 0 16 17" fill="none" xmlns="http://www.w3.org/2000/svg">
  <path fillRule="evenodd" clipRule="evenodd"
    d="M12.8281 2.76953H3.17188C2.52467 2.76953 2 3.2942 2 3.94141V13.5977C2 14.2449 2.52467 14.7695 3.17188 14.7695H12.8281C13.4753 14.7695 14 14.2449 14 13.5977V3.94141C14 3.2942 13.4753 2.76953 12.8281 2.76953ZM11.8775 4.3295H9.34253C9.03187 4.3295 8.78003 4.58134 8.78003 4.892V9.017C8.78003 9.32766 9.03187 9.5795 9.34253 9.5795H11.8775C12.1882 9.5795 12.44 9.32766 12.44 9.017V4.892C12.44 4.58134 12.1882 4.3295 11.8775 4.3295ZM4.12247 4.3295H6.65747C6.96813 4.3295 7.21997 4.58134 7.21997 4.892V12.017C7.21997 12.3277 6.96813 12.5795 6.65747 12.5795H4.12247C3.81181 12.5795 3.55997 12.3277 3.55997 12.017V4.892C3.55997 4.58134 3.81181 4.3295 4.12247 4.3295Z"
    fill="#A9A9AB" />
</svg>
  