<svg width="21" height="20" viewBox="0 0 21 20" fill="currentColor" xmlns="http://www.w3.org/2000/svg">
<path fillRule="evenodd" clipRule="evenodd" d="M6.06274 16.25C6.06274 15.8703 6.37055 15.5625 6.75024 15.5625L14.2502 15.5625C14.6299 15.5625 14.9377 15.8703 14.9377 16.25C14.9377 16.6297 14.6299 16.9375 14.2502 16.9375L6.75024 16.9375C6.37055 16.9375 6.06274 16.6297 6.06274 16.25Z" />
<path fillRule="evenodd" clipRule="evenodd" d="M6.75049 4.25C7.1647 4.25 7.50049 4.58579 7.50049 5V10C7.50049 11.6569 8.84363 13 10.5005 13C12.1573 13 13.5005 11.6569 13.5005 10V5C13.5005 4.58579 13.8363 4.25 14.2505 4.25C14.6647 4.25 15.0005 4.58579 15.0005 5V10C15.0005 12.4853 12.9858 14.5 10.5005 14.5C8.01521 14.5 6.00049 12.4853 6.00049 10V5C6.00049 4.58579 6.33627 4.25 6.75049 4.25Z" />
</svg>
