<svg width="311" height="270" viewBox="0 0 311 270" fill="none" xmlns="http://www.w3.org/2000/svg">
<g clip-path="url(#clip0_994_5218)">
<path d="M264.28 38.4805C268.81 38.5705 268.68 45.5405 273.21 45.6305C277.74 45.7205 277.88 38.7405 282.41 38.8305C286.94 38.9205 286.81 45.8905 291.34 45.9805C295.87 46.0705 296.01 39.0905 300.54 39.1805C305.07 39.2705 304.94 46.2405 309.47 46.3305" stroke="#0B1119" strokeWidth="1.74" strokeLinecap="round" strokeLinejoin="round"/>
<path d="M90 76.7802C93.72 74.1802 97.72 79.8903 101.43 77.2903C105.14 74.6903 101.14 68.9802 104.85 66.3802C108.56 63.7802 112.57 69.4902 116.28 66.8902C119.99 64.2902 116 58.5802 119.69 56.0002C123.38 53.4202 127.4 59.1102 131.12 56.5102" stroke="#0B1119" strokeWidth="1.74" strokeLinecap="round" strokeLinejoin="round"/>
<path d="M1.4502 38.46C2.72971 42.7884 5.2435 46.6498 8.68383 49.5715C12.1242 52.4932 16.3417 54.3484 20.8202 54.91" stroke="#FF6CA1" strokeWidth="2.91" strokeLinecap="round" strokeLinejoin="round"/>
<path d="M222.77 23.0498C222.329 26.305 221.112 29.4065 219.222 32.0934C217.332 34.7804 214.825 36.974 211.91 38.4898" stroke="#FF6CA1" strokeWidth="2.91" strokeLinecap="round" strokeLinejoin="round"/>
<path d="M64.7402 22.0996C70.084 29.9654 77.6436 36.0668 86.4602 39.6296" stroke="#9FBFFF" strokeWidth="2.91" strokeLinecap="round" strokeLinejoin="round"/>
<path d="M178.25 26.2305L185.81 27.4805L193.36 28.7305L188.5 34.6505L183.64 40.5605L180.95 33.4005L178.25 26.2305Z" stroke="#91D8CA" strokeWidth="2.32" strokeLinecap="round" strokeLinejoin="round"/>
<path d="M22.0098 1.16016L29.5698 2.41016L37.1198 3.66016L32.2598 9.58016L27.3998 15.5002L24.7098 8.33016L22.0098 1.16016Z" stroke="#91D8CA" strokeWidth="2.32" strokeLinecap="round" strokeLinejoin="round"/>
</g>
<defs>
<clipPath id="clip0_994_5218">
<rect width="310.34" height="269.26" fill="white"/>
</clipPath>
</defs>
</svg>
